{"glyphs":{"0":{"ha":800,"x_min":51,"x_max":747,"o":"m 400 -17 q 143 106 235 -17 q 51 446 51 228 q 144 790 51 669 q 400 910 236 910 q 656 788 565 910 q 747 446 747 665 q 655 103 747 222 q 400 -17 563 -17 m 400 89 q 565 181 507 89 q 622 446 622 274 q 565 710 622 617 q 400 804 507 804 q 234 712 292 804 q 176 446 176 619 q 235 183 176 278 q 400 89 293 89 z "},"1":{"ha":800,"x_min":192,"x_max":661,"o":"m 490 0 l 363 0 l 363 722 q 345 722 356 722 q 319 722 335 722 l 192 722 l 192 819 l 293 819 q 365 833 347 819 q 383 876 383 846 l 383 893 l 490 893 l 490 0 m 192 0 l 192 97 l 661 97 l 661 0 l 192 0 z "},"2":{"ha":800,"x_min":85,"x_max":715,"o":"m 706 643 q 678 530 706 578 q 607 445 651 482 q 510 378 563 408 q 403 316 457 347 q 306 248 350 285 q 234 162 261 211 q 207 46 207 113 l 86 33 q 113 181 86 119 q 184 288 140 243 q 281 365 228 332 q 386 427 333 399 q 483 485 439 456 q 553 553 526 515 q 581 642 581 590 q 537 761 581 718 q 410 804 493 804 q 271 760 318 804 q 211 639 224 715 l 85 639 q 138 784 97 724 q 248 877 179 844 q 411 910 317 910 q 574 874 508 910 q 672 779 639 839 q 706 643 706 719 m 86 0 l 86 33 l 182 97 l 715 97 l 715 0 l 86 0 z "},"3":{"ha":800,"x_min":57,"x_max":739,"o":"m 713 656 q 693 563 713 604 q 628 492 674 521 q 510 447 583 463 q 328 431 436 431 l 328 510 l 357 510 q 477 523 432 510 q 547 558 522 536 q 579 606 571 581 q 588 654 588 631 q 542 765 588 725 q 406 804 496 804 q 263 760 313 804 q 200 639 213 715 l 76 639 q 131 784 89 724 q 242 877 172 844 q 407 910 311 910 q 576 876 508 910 q 678 786 643 843 q 713 656 713 729 m 739 249 q 701 113 739 172 q 590 18 664 53 q 404 -17 515 -17 q 232 16 306 -17 q 114 110 158 49 q 57 257 69 172 l 182 257 q 248 135 194 181 q 403 89 301 89 q 560 133 507 89 q 614 254 614 176 q 604 311 614 283 q 568 362 594 339 q 492 399 542 385 q 364 413 443 413 l 328 413 l 328 506 q 526 486 447 506 q 652 432 606 467 q 719 351 699 397 q 739 249 739 304 z "},"4":{"ha":800,"x_min":61,"x_max":751,"o":"m 621 0 l 496 0 l 496 728 l 176 307 l 751 307 l 751 210 l 61 210 l 61 321 l 508 893 l 621 893 l 621 0 z "},"5":{"ha":800,"x_min":69,"x_max":744,"o":"m 744 297 q 707 135 744 206 q 596 24 669 64 q 413 -17 522 -17 q 240 15 313 -17 q 125 107 168 47 q 69 251 82 167 l 192 251 q 258 133 204 176 q 411 89 313 89 q 569 144 517 89 q 622 296 622 199 q 612 373 622 335 q 577 442 601 411 q 513 490 553 472 q 411 508 472 508 q 320 495 358 508 q 256 460 282 482 q 214 414 231 439 l 104 425 l 160 490 q 266 578 206 543 q 421 614 326 614 q 572 588 510 614 q 672 518 633 563 q 727 417 710 474 q 744 297 744 360 m 132 893 l 703 893 l 703 796 l 229 796 l 208 461 l 104 425 l 132 893 z "},"6":{"ha":800,"x_min":65,"x_max":753,"o":"m 422 86 l 425 -17 q 237 32 318 -17 q 110 183 156 81 q 65 446 65 286 q 160 790 65 669 q 424 910 256 910 q 633 840 549 910 q 750 642 718 771 l 625 642 q 547 763 600 722 q 419 804 494 804 q 241 712 303 804 q 179 446 179 619 q 204 239 179 318 q 283 123 229 160 q 422 86 338 86 m 425 -17 q 276 20 340 -17 q 174 125 211 57 q 138 283 138 193 q 176 446 138 378 q 283 550 215 514 q 433 586 350 586 q 601 551 529 586 q 713 449 672 515 q 753 288 753 382 q 710 124 753 193 q 594 19 668 56 q 425 -17 519 -17 m 422 89 q 572 139 515 89 q 628 283 628 189 q 601 390 628 346 q 529 457 575 433 q 422 481 483 481 q 272 429 329 481 q 215 282 215 378 q 272 140 215 192 q 422 89 329 89 z "},"7":{"ha":800,"x_min":79,"x_max":710,"o":"m 372 0 l 244 0 q 365 421 281 222 q 578 796 450 619 l 79 796 l 79 893 l 710 893 l 710 815 q 485 418 569 622 q 372 0 400 214 z "},"8":{"ha":800,"x_min":75,"x_max":739,"o":"m 407 -17 q 233 15 307 -17 q 117 106 158 47 q 75 244 75 164 q 117 383 75 326 q 235 470 160 440 q 407 500 310 500 q 581 468 507 500 q 697 379 656 436 q 739 246 739 322 q 697 105 739 164 q 581 15 656 46 q 407 -17 507 -17 m 407 86 q 559 129 501 86 q 617 251 617 172 q 590 342 617 304 q 517 399 564 379 q 407 418 469 418 q 255 375 313 418 q 197 250 197 332 q 255 130 197 174 q 407 86 313 86 m 407 910 q 565 881 497 910 q 670 797 632 851 q 708 664 708 742 q 670 538 708 592 q 565 456 632 485 q 407 426 497 426 q 251 455 318 426 q 145 536 183 483 q 107 664 107 589 q 145 794 107 739 q 251 879 183 849 q 407 910 318 910 m 407 807 q 276 768 326 807 q 226 660 226 729 q 276 549 226 588 q 407 510 325 510 q 538 549 488 510 q 589 658 589 589 q 539 769 589 731 q 407 807 489 807 z "},"9":{"ha":800,"x_min":61,"x_max":739,"o":"m 392 807 l 388 910 q 575 861 496 910 q 697 710 654 813 q 739 450 739 608 q 696 194 739 299 q 574 37 653 90 q 385 -17 494 -17 q 238 13 304 -17 q 127 101 172 43 q 61 244 82 160 l 186 244 q 262 128 208 167 q 389 89 315 89 q 563 178 503 89 q 622 438 622 267 q 598 651 622 569 q 523 769 574 732 q 392 807 472 807 m 388 910 q 532 873 469 910 q 630 769 594 836 q 665 610 665 701 q 628 446 665 515 q 528 339 592 376 q 383 301 464 301 q 152 382 240 301 q 64 610 64 463 q 105 772 64 704 q 219 874 146 839 q 388 910 293 910 m 392 804 q 244 753 300 804 q 189 610 189 703 q 244 460 189 514 q 392 407 300 407 q 538 460 482 407 q 593 610 593 513 q 538 753 593 701 q 392 804 482 804 z "},"\u0000":{"ha":0,"x_min":0,"x_max":0,"o":""},"\r":{"ha":0,"x_min":0,"x_max":0,"o":""}," ":{"ha":278,"x_min":0,"x_max":0,"o":""}," ":{"ha":278,"x_min":0,"x_max":0,"o":""},"A":{"ha":946,"x_min":28,"x_max":918,"o":"m 224 226 l 224 329 l 711 329 l 711 226 l 224 226 m 785 0 l 497 738 l 467 829 l 472 829 l 442 738 l 154 0 l 28 0 l 399 944 l 546 944 l 918 0 l 785 0 z "},"B":{"ha":871,"x_min":108,"x_max":811,"o":"m 108 0 l 108 944 l 236 944 l 236 0 l 108 0 m 488 0 l 200 0 l 200 103 l 485 103 q 628 148 575 103 q 681 268 681 193 q 623 388 681 343 q 465 432 565 432 l 200 432 l 200 535 l 435 535 q 577 576 526 535 q 628 686 628 618 q 577 800 628 758 q 438 842 526 842 l 200 842 l 200 944 l 440 944 q 673 876 586 944 q 760 693 760 808 q 707 552 760 610 q 554 479 654 494 l 554 508 q 745 430 679 496 q 811 265 811 364 q 725 69 811 139 q 488 0 639 0 z "},"C":{"ha":946,"x_min":74,"x_max":886,"o":"m 886 672 l 753 672 q 658 805 726 758 q 499 851 589 851 q 341 806 407 851 q 240 674 275 760 q 204 471 204 589 q 239 268 204 353 q 340 138 274 183 q 499 93 406 93 q 653 138 586 93 q 750 267 719 182 l 885 267 q 801 114 858 178 q 666 17 744 50 q 497 -17 588 -17 q 270 42 365 -17 q 124 210 175 101 q 74 471 74 319 q 126 732 74 622 q 274 901 178 842 q 503 961 369 961 q 673 928 594 961 q 808 831 751 896 q 886 672 864 767 z "},"D":{"ha":968,"x_min":108,"x_max":893,"o":"m 108 0 l 108 944 l 236 944 l 236 0 l 108 0 m 417 104 q 603 148 525 104 q 722 274 681 192 q 763 471 763 356 q 722 670 763 588 q 603 797 681 753 q 417 840 525 840 l 200 840 l 200 944 l 417 944 q 670 888 564 944 q 835 725 776 831 q 893 471 893 619 q 835 218 893 324 q 670 56 776 113 q 417 0 564 0 l 200 0 l 200 104 l 417 104 z "},"E":{"ha":810,"x_min":108,"x_max":749,"o":"m 108 0 l 108 944 l 236 944 l 236 0 l 108 0 m 200 0 l 200 104 l 749 104 l 749 0 l 200 0 m 200 840 l 200 944 l 749 944 l 749 840 l 200 840 m 200 438 l 200 542 l 697 542 l 697 438 l 200 438 z "},"F":{"ha":797,"x_min":108,"x_max":749,"o":"m 108 0 l 108 944 l 236 944 l 236 0 l 108 0 m 200 840 l 200 944 l 749 944 l 749 840 l 200 840 m 200 413 l 200 517 l 697 517 l 697 413 l 200 413 z "},"G":{"ha":974,"x_min":74,"x_max":886,"o":"m 886 672 l 753 672 q 658 805 726 758 q 499 851 589 851 q 341 806 407 851 q 240 674 275 760 q 204 471 204 589 q 240 268 204 353 q 342 138 275 183 q 503 93 410 93 q 631 123 574 93 q 723 217 688 153 q 763 382 758 281 l 826 382 q 783 156 826 244 q 663 26 739 68 q 492 -17 588 -17 q 270 42 364 -17 q 125 210 176 101 q 74 471 74 319 q 126 732 74 622 q 274 901 178 842 q 503 961 369 961 q 673 928 594 961 q 808 831 751 896 q 886 672 864 767 m 885 0 l 789 0 l 763 382 l 521 382 l 521 483 l 885 483 l 885 0 z "},"H":{"ha":967,"x_min":108,"x_max":858,"o":"m 108 0 l 108 944 l 236 944 l 236 0 l 108 0 m 731 0 l 731 944 l 858 944 l 858 0 l 731 0 m 200 435 l 200 539 l 756 539 l 756 435 l 200 435 z "},"I":{"ha":344,"x_min":108,"x_max":236,"o":"m 108 0 l 108 944 l 236 944 l 236 0 l 108 0 z "},"J":{"ha":735,"x_min":43,"x_max":638,"o":"m 43 285 l 171 285 q 220 144 179 196 q 340 93 261 93 q 465 150 421 93 q 510 308 510 207 l 510 944 l 638 944 l 638 322 q 558 74 638 165 q 340 -17 478 -17 q 130 65 208 -17 q 43 285 51 147 z "},"K":{"ha":864,"x_min":108,"x_max":840,"o":"m 108 0 l 108 944 l 236 944 l 236 0 l 108 0 m 219 471 l 668 944 l 829 944 l 375 471 l 219 471 m 219 471 l 368 497 l 840 0 l 668 0 l 219 471 z "},"L":{"ha":756,"x_min":108,"x_max":711,"o":"m 108 0 l 108 944 l 236 944 l 236 0 l 108 0 m 200 0 l 200 104 l 711 104 l 711 0 l 200 0 z "},"M":{"ha":1200,"x_min":108,"x_max":1092,"o":"m 108 0 l 108 944 l 236 944 l 236 0 l 108 0 m 964 0 l 964 944 l 1092 944 l 1092 0 l 964 0 m 644 0 l 554 0 l 301 606 l 179 944 l 285 944 l 575 251 l 613 138 l 593 138 l 632 251 l 921 944 l 1019 944 l 897 604 l 644 0 z "},"N":{"ha":967,"x_min":108,"x_max":858,"o":"m 108 0 l 108 944 l 236 944 l 236 0 l 108 0 m 731 0 l 731 944 l 858 944 l 858 0 l 731 0 m 725 0 l 292 663 l 131 944 l 242 944 l 676 278 l 838 0 l 725 0 z "},"O":{"ha":1039,"x_min":74,"x_max":965,"o":"m 519 -17 q 282 42 382 -17 q 128 211 182 101 q 74 471 74 321 q 128 732 74 622 q 282 901 182 842 q 519 961 382 961 q 757 901 657 961 q 911 732 857 842 q 965 471 965 622 q 911 211 965 321 q 757 42 857 101 q 519 -17 657 -17 m 519 93 q 689 139 618 93 q 797 269 760 185 q 835 471 835 354 q 797 674 835 589 q 689 806 760 760 q 519 851 618 851 q 350 806 421 851 q 242 674 279 760 q 204 471 204 589 q 242 269 204 354 q 350 139 279 185 q 519 93 421 93 z "},"P":{"ha":836,"x_min":108,"x_max":781,"o":"m 108 0 l 108 944 l 236 944 l 236 0 l 108 0 m 433 344 l 200 344 l 200 449 l 426 449 q 590 501 532 449 q 649 644 649 554 q 590 788 649 735 q 431 840 532 840 l 200 840 l 200 944 l 432 944 q 617 908 539 944 q 738 806 696 872 q 781 646 781 739 q 686 424 781 503 q 433 344 592 344 z "},"Q":{"ha":1039,"x_min":74,"x_max":965,"o":"m 519 -17 q 282 42 382 -17 q 128 211 182 101 q 74 471 74 321 q 128 732 74 622 q 282 901 182 842 q 519 961 382 961 q 757 901 657 961 q 911 732 857 842 q 965 471 965 622 q 911 211 965 321 q 757 42 857 101 q 519 -17 657 -17 m 519 93 q 689 139 618 93 q 797 269 760 185 q 835 471 835 354 q 797 674 835 589 q 689 806 760 760 q 519 851 618 851 q 350 806 421 851 q 242 674 279 760 q 204 471 204 589 q 242 269 204 354 q 350 139 279 185 q 519 93 421 93 m 488 240 l 560 328 l 965 -11 l 893 -99 l 488 240 z "},"R":{"ha":864,"x_min":108,"x_max":819,"o":"m 108 0 l 108 944 l 236 944 l 236 0 l 108 0 m 460 421 l 200 421 l 200 500 l 443 500 q 590 547 538 500 q 642 671 642 593 q 590 794 642 749 q 446 840 538 840 l 200 840 l 200 944 l 449 944 q 685 873 597 944 q 774 678 774 801 q 688 487 774 553 q 460 421 603 421 m 685 0 l 625 256 q 589 344 611 314 q 530 385 567 375 q 436 396 493 396 l 222 396 l 222 479 l 456 479 q 607 463 550 479 q 697 403 664 446 q 749 281 729 360 l 819 0 l 685 0 z "},"S":{"ha":838,"x_min":53,"x_max":785,"o":"m 206 714 q 230 633 206 664 q 296 585 254 603 q 389 557 338 568 q 495 535 440 546 q 601 508 550 525 q 694 463 653 492 q 760 386 736 433 q 785 267 785 339 q 740 113 785 176 q 616 16 694 49 q 436 -17 538 -17 q 256 15 335 -17 q 126 109 178 46 q 53 267 74 172 l 186 267 q 273 138 210 182 q 438 93 336 93 q 599 136 544 93 q 654 250 654 179 q 630 338 654 304 q 564 390 606 371 q 471 420 522 408 q 365 443 419 432 q 258 470 310 454 q 165 514 207 486 q 99 588 124 542 q 75 706 75 633 q 113 832 75 774 q 222 926 150 890 q 397 961 293 961 q 565 931 489 961 q 692 837 640 900 q 760 672 743 774 l 625 672 q 544 809 603 767 q 394 851 485 851 q 256 814 306 851 q 206 714 206 776 z "},"T":{"ha":861,"x_min":43,"x_max":818,"o":"m 367 0 l 367 944 l 494 944 l 494 0 l 367 0 m 43 836 l 43 944 l 818 944 l 818 836 l 43 836 z "},"U":{"ha":949,"x_min":97,"x_max":851,"o":"m 851 360 q 806 159 851 243 q 676 29 760 75 q 475 -17 592 -17 q 274 29 358 -17 q 143 159 189 75 q 97 360 97 243 l 97 944 l 226 944 l 226 360 q 292 159 226 232 q 475 86 358 86 q 658 160 592 86 q 724 360 724 233 l 724 944 l 851 944 l 851 360 z "},"V":{"ha":946,"x_min":28,"x_max":918,"o":"m 161 944 l 449 207 l 479 115 l 474 115 l 504 207 l 792 944 l 918 944 l 547 0 l 400 0 l 28 944 l 161 944 z "},"W":{"ha":1458,"x_min":53,"x_max":1406,"o":"m 956 0 l 751 697 l 724 796 l 736 796 l 708 697 l 504 0 l 353 0 l 53 944 l 189 944 l 413 206 l 443 99 l 424 99 l 450 206 l 665 944 l 803 944 l 1017 206 l 1044 99 l 1026 99 l 1053 206 l 1275 944 l 1406 944 l 1106 0 l 956 0 z "},"X":{"ha":896,"x_min":31,"x_max":865,"o":"m 717 0 l 481 328 l 431 406 l 454 406 l 403 328 l 168 0 l 31 0 l 375 488 l 56 944 l 204 944 l 413 658 l 467 572 l 443 572 l 499 658 l 703 944 l 840 944 l 522 490 l 865 0 l 717 0 z "},"Y":{"ha":847,"x_min":21,"x_max":826,"o":"m 360 0 l 360 349 l 488 349 l 488 0 l 360 0 m 164 944 l 385 551 l 435 447 l 422 447 l 469 551 l 690 944 l 826 944 l 488 349 l 360 349 l 21 944 l 164 944 z "},"Z":{"ha":856,"x_min":71,"x_max":783,"o":"m 71 108 l 635 836 l 783 836 l 219 108 l 71 108 m 71 836 l 71 944 l 783 944 l 783 836 l 71 836 m 71 0 l 71 108 l 783 108 l 783 0 l 71 0 z "},"Æ":{"ha":1331,"x_min":28,"x_max":1269,"o":"m 238 249 l 238 353 l 688 353 l 688 249 l 238 249 m 733 944 l 743 840 l 522 840 l 544 857 l 158 0 l 28 0 l 458 944 l 733 944 m 650 0 l 650 944 l 778 944 l 778 0 l 650 0 m 742 0 l 742 104 l 1269 104 l 1269 0 l 742 0 m 742 840 l 742 944 l 1269 944 l 1269 840 l 742 840 m 742 433 l 742 538 l 1218 538 l 1218 433 l 742 433 z "},"Œ":{"ha":1496,"x_min":74,"x_max":1435,"o":"m 807 0 l 807 944 l 932 944 l 932 0 l 807 0 m 894 0 l 894 104 l 1435 104 l 1435 0 l 894 0 m 894 840 l 894 944 l 1435 944 l 1435 840 l 894 840 m 894 433 l 894 538 l 1383 538 l 1383 433 l 894 433 m 506 -17 q 275 42 372 -17 q 126 211 178 101 q 74 471 74 321 q 126 732 74 622 q 274 901 178 842 q 503 961 371 961 q 720 901 629 961 q 860 732 811 842 q 908 471 908 622 q 860 211 908 321 q 721 42 811 101 q 506 -17 631 -17 m 506 86 q 667 133 600 86 q 771 265 735 179 q 807 471 807 351 q 771 677 807 590 q 667 810 735 764 q 506 857 600 857 q 344 810 411 857 q 240 677 276 764 q 204 471 204 590 q 240 265 204 351 q 344 133 276 179 q 506 86 411 86 z "},"Ł":{"ha":756,"x_min":21,"x_max":711,"o":"m 108 0 l 108 944 l 236 944 l 236 0 l 108 0 m 200 0 l 200 104 l 711 104 l 711 0 l 200 0 m 21 354 l 21 449 l 428 613 l 428 518 l 21 354 z "},"Ø":{"ha":1039,"x_min":74,"x_max":965,"o":"m 110 -44 l 817 989 l 929 989 l 222 -44 l 110 -44 m 519 -17 q 282 42 382 -17 q 128 211 182 101 q 74 471 74 321 q 128 732 74 622 q 282 901 182 842 q 519 961 382 961 q 757 901 657 961 q 911 732 857 842 q 965 471 965 622 q 911 211 965 321 q 757 42 857 101 q 519 -17 657 -17 m 519 93 q 689 139 618 93 q 797 269 760 185 q 835 471 835 354 q 797 674 835 589 q 689 806 760 760 q 519 851 618 851 q 350 806 421 851 q 242 674 279 760 q 204 471 204 589 q 242 269 204 354 q 350 139 279 185 q 519 93 421 93 z "},"Ð":{"ha":968,"x_min":21,"x_max":893,"o":"m 21 435 l 21 543 l 499 543 l 499 435 l 21 435 m 108 0 l 108 944 l 236 944 l 236 0 l 108 0 m 417 104 q 603 148 525 104 q 722 274 681 192 q 763 471 763 356 q 722 670 763 588 q 603 797 681 753 q 417 840 525 840 l 200 840 l 200 944 l 417 944 q 670 888 564 944 q 835 725 776 831 q 893 471 893 619 q 835 218 893 324 q 670 56 776 113 q 417 0 564 0 l 200 0 l 200 104 l 417 104 z "},"Þ":{"ha":836,"x_min":108,"x_max":781,"o":"m 108 0 l 108 944 l 236 944 l 236 0 l 108 0 m 433 194 l 200 194 l 200 299 l 426 299 q 590 351 532 299 q 649 494 649 404 q 590 638 649 585 q 431 690 532 690 l 200 690 l 200 794 l 432 794 q 617 758 539 794 q 738 656 696 722 q 781 496 781 589 q 686 274 781 353 q 433 194 592 194 z "},"a":{"ha":794,"x_min":63,"x_max":718,"o":"m 210 497 l 88 497 q 139 637 100 579 q 243 725 178 694 q 399 756 308 756 q 563 719 497 756 q 660 619 628 683 q 692 468 692 554 l 692 178 q 698 72 692 114 q 718 0 704 31 l 589 0 q 572 69 575 28 q 569 151 569 111 l 569 465 q 526 602 569 554 q 388 650 482 650 q 265 609 308 650 q 210 497 221 568 m 588 449 l 588 357 q 385 345 464 357 q 264 312 307 333 q 204 261 221 290 q 188 197 188 232 q 227 117 188 146 q 331 89 267 89 q 453 121 399 89 q 538 206 507 153 q 569 322 569 260 l 635 322 q 599 167 629 232 q 523 63 569 103 q 424 3 476 22 q 318 -17 371 -17 q 184 7 242 -17 q 94 78 126 31 q 63 194 63 125 q 103 324 63 271 q 226 406 144 378 q 389 440 304 432 q 588 449 474 449 z "},"b":{"ha":800,"x_min":97,"x_max":740,"o":"m 426 756 q 595 710 525 756 q 703 578 665 664 q 740 371 740 492 q 656 83 740 183 q 426 -17 571 -17 q 223 83 299 -17 q 147 371 147 182 q 181 574 147 488 q 278 708 215 660 q 426 756 342 756 m 418 650 q 270 578 321 650 q 219 371 219 507 q 272 163 219 236 q 418 89 324 89 q 565 162 514 89 q 615 371 615 235 q 564 577 615 504 q 418 650 513 650 m 219 0 l 97 0 l 97 1000 l 219 1000 l 219 0 z "},"c":{"ha":767,"x_min":60,"x_max":713,"o":"m 707 483 l 585 483 q 518 609 569 568 q 393 650 467 650 q 238 577 292 650 q 185 368 185 504 q 240 160 185 233 q 397 88 296 88 q 522 127 471 88 q 590 246 572 167 l 713 246 q 601 46 688 108 q 394 -17 515 -17 q 215 30 290 -17 q 100 163 140 76 q 60 368 60 249 q 100 579 60 493 q 215 710 140 665 q 393 756 290 756 q 542 725 475 756 q 652 634 608 694 q 707 483 696 574 z "},"d":{"ha":800,"x_min":60,"x_max":703,"o":"m 374 -17 q 206 29 276 -17 q 97 162 135 75 q 60 368 60 249 q 144 656 60 556 q 374 756 229 756 q 577 656 501 756 q 653 368 653 557 q 619 165 653 251 q 522 31 585 78 q 374 -17 460 -17 m 382 89 q 530 160 479 89 q 581 368 581 232 q 528 576 581 503 q 382 650 476 650 q 235 577 286 650 q 185 368 185 504 q 237 162 185 235 q 382 89 289 89 m 581 0 l 581 1000 l 703 1000 l 703 0 l 581 0 z "},"e":{"ha":794,"x_min":60,"x_max":735,"o":"m 675 439 l 606 374 q 551 578 606 506 q 396 650 496 650 q 239 577 293 650 q 185 368 185 504 q 242 162 185 235 q 403 89 299 89 q 534 126 481 89 q 607 240 588 164 l 735 240 q 616 47 704 111 q 403 -17 528 -17 q 219 29 296 -17 q 101 162 142 75 q 60 368 60 249 q 101 579 60 493 q 217 710 142 665 q 396 756 293 756 q 574 710 500 756 q 689 580 649 664 q 729 378 729 496 l 729 347 l 111 347 l 111 439 l 675 439 z "},"f":{"ha":378,"x_min":7,"x_max":378,"o":"m 110 788 q 159 960 110 904 q 310 1017 208 1017 q 351 1013 333 1017 q 378 1006 368 1010 l 378 918 l 365 918 q 258 886 285 918 q 232 788 232 854 l 232 0 l 110 0 l 110 788 m 7 640 l 7 738 l 378 738 l 378 640 l 7 640 z "},"g":{"ha":801,"x_min":60,"x_max":703,"o":"m 360 -6 q 199 40 267 -6 q 96 171 132 86 q 60 374 60 256 q 140 658 60 560 q 360 756 221 756 q 581 656 508 756 q 653 375 653 557 q 574 91 653 188 q 360 -6 496 -6 m 382 100 q 530 171 479 100 q 581 375 581 242 q 528 578 581 506 q 382 650 476 650 q 235 579 286 650 q 185 374 185 508 q 236 172 185 243 q 382 100 288 100 m 703 -22 q 663 -192 703 -125 q 554 -291 622 -258 q 401 -324 486 -324 q 185 -261 271 -324 q 79 -72 99 -199 l 201 -72 q 266 -183 213 -144 q 400 -222 319 -222 q 531 -176 482 -222 q 581 -26 581 -129 l 581 738 l 703 738 l 703 -22 z "},"h":{"ha":794,"x_min":97,"x_max":697,"o":"m 97 0 l 97 1000 l 219 1000 l 219 0 l 97 0 m 219 436 l 161 436 q 205 613 168 542 q 304 719 242 683 q 447 756 367 756 q 582 726 526 756 q 667 638 638 696 q 697 493 697 579 l 697 0 l 575 0 l 575 468 q 558 565 575 524 q 505 628 540 606 q 414 651 469 651 q 332 633 368 651 q 271 583 296 614 q 233 515 246 553 q 219 436 219 476 z "},"i":{"ha":317,"x_min":97,"x_max":219,"o":"m 97 0 l 97 738 l 219 738 l 219 0 l 97 0 m 97 836 l 97 1000 l 219 1000 l 219 836 l 97 836 z "},"j":{"ha":317,"x_min":-49,"x_max":219,"o":"m 219 -94 q 171 -267 219 -211 q 19 -324 122 -324 q -21 -320 -3 -324 q -49 -312 -39 -317 l -49 -225 l -36 -225 q 71 -193 44 -225 q 97 -94 97 -161 l 97 738 l 219 738 l 219 -94 m 97 836 l 97 1000 l 219 1000 l 219 836 l 97 836 z "},"k":{"ha":728,"x_min":97,"x_max":707,"o":"m 97 0 l 97 1000 l 219 1000 l 219 0 l 97 0 m 199 400 l 538 738 l 688 738 l 343 400 l 199 400 m 199 400 l 342 419 l 707 0 l 551 0 l 199 400 z "},"l":{"ha":317,"x_min":97,"x_max":219,"o":"m 97 0 l 97 1000 l 219 1000 l 219 0 l 97 0 z "},"m":{"ha":1206,"x_min":97,"x_max":1108,"o":"m 97 0 l 97 738 l 219 738 l 219 0 l 97 0 m 219 436 l 161 436 q 203 613 168 542 q 297 719 238 683 q 431 756 356 756 q 556 726 504 756 q 636 638 608 696 q 664 493 664 579 l 664 0 l 542 0 l 542 468 q 526 565 542 524 q 479 628 511 606 q 397 651 447 651 q 323 633 356 651 q 267 583 290 614 q 231 515 243 553 q 219 436 219 476 m 664 436 l 592 436 q 635 613 599 542 q 731 719 671 683 q 868 756 790 756 q 997 726 943 756 q 1080 638 1051 696 q 1108 493 1108 579 l 1108 0 l 986 0 l 986 468 q 971 565 986 524 q 924 628 956 606 q 842 651 892 651 q 767 633 800 651 q 711 583 735 614 q 676 515 688 553 q 664 436 664 476 z "},"n":{"ha":794,"x_min":97,"x_max":697,"o":"m 97 0 l 97 738 l 219 738 l 219 0 l 97 0 m 219 436 l 161 436 q 205 613 168 542 q 304 719 242 683 q 447 756 367 756 q 582 726 526 756 q 667 638 638 696 q 697 493 697 579 l 697 0 l 575 0 l 575 468 q 558 565 575 524 q 505 628 540 606 q 414 651 469 651 q 332 633 368 651 q 271 583 296 614 q 233 515 246 553 q 219 436 219 476 z "},"o":{"ha":794,"x_min":60,"x_max":735,"o":"m 397 -17 q 216 29 292 -17 q 100 162 140 75 q 60 368 60 249 q 101 579 60 493 q 218 710 142 665 q 397 756 294 756 q 578 709 503 756 q 694 576 654 663 q 735 368 735 489 q 694 158 735 244 q 577 28 653 72 q 397 -17 501 -17 m 397 89 q 555 161 500 89 q 610 368 610 233 q 555 576 610 503 q 397 650 500 650 q 240 577 294 650 q 185 368 185 504 q 240 162 185 235 q 397 89 296 89 z "},"p":{"ha":801,"x_min":99,"x_max":742,"o":"m 428 756 q 597 710 526 756 q 704 578 667 664 q 742 371 742 492 q 657 83 742 183 q 428 -17 572 -17 q 224 83 300 -17 q 149 371 149 182 q 183 574 149 488 q 280 708 217 660 q 428 756 343 756 m 419 650 q 272 578 322 650 q 221 371 221 507 q 273 163 221 236 q 419 89 325 89 q 566 162 515 89 q 617 371 617 235 q 565 577 617 504 q 419 650 514 650 m 221 -306 l 99 -306 l 99 738 l 221 738 l 221 -306 z "},"q":{"ha":801,"x_min":60,"x_max":703,"o":"m 374 -17 q 206 29 276 -17 q 97 162 135 75 q 60 368 60 249 q 144 656 60 556 q 374 756 229 756 q 577 656 501 756 q 653 368 653 557 q 619 165 653 251 q 522 31 585 78 q 374 -17 460 -17 m 382 89 q 530 160 479 89 q 581 368 581 232 q 528 576 581 503 q 382 650 476 650 q 235 577 286 650 q 185 368 185 504 q 237 162 185 235 q 382 89 289 89 m 581 -306 l 581 738 l 703 738 l 703 -306 l 581 -306 z "},"r":{"ha":518,"x_min":97,"x_max":507,"o":"m 97 0 l 97 738 l 219 738 l 219 0 l 97 0 m 219 413 l 164 413 q 210 608 172 532 q 308 719 249 683 q 438 756 367 756 q 478 751 460 756 q 507 738 497 746 l 507 628 q 472 635 492 633 q 431 638 453 638 q 335 622 375 638 q 270 575 296 606 q 232 503 244 544 q 219 413 219 463 z "},"s":{"ha":715,"x_min":46,"x_max":667,"o":"m 188 549 q 213 481 188 504 q 282 444 239 457 q 376 424 325 432 q 478 406 428 417 q 572 373 529 394 q 641 313 615 351 q 667 208 667 274 q 629 90 667 140 q 525 11 592 39 q 371 -17 458 -17 q 153 47 240 -17 q 46 240 67 110 l 168 240 q 235 122 181 164 q 375 81 290 81 q 501 115 458 81 q 544 200 544 149 q 519 267 544 243 q 451 302 493 290 q 358 322 408 314 q 257 342 307 331 q 165 374 207 353 q 97 435 122 396 q 71 540 71 475 q 100 646 71 597 q 189 725 129 694 q 339 756 249 756 q 483 729 419 756 q 588 646 546 703 q 640 497 629 589 l 518 497 q 457 619 504 583 q 332 656 410 656 q 226 625 264 656 q 188 549 188 594 z "},"t":{"ha":418,"x_min":11,"x_max":399,"o":"m 114 213 l 114 907 l 236 907 l 236 213 q 263 114 236 146 q 371 82 290 82 l 396 82 l 396 -6 q 365 -14 386 -11 q 317 -17 343 -17 q 164 40 214 -17 q 114 213 114 96 m 11 640 l 11 738 l 399 738 l 399 640 l 11 640 z "},"u":{"ha":786,"x_min":97,"x_max":689,"o":"m 689 738 l 689 0 l 567 0 l 567 738 l 689 738 m 567 301 l 625 301 q 582 125 619 196 q 483 19 544 54 q 343 -17 422 -17 q 211 13 267 -17 q 126 101 156 43 q 97 244 97 160 l 97 738 l 219 738 l 219 269 q 236 173 219 214 q 288 110 253 132 q 376 88 322 88 q 456 106 421 88 q 516 155 492 124 q 553 224 540 186 q 567 301 567 263 z "},"v":{"ha":714,"x_min":7,"x_max":707,"o":"m 282 0 l 7 738 l 139 738 l 343 165 l 371 69 l 353 69 l 379 165 l 583 738 l 707 738 l 432 0 l 282 0 z "},"w":{"ha":1125,"x_min":14,"x_max":1111,"o":"m 736 0 l 576 551 l 557 653 l 564 653 l 543 551 l 385 0 l 233 0 l 14 738 l 146 738 l 297 165 l 319 72 l 311 72 l 333 165 l 501 738 l 633 738 l 801 165 l 822 74 l 814 74 l 833 165 l 985 738 l 1111 738 l 890 0 l 736 0 z "},"x":{"ha":726,"x_min":7,"x_max":719,"o":"m 567 0 l 390 246 l 342 324 l 368 324 l 318 246 l 146 0 l 7 0 l 288 383 l 29 738 l 182 738 l 335 521 l 385 440 l 358 440 l 408 521 l 558 738 l 697 738 l 439 383 l 719 0 l 567 0 z "},"y":{"ha":732,"x_min":7,"x_max":725,"o":"m 131 -322 q 90 -318 110 -322 q 58 -311 69 -314 l 58 -217 l 96 -217 q 153 -211 129 -217 q 196 -187 176 -206 q 236 -133 215 -169 q 283 -33 257 -96 l 308 24 l 7 738 l 139 738 l 339 250 l 381 126 l 364 126 l 406 250 l 600 738 l 725 738 l 381 -97 q 328 -208 353 -164 q 276 -276 303 -251 q 214 -312 249 -301 q 131 -322 179 -322 z "},"z":{"ha":692,"x_min":42,"x_max":650,"o":"m 58 640 l 58 738 l 625 738 l 625 640 l 58 640 m 42 0 l 42 96 l 650 96 l 650 0 l 42 0 m 42 96 l 479 640 l 625 640 l 188 96 l 42 96 z "},"æ":{"ha":1301,"x_min":63,"x_max":1242,"o":"m 214 496 l 92 496 q 142 635 103 576 q 249 724 182 693 q 407 756 315 756 q 569 719 504 756 q 665 619 633 683 q 697 468 697 554 l 697 301 l 575 301 l 575 465 q 533 603 575 556 q 401 650 490 650 q 270 608 315 650 q 214 496 225 565 m 593 440 l 593 349 q 386 338 467 349 q 262 306 306 326 q 201 258 218 286 q 185 199 185 231 q 225 118 185 147 q 332 89 265 89 q 456 118 401 89 q 543 196 511 147 q 575 301 575 244 l 653 301 q 616 156 647 217 q 535 58 585 96 q 427 1 486 19 q 307 -17 368 -17 q 179 9 235 -17 q 93 83 124 35 q 63 194 63 131 q 103 319 63 267 q 226 400 144 372 q 390 433 303 425 q 593 440 478 440 m 1183 440 l 1115 389 q 1060 582 1115 514 q 904 650 1004 650 q 750 578 803 650 q 697 374 697 507 q 753 163 697 238 q 911 89 808 89 q 1042 126 989 89 q 1115 240 1094 164 l 1242 240 q 1125 47 1213 111 q 911 -17 1038 -17 q 733 30 807 -17 q 619 163 658 76 q 579 368 579 249 q 619 579 579 493 q 731 710 658 665 q 904 756 804 756 q 1083 711 1008 756 q 1198 584 1158 667 q 1238 386 1238 501 l 1238 349 l 643 349 l 625 440 l 1183 440 z "},"œ":{"ha":1344,"x_min":60,"x_max":1285,"o":"m 397 -17 q 216 29 292 -17 q 100 162 140 75 q 60 368 60 249 q 101 579 60 493 q 218 710 142 665 q 397 756 294 756 q 569 709 497 756 q 678 576 640 663 q 717 368 717 489 q 678 158 717 244 q 567 28 639 72 q 397 -17 496 -17 m 397 89 q 555 160 500 89 q 610 368 610 232 q 555 576 610 503 q 397 650 500 650 q 240 577 294 650 q 185 368 185 504 q 240 162 185 235 q 397 89 296 89 m 1226 426 l 1158 374 q 1103 578 1158 506 q 947 650 1047 650 q 788 578 843 650 q 733 368 733 506 q 791 162 733 235 q 954 89 849 89 q 1085 126 1032 89 q 1158 240 1138 164 l 1285 240 q 1167 47 1256 111 q 954 -17 1079 -17 q 779 30 853 -17 q 667 163 706 76 q 628 368 628 249 q 667 579 628 493 q 778 710 706 665 q 947 756 850 756 q 1126 710 1051 756 q 1241 580 1201 664 q 1281 378 1281 496 l 1281 335 l 661 335 l 661 426 l 1226 426 z "},"ł":{"ha":317,"x_min":14,"x_max":303,"o":"m 97 0 l 97 1000 l 219 1000 l 219 0 l 97 0 m 14 382 l 14 476 l 303 624 l 303 529 l 14 382 z "},"ø":{"ha":807,"x_min":60,"x_max":747,"o":"m 403 -17 q 219 30 296 -17 q 101 163 142 76 q 60 368 60 249 q 102 579 60 493 q 222 710 144 665 q 403 756 299 756 q 588 709 511 756 q 706 576 665 663 q 747 368 747 489 q 705 158 747 244 q 585 28 663 72 q 403 -17 508 -17 m 672 804 l 224 -67 l 133 -67 l 583 804 l 672 804 m 403 89 q 568 160 511 89 q 625 368 625 232 q 567 576 625 503 q 403 650 510 650 q 238 577 296 650 q 181 368 181 504 q 239 162 181 235 q 403 89 297 89 z "},"ð":{"ha":794,"x_min":60,"x_max":735,"o":"m 397 -17 q 216 27 292 -17 q 100 153 140 71 q 60 349 60 235 q 101 549 60 468 q 218 673 142 631 q 397 715 294 715 q 578 672 503 715 q 694 550 654 629 q 735 361 735 471 q 694 156 735 240 q 577 27 653 71 q 397 -17 501 -17 m 397 89 q 555 156 500 89 q 610 349 610 222 q 555 541 610 472 q 397 610 500 610 q 240 542 294 610 q 185 349 185 475 q 240 157 185 225 q 397 89 296 89 m 197 1000 l 365 1000 q 569 822 486 921 q 693 607 651 722 q 735 361 735 492 l 622 349 q 513 708 622 546 q 197 1000 404 871 m 226 776 l 226 856 l 600 1000 l 600 921 l 226 776 z "},"þ":{"ha":800,"x_min":97,"x_max":740,"o":"m 426 756 q 595 710 525 756 q 703 578 665 664 q 740 371 740 492 q 656 83 740 183 q 426 -17 571 -17 q 223 83 299 -17 q 147 371 147 182 q 181 574 147 488 q 278 708 215 660 q 426 756 342 756 m 418 650 q 270 578 321 650 q 219 371 219 507 q 272 163 219 236 q 418 89 324 89 q 565 162 514 89 q 615 371 615 235 q 564 577 615 504 q 418 650 513 650 m 219 -306 l 97 -306 l 97 1000 l 219 1000 l 219 -306 z "},"ß":{"ha":839,"x_min":97,"x_max":786,"o":"m 408 1011 q 585 975 515 1011 q 688 876 654 939 q 721 735 721 814 q 686 606 721 663 q 576 517 651 550 q 381 485 501 485 l 381 564 l 393 564 q 516 587 471 564 q 580 647 561 610 q 599 729 599 685 q 552 856 599 807 q 411 906 506 906 q 269 853 318 906 q 219 694 219 800 l 219 0 l 97 0 l 97 688 q 179 928 97 844 q 408 1011 261 1011 m 786 271 q 749 122 786 186 q 635 20 711 57 q 444 -17 560 -17 q 369 -13 407 -17 q 299 0 331 -10 l 299 89 l 421 89 q 606 139 546 89 q 665 274 665 189 q 654 344 665 310 q 616 406 643 378 q 540 450 589 433 q 413 467 490 467 l 381 467 l 381 560 q 576 538 497 560 q 700 476 654 515 q 766 383 746 436 q 786 271 786 331 z "},"ı":{"ha":317,"x_min":97,"x_max":219,"o":"m 97 0 l 97 738 l 219 738 l 219 0 l 97 0 z "},"ȷ":{"ha":317,"x_min":-49,"x_max":219,"o":"m 219 -94 q 171 -267 219 -211 q 19 -324 122 -324 q -21 -320 -3 -324 q -49 -312 -39 -317 l -49 -225 l -36 -225 q 71 -193 44 -225 q 97 -94 97 -161 l 97 738 l 219 738 l 219 -94 z "},"ﬁ":{"ha":694,"x_min":7,"x_max":597,"o":"m 110 788 q 159 960 110 904 q 310 1017 208 1017 q 351 1013 333 1017 q 378 1006 368 1010 l 378 918 l 365 918 q 258 886 285 918 q 232 788 232 854 l 232 0 l 110 0 l 110 788 m 7 640 l 7 738 l 378 738 l 378 640 l 7 640 m 475 0 l 475 738 l 597 738 l 597 0 l 475 0 m 475 836 l 475 1000 l 597 1000 l 597 836 l 475 836 z "},"ﬂ":{"ha":694,"x_min":7,"x_max":597,"o":"m 110 788 q 159 960 110 904 q 310 1017 208 1017 q 351 1013 333 1017 q 378 1006 368 1010 l 378 918 l 365 918 q 258 886 285 918 q 232 788 232 854 l 232 0 l 110 0 l 110 788 m 7 640 l 7 738 l 378 738 l 378 640 l 7 640 m 475 0 l 475 1000 l 597 1000 l 597 0 l 475 0 z "},"Á":{"ha":946,"x_min":28,"x_max":918,"o":"m 224 226 l 224 329 l 711 329 l 711 226 l 224 226 m 785 0 l 497 738 l 467 829 l 472 829 l 442 738 l 154 0 l 28 0 l 399 944 l 546 944 l 918 0 l 785 0 m 418 1042 l 549 1206 l 704 1206 l 538 1042 l 418 1042 z "},"Â":{"ha":946,"x_min":28,"x_max":918,"o":"m 224 226 l 224 329 l 711 329 l 711 226 l 224 226 m 785 0 l 497 738 l 467 829 l 472 829 l 442 738 l 154 0 l 28 0 l 399 944 l 546 944 l 918 0 l 785 0 m 585 1042 l 486 1144 l 386 1042 l 272 1042 l 410 1206 l 560 1206 l 699 1042 l 585 1042 z "},"Ä":{"ha":946,"x_min":28,"x_max":918,"o":"m 224 226 l 224 329 l 711 329 l 711 226 l 224 226 m 785 0 l 497 738 l 467 829 l 472 829 l 442 738 l 154 0 l 28 0 l 399 944 l 546 944 l 918 0 l 785 0 m 350 1042 l 350 1206 l 457 1206 l 457 1042 l 350 1042 m 513 1042 l 513 1206 l 619 1206 l 619 1042 l 513 1042 z "},"À":{"ha":946,"x_min":28,"x_max":918,"o":"m 224 226 l 224 329 l 711 329 l 711 226 l 224 226 m 785 0 l 497 738 l 467 829 l 472 829 l 442 738 l 154 0 l 28 0 l 399 944 l 546 944 l 918 0 l 785 0 m 551 1042 l 432 1042 l 265 1206 l 421 1206 l 551 1042 z "},"Å":{"ha":946,"x_min":28,"x_max":918,"o":"m 224 226 l 224 329 l 711 329 l 711 226 l 224 226 m 785 0 l 497 738 l 467 829 l 472 829 l 442 738 l 154 0 l 28 0 l 399 944 l 546 944 l 918 0 l 785 0 m 485 1042 q 384 1081 424 1042 q 344 1181 344 1121 q 384 1282 344 1242 q 485 1322 424 1322 q 585 1282 544 1322 q 625 1181 625 1242 q 585 1081 625 1121 q 485 1042 544 1042 m 485 1110 q 533 1130 514 1110 q 551 1181 551 1150 q 533 1233 551 1213 q 485 1253 514 1253 q 437 1233 456 1253 q 418 1181 418 1213 q 437 1130 418 1150 q 485 1110 456 1110 z "},"Ã":{"ha":946,"x_min":28,"x_max":918,"o":"m 224 226 l 224 329 l 711 329 l 711 226 l 224 226 m 785 0 l 497 738 l 467 829 l 472 829 l 442 738 l 154 0 l 28 0 l 399 944 l 546 944 l 918 0 l 785 0 m 346 1042 l 272 1042 q 290 1142 272 1107 q 335 1192 308 1178 q 388 1206 361 1206 q 452 1193 425 1206 q 500 1163 479 1181 q 539 1133 521 1146 q 576 1121 557 1121 q 597 1128 586 1121 q 615 1153 607 1135 q 624 1206 622 1171 l 697 1206 q 678 1104 697 1140 q 633 1055 660 1068 q 582 1042 607 1042 q 517 1054 544 1042 q 469 1083 490 1067 q 431 1113 449 1100 q 393 1125 413 1125 q 372 1118 382 1125 q 354 1093 361 1111 q 346 1042 347 1075 z "},"Ă":{"ha":946,"x_min":28,"x_max":918,"o":"m 224 226 l 224 329 l 711 329 l 711 226 l 224 226 m 785 0 l 497 738 l 467 829 l 472 829 l 442 738 l 154 0 l 28 0 l 399 944 l 546 944 l 918 0 l 785 0 m 283 1206 l 375 1206 q 412 1142 379 1161 q 486 1122 444 1122 q 558 1142 526 1122 q 596 1206 590 1161 l 686 1206 q 646 1108 676 1144 q 574 1057 615 1072 q 486 1042 532 1042 q 396 1057 439 1042 q 323 1108 353 1072 q 283 1206 293 1144 z "},"Ā":{"ha":946,"x_min":28,"x_max":918,"o":"m 224 226 l 224 329 l 711 329 l 711 226 l 224 226 m 785 0 l 497 738 l 467 829 l 472 829 l 442 738 l 154 0 l 28 0 l 399 944 l 546 944 l 918 0 l 785 0 m 318 1076 l 318 1172 l 651 1172 l 651 1076 l 318 1076 z "},"Ą":{"ha":946,"x_min":28,"x_max":918,"o":"m 224 226 l 224 329 l 711 329 l 711 226 l 224 226 m 785 0 l 497 738 l 467 829 l 472 829 l 442 738 l 154 0 l 28 0 l 399 944 l 546 944 l 918 0 l 785 0 m 736 -153 q 763 -221 736 -194 q 842 -247 790 -247 q 888 -242 871 -247 q 918 -232 906 -237 l 918 -307 q 869 -320 892 -317 q 818 -324 847 -324 q 727 -306 768 -324 q 662 -256 686 -289 q 638 -178 638 -224 q 688 -62 638 -121 q 829 49 739 -3 l 861 15 q 785 -48 813 -19 q 747 -102 757 -76 q 736 -153 736 -128 z "},"Ç":{"ha":946,"x_min":74,"x_max":886,"o":"m 886 672 l 753 672 q 658 805 726 758 q 499 851 589 851 q 341 806 407 851 q 240 674 275 760 q 204 471 204 589 q 239 268 204 353 q 340 138 274 183 q 499 93 406 93 q 653 138 586 93 q 750 267 719 182 l 885 267 q 801 114 858 178 q 666 17 744 50 q 497 -17 588 -17 q 270 42 365 -17 q 124 210 175 101 q 74 471 74 319 q 126 732 74 622 q 274 901 178 842 q 503 961 369 961 q 673 928 594 961 q 808 831 751 896 q 886 672 864 767 m 504 -185 q 478 -147 504 -158 q 386 -129 451 -135 l 456 0 l 532 0 l 489 -78 q 575 -110 546 -85 q 604 -178 604 -136 q 536 -273 604 -242 q 333 -307 468 -304 l 333 -244 q 461 -227 418 -242 q 504 -185 504 -212 z "},"Ć":{"ha":946,"x_min":74,"x_max":886,"o":"m 886 672 l 753 672 q 658 805 726 758 q 499 851 589 851 q 341 806 407 851 q 240 674 275 760 q 204 471 204 589 q 239 268 204 353 q 340 138 274 183 q 499 93 406 93 q 653 138 586 93 q 750 267 719 182 l 885 267 q 801 114 858 178 q 666 17 744 50 q 497 -17 588 -17 q 270 42 365 -17 q 124 210 175 101 q 74 471 74 319 q 126 732 74 622 q 274 901 178 842 q 503 961 369 961 q 673 928 594 961 q 808 831 751 896 q 886 672 864 767 m 428 1042 l 558 1206 l 714 1206 l 547 1042 l 428 1042 z "},"Č":{"ha":946,"x_min":74,"x_max":886,"o":"m 886 672 l 753 672 q 658 805 726 758 q 499 851 589 851 q 341 806 407 851 q 240 674 275 760 q 204 471 204 589 q 239 268 204 353 q 340 138 274 183 q 499 93 406 93 q 653 138 586 93 q 750 267 719 182 l 885 267 q 801 114 858 178 q 666 17 744 50 q 497 -17 588 -17 q 270 42 365 -17 q 124 210 175 101 q 74 471 74 319 q 126 732 74 622 q 274 901 178 842 q 503 961 369 961 q 673 928 594 961 q 808 831 751 896 q 886 672 864 767 m 594 1206 l 708 1206 l 569 1042 l 419 1042 l 282 1206 l 396 1206 l 496 1101 l 594 1206 z "},"Ĉ":{"ha":946,"x_min":74,"x_max":886,"o":"m 886 672 l 753 672 q 658 805 726 758 q 499 851 589 851 q 341 806 407 851 q 240 674 275 760 q 204 471 204 589 q 239 268 204 353 q 340 138 274 183 q 499 93 406 93 q 653 138 586 93 q 750 267 719 182 l 885 267 q 801 114 858 178 q 666 17 744 50 q 497 -17 588 -17 q 270 42 365 -17 q 124 210 175 101 q 74 471 74 319 q 126 732 74 622 q 274 901 178 842 q 503 961 369 961 q 673 928 594 961 q 808 831 751 896 q 886 672 864 767 m 594 1042 l 496 1144 l 396 1042 l 282 1042 l 419 1206 l 569 1206 l 708 1042 l 594 1042 z "},"Ċ":{"ha":946,"x_min":74,"x_max":886,"o":"m 886 672 l 753 672 q 658 805 726 758 q 499 851 589 851 q 341 806 407 851 q 240 674 275 760 q 204 471 204 589 q 239 268 204 353 q 340 138 274 183 q 499 93 406 93 q 653 138 586 93 q 750 267 719 182 l 885 267 q 801 114 858 178 q 666 17 744 50 q 497 -17 588 -17 q 270 42 365 -17 q 124 210 175 101 q 74 471 74 319 q 126 732 74 622 q 274 901 178 842 q 503 961 369 961 q 673 928 594 961 q 808 831 751 896 q 886 672 864 767 m 433 1042 l 433 1206 l 556 1206 l 556 1042 l 433 1042 z "},"Ď":{"ha":968,"x_min":108,"x_max":893,"o":"m 108 0 l 108 944 l 236 944 l 236 0 l 108 0 m 417 104 q 603 148 525 104 q 722 274 681 192 q 763 471 763 356 q 722 670 763 588 q 603 797 681 753 q 417 840 525 840 l 200 840 l 200 944 l 417 944 q 670 888 564 944 q 835 725 776 831 q 893 471 893 619 q 835 218 893 324 q 670 56 776 113 q 417 0 564 0 l 200 0 l 200 104 l 417 104 m 529 1206 l 643 1206 l 504 1042 l 354 1042 l 217 1206 l 331 1206 l 431 1101 l 529 1206 z "},"Đ":{"ha":968,"x_min":21,"x_max":893,"o":"m 21 435 l 21 543 l 499 543 l 499 435 l 21 435 m 108 0 l 108 944 l 236 944 l 236 0 l 108 0 m 417 104 q 603 148 525 104 q 722 274 681 192 q 763 471 763 356 q 722 670 763 588 q 603 797 681 753 q 417 840 525 840 l 200 840 l 200 944 l 417 944 q 670 888 564 944 q 835 725 776 831 q 893 471 893 619 q 835 218 893 324 q 670 56 776 113 q 417 0 564 0 l 200 0 l 200 104 l 417 104 z "},"É":{"ha":810,"x_min":108,"x_max":749,"o":"m 108 0 l 108 944 l 236 944 l 236 0 l 108 0 m 200 0 l 200 104 l 749 104 l 749 0 l 200 0 m 200 840 l 200 944 l 749 944 l 749 840 l 200 840 m 200 438 l 200 542 l 697 542 l 697 438 l 200 438 m 367 1042 l 497 1206 l 653 1206 l 486 1042 l 367 1042 z "},"Ê":{"ha":810,"x_min":108,"x_max":749,"o":"m 108 0 l 108 944 l 236 944 l 236 0 l 108 0 m 200 0 l 200 104 l 749 104 l 749 0 l 200 0 m 200 840 l 200 944 l 749 944 l 749 840 l 200 840 m 200 438 l 200 542 l 697 542 l 697 438 l 200 438 m 533 1042 l 435 1144 l 335 1042 l 221 1042 l 358 1206 l 508 1206 l 647 1042 l 533 1042 z "},"Ë":{"ha":810,"x_min":108,"x_max":749,"o":"m 108 0 l 108 944 l 236 944 l 236 0 l 108 0 m 200 0 l 200 104 l 749 104 l 749 0 l 200 0 m 200 840 l 200 944 l 749 944 l 749 840 l 200 840 m 200 438 l 200 542 l 697 542 l 697 438 l 200 438 m 299 1042 l 299 1206 l 406 1206 l 406 1042 l 299 1042 m 461 1042 l 461 1206 l 568 1206 l 568 1042 l 461 1042 z "},"È":{"ha":810,"x_min":108,"x_max":749,"o":"m 108 0 l 108 944 l 236 944 l 236 0 l 108 0 m 200 0 l 200 104 l 749 104 l 749 0 l 200 0 m 200 840 l 200 944 l 749 944 l 749 840 l 200 840 m 200 438 l 200 542 l 697 542 l 697 438 l 200 438 m 500 1042 l 381 1042 l 214 1206 l 369 1206 l 500 1042 z "},"Ĕ":{"ha":810,"x_min":108,"x_max":749,"o":"m 108 0 l 108 944 l 236 944 l 236 0 l 108 0 m 200 0 l 200 104 l 749 104 l 749 0 l 200 0 m 200 840 l 200 944 l 749 944 l 749 840 l 200 840 m 200 438 l 200 542 l 697 542 l 697 438 l 200 438 m 232 1206 l 324 1206 q 361 1142 329 1161 q 435 1122 393 1122 q 508 1142 476 1122 q 544 1206 539 1161 l 635 1206 q 595 1108 625 1144 q 523 1057 565 1072 q 435 1042 481 1042 q 346 1057 389 1042 q 272 1108 303 1072 q 232 1206 242 1144 z "},"Ě":{"ha":810,"x_min":108,"x_max":749,"o":"m 108 0 l 108 944 l 236 944 l 236 0 l 108 0 m 200 0 l 200 104 l 749 104 l 749 0 l 200 0 m 200 840 l 200 944 l 749 944 l 749 840 l 200 840 m 200 438 l 200 542 l 697 542 l 697 438 l 200 438 m 533 1206 l 647 1206 l 508 1042 l 358 1042 l 221 1206 l 335 1206 l 435 1101 l 533 1206 z "},"Ė":{"ha":810,"x_min":108,"x_max":749,"o":"m 108 0 l 108 944 l 236 944 l 236 0 l 108 0 m 200 0 l 200 104 l 749 104 l 749 0 l 200 0 m 200 840 l 200 944 l 749 944 l 749 840 l 200 840 m 200 438 l 200 542 l 697 542 l 697 438 l 200 438 m 372 1042 l 372 1206 l 494 1206 l 494 1042 l 372 1042 z "},"Ē":{"ha":810,"x_min":108,"x_max":749,"o":"m 108 0 l 108 944 l 236 944 l 236 0 l 108 0 m 200 0 l 200 104 l 749 104 l 749 0 l 200 0 m 200 840 l 200 944 l 749 944 l 749 840 l 200 840 m 200 438 l 200 542 l 697 542 l 697 438 l 200 438 m 267 1076 l 267 1172 l 600 1172 l 600 1076 l 267 1076 z "},"Ę":{"ha":810,"x_min":108,"x_max":749,"o":"m 108 0 l 108 944 l 236 944 l 236 0 l 108 0 m 200 0 l 200 104 l 749 104 l 749 0 l 200 0 m 200 840 l 200 944 l 749 944 l 749 840 l 200 840 m 200 438 l 200 542 l 697 542 l 697 438 l 200 438 m 564 -153 q 591 -221 564 -194 q 669 -247 618 -247 q 716 -242 699 -247 q 746 -232 733 -237 l 746 -307 q 697 -320 719 -317 q 646 -324 675 -324 q 555 -306 596 -324 q 490 -256 514 -289 q 465 -178 465 -224 q 516 -62 465 -121 q 657 49 567 -3 l 689 15 q 613 -48 640 -19 q 574 -102 585 -76 q 564 -153 564 -128 z "},"Ğ":{"ha":974,"x_min":74,"x_max":886,"o":"m 886 672 l 753 672 q 658 805 726 758 q 499 851 589 851 q 341 806 407 851 q 240 674 275 760 q 204 471 204 589 q 240 268 204 353 q 342 138 275 183 q 503 93 410 93 q 631 123 574 93 q 723 217 688 153 q 763 382 758 281 l 826 382 q 783 156 826 244 q 663 26 739 68 q 492 -17 588 -17 q 270 42 364 -17 q 125 210 176 101 q 74 471 74 319 q 126 732 74 622 q 274 901 178 842 q 503 961 369 961 q 673 928 594 961 q 808 831 751 896 q 886 672 864 767 m 885 0 l 789 0 l 763 382 l 521 382 l 521 483 l 885 483 l 885 0 m 286 1206 l 378 1206 q 415 1142 382 1161 q 489 1122 447 1122 q 561 1142 529 1122 q 599 1206 593 1161 l 689 1206 q 649 1108 679 1144 q 576 1057 618 1072 q 489 1042 535 1042 q 399 1057 442 1042 q 326 1108 356 1072 q 286 1206 296 1144 z "},"Ĝ":{"ha":974,"x_min":74,"x_max":886,"o":"m 886 672 l 753 672 q 658 805 726 758 q 499 851 589 851 q 341 806 407 851 q 240 674 275 760 q 204 471 204 589 q 240 268 204 353 q 342 138 275 183 q 503 93 410 93 q 631 123 574 93 q 723 217 688 153 q 763 382 758 281 l 826 382 q 783 156 826 244 q 663 26 739 68 q 492 -17 588 -17 q 270 42 364 -17 q 125 210 176 101 q 74 471 74 319 q 126 732 74 622 q 274 901 178 842 q 503 961 369 961 q 673 928 594 961 q 808 831 751 896 q 886 672 864 767 m 885 0 l 789 0 l 763 382 l 521 382 l 521 483 l 885 483 l 885 0 m 588 1042 l 489 1144 l 389 1042 l 275 1042 l 413 1206 l 563 1206 l 701 1042 l 588 1042 z "},"Ģ":{"ha":974,"x_min":74,"x_max":886,"o":"m 886 672 l 753 672 q 658 805 726 758 q 499 851 589 851 q 341 806 407 851 q 240 674 275 760 q 204 471 204 589 q 240 268 204 353 q 342 138 275 183 q 503 93 410 93 q 631 123 574 93 q 723 217 688 153 q 763 382 758 281 l 826 382 q 783 156 826 244 q 663 26 739 68 q 492 -17 588 -17 q 270 42 364 -17 q 125 210 176 101 q 74 471 74 319 q 126 732 74 622 q 274 901 178 842 q 503 961 369 961 q 673 928 594 961 q 808 831 751 896 q 886 672 864 767 m 885 0 l 789 0 l 763 382 l 521 382 l 521 483 l 885 483 l 885 0 m 421 -206 l 421 -108 l 558 -108 l 558 -146 q 542 -242 558 -201 q 500 -318 526 -282 l 436 -318 q 466 -265 454 -292 q 478 -206 478 -237 l 421 -206 z "},"Ġ":{"ha":974,"x_min":74,"x_max":886,"o":"m 886 672 l 753 672 q 658 805 726 758 q 499 851 589 851 q 341 806 407 851 q 240 674 275 760 q 204 471 204 589 q 240 268 204 353 q 342 138 275 183 q 503 93 410 93 q 631 123 574 93 q 723 217 688 153 q 763 382 758 281 l 826 382 q 783 156 826 244 q 663 26 739 68 q 492 -17 588 -17 q 270 42 364 -17 q 125 210 176 101 q 74 471 74 319 q 126 732 74 622 q 274 901 178 842 q 503 961 369 961 q 673 928 594 961 q 808 831 751 896 q 886 672 864 767 m 885 0 l 789 0 l 763 382 l 521 382 l 521 483 l 885 483 l 885 0 m 426 1042 l 426 1206 l 549 1206 l 549 1042 l 426 1042 z "},"Ħ":{"ha":967,"x_min":53,"x_max":914,"o":"m 108 0 l 108 944 l 236 944 l 236 0 l 108 0 m 731 0 l 731 944 l 858 944 l 858 0 l 731 0 m 200 435 l 200 539 l 756 539 l 756 435 l 200 435 m 53 718 l 53 807 l 914 807 l 914 718 l 53 718 z "},"Ĥ":{"ha":967,"x_min":108,"x_max":858,"o":"m 108 0 l 108 944 l 236 944 l 236 0 l 108 0 m 731 0 l 731 944 l 858 944 l 858 0 l 731 0 m 200 435 l 200 539 l 756 539 l 756 435 l 200 435 m 583 1042 l 485 1144 l 385 1042 l 271 1042 l 408 1206 l 558 1206 l 697 1042 l 583 1042 z "},"Í":{"ha":344,"x_min":106,"x_max":392,"o":"m 108 0 l 108 944 l 236 944 l 236 0 l 108 0 m 106 1042 l 236 1206 l 392 1206 l 225 1042 l 106 1042 z "},"Î":{"ha":344,"x_min":-40,"x_max":386,"o":"m 108 0 l 108 944 l 236 944 l 236 0 l 108 0 m 272 1042 l 174 1144 l 74 1042 l -40 1042 l 97 1206 l 247 1206 l 386 1042 l 272 1042 z "},"Ï":{"ha":344,"x_min":38,"x_max":307,"o":"m 108 0 l 108 944 l 236 944 l 236 0 l 108 0 m 38 1042 l 38 1206 l 144 1206 l 144 1042 l 38 1042 m 200 1042 l 200 1206 l 307 1206 l 307 1042 l 200 1042 z "},"Ì":{"ha":344,"x_min":-47,"x_max":239,"o":"m 108 0 l 108 944 l 236 944 l 236 0 l 108 0 m 239 1042 l 119 1042 l -47 1206 l 108 1206 l 239 1042 z "},"Ĭ":{"ha":344,"x_min":-29,"x_max":374,"o":"m 108 0 l 108 944 l 236 944 l 236 0 l 108 0 m -29 1206 l 63 1206 q 100 1142 68 1161 q 174 1122 132 1122 q 247 1142 215 1122 q 283 1206 278 1161 l 374 1206 q 334 1108 364 1144 q 262 1057 304 1072 q 174 1042 219 1042 q 85 1057 128 1042 q 11 1108 42 1072 q -29 1206 -19 1144 z "},"İ":{"ha":344,"x_min":108,"x_max":236,"o":"m 108 0 l 108 944 l 236 944 l 236 0 l 108 0 m 111 1042 l 111 1206 l 233 1206 l 233 1042 l 111 1042 z "},"Ī":{"ha":344,"x_min":6,"x_max":339,"o":"m 108 0 l 108 944 l 236 944 l 236 0 l 108 0 m 6 1076 l 6 1172 l 339 1172 l 339 1076 l 6 1076 z "},"Į":{"ha":344,"x_min":-44,"x_max":236,"o":"m 108 0 l 108 944 l 236 944 l 236 0 l 108 0 m 54 -153 q 81 -221 54 -194 q 160 -247 108 -247 q 206 -242 189 -247 q 236 -232 224 -237 l 236 -307 q 188 -320 210 -317 q 136 -324 165 -324 q 45 -306 86 -324 q -20 -256 4 -289 q -44 -178 -44 -224 q 6 -62 -44 -121 q 147 49 57 -3 l 179 15 q 103 -48 131 -19 q 65 -102 75 -76 q 54 -153 54 -128 z "},"Ĩ":{"ha":344,"x_min":-40,"x_max":385,"o":"m 108 0 l 108 944 l 236 944 l 236 0 l 108 0 m 33 1042 l -40 1042 q -22 1142 -40 1107 q 23 1192 -4 1178 q 75 1206 50 1206 q 140 1193 113 1206 q 188 1163 167 1181 q 226 1133 208 1146 q 264 1121 244 1121 q 285 1128 275 1121 q 303 1153 296 1135 q 311 1206 310 1171 l 385 1206 q 367 1104 385 1140 q 322 1055 349 1068 q 269 1042 296 1042 q 206 1054 232 1042 q 158 1083 179 1067 q 119 1113 138 1100 q 81 1125 100 1125 q 59 1118 69 1125 q 42 1093 49 1111 q 33 1042 35 1075 z "},"Ĵ":{"ha":735,"x_min":43,"x_max":778,"o":"m 43 285 l 171 285 q 220 144 179 196 q 340 93 261 93 q 465 150 421 93 q 510 308 510 207 l 510 944 l 638 944 l 638 322 q 558 74 638 165 q 340 -17 478 -17 q 130 65 208 -17 q 43 285 51 147 m 664 1042 l 565 1144 l 465 1042 l 351 1042 l 489 1206 l 639 1206 l 778 1042 l 664 1042 z "},"Ĳ":{"ha":1079,"x_min":108,"x_max":982,"o":"m 108 0 l 108 944 l 236 944 l 236 0 l 108 0 m 388 285 l 515 285 q 565 144 524 196 q 685 93 606 93 q 810 150 765 93 q 854 308 854 207 l 854 944 l 982 944 l 982 322 q 902 74 982 165 q 685 -17 822 -17 q 474 65 553 -17 q 388 285 396 147 z "},"Ķ":{"ha":864,"x_min":108,"x_max":840,"o":"m 108 0 l 108 944 l 236 944 l 236 0 l 108 0 m 219 471 l 668 944 l 829 944 l 375 471 l 219 471 m 219 471 l 368 497 l 840 0 l 668 0 l 219 471 m 365 -206 l 365 -108 l 503 -108 l 503 -146 q 488 -242 503 -201 q 444 -318 472 -282 l 381 -318 q 411 -265 400 -292 q 422 -206 422 -237 l 365 -206 z "},"Ĺ":{"ha":756,"x_min":108,"x_max":711,"o":"m 108 0 l 108 944 l 236 944 l 236 0 l 108 0 m 200 0 l 200 104 l 711 104 l 711 0 l 200 0 m 126 1042 l 257 1206 l 413 1206 l 246 1042 l 126 1042 z "},"Ľ":{"ha":756,"x_min":108,"x_max":711,"o":"m 108 0 l 108 944 l 236 944 l 236 0 l 108 0 m 200 0 l 200 104 l 711 104 l 711 0 l 200 0 m 324 847 l 324 944 l 460 944 l 460 907 q 444 811 460 851 q 403 735 429 771 l 339 735 q 371 790 363 765 q 379 847 379 815 l 324 847 z "},"Ļ":{"ha":756,"x_min":108,"x_max":711,"o":"m 108 0 l 108 944 l 236 944 l 236 0 l 108 0 m 200 0 l 200 104 l 711 104 l 711 0 l 200 0 m 339 -206 l 339 -108 l 476 -108 l 476 -146 q 461 -242 476 -201 q 418 -318 446 -282 l 354 -318 q 385 -265 374 -292 q 396 -206 396 -237 l 339 -206 z "},"Ŀ":{"ha":756,"x_min":108,"x_max":711,"o":"m 108 0 l 108 944 l 236 944 l 236 0 l 108 0 m 200 0 l 200 104 l 711 104 l 711 0 l 200 0 m 469 340 l 469 503 l 592 503 l 592 340 l 469 340 z "},"Ñ":{"ha":967,"x_min":108,"x_max":858,"o":"m 108 0 l 108 944 l 236 944 l 236 0 l 108 0 m 731 0 l 731 944 l 858 944 l 858 0 l 731 0 m 725 0 l 292 663 l 131 944 l 242 944 l 676 278 l 838 0 l 725 0 m 346 1042 l 272 1042 q 290 1142 272 1107 q 335 1192 308 1178 q 388 1206 361 1206 q 452 1193 425 1206 q 500 1163 479 1181 q 539 1133 521 1146 q 576 1121 557 1121 q 597 1128 586 1121 q 615 1153 607 1135 q 624 1206 622 1171 l 697 1206 q 678 1104 697 1140 q 633 1055 660 1068 q 582 1042 607 1042 q 517 1054 544 1042 q 469 1083 490 1067 q 431 1113 449 1100 q 393 1125 413 1125 q 372 1118 382 1125 q 354 1093 361 1111 q 346 1042 347 1075 z "},"Ń":{"ha":967,"x_min":108,"x_max":858,"o":"m 108 0 l 108 944 l 236 944 l 236 0 l 108 0 m 731 0 l 731 944 l 858 944 l 858 0 l 731 0 m 725 0 l 292 663 l 131 944 l 242 944 l 676 278 l 838 0 l 725 0 m 418 1042 l 549 1206 l 704 1206 l 538 1042 l 418 1042 z "},"Ň":{"ha":967,"x_min":108,"x_max":858,"o":"m 108 0 l 108 944 l 236 944 l 236 0 l 108 0 m 731 0 l 731 944 l 858 944 l 858 0 l 731 0 m 725 0 l 292 663 l 131 944 l 242 944 l 676 278 l 838 0 l 725 0 m 585 1206 l 699 1206 l 560 1042 l 410 1042 l 272 1206 l 386 1206 l 486 1101 l 585 1206 z "},"Ņ":{"ha":967,"x_min":108,"x_max":858,"o":"m 108 0 l 108 944 l 236 944 l 236 0 l 108 0 m 731 0 l 731 944 l 858 944 l 858 0 l 731 0 m 725 0 l 292 663 l 131 944 l 242 944 l 676 278 l 838 0 l 725 0 m 418 -206 l 418 -108 l 556 -108 l 556 -146 q 540 -242 556 -201 q 497 -318 524 -282 l 433 -318 q 463 -265 451 -292 q 475 -206 475 -237 l 418 -206 z "},"Ó":{"ha":1039,"x_min":74,"x_max":965,"o":"m 519 -17 q 282 42 382 -17 q 128 211 182 101 q 74 471 74 321 q 128 732 74 622 q 282 901 182 842 q 519 961 382 961 q 757 901 657 961 q 911 732 857 842 q 965 471 965 622 q 911 211 965 321 q 757 42 857 101 q 519 -17 657 -17 m 519 93 q 689 139 618 93 q 797 269 760 185 q 835 471 835 354 q 797 674 835 589 q 689 806 760 760 q 519 851 618 851 q 350 806 421 851 q 242 674 279 760 q 204 471 204 589 q 242 269 204 354 q 350 139 279 185 q 519 93 421 93 m 453 1042 l 583 1206 l 739 1206 l 572 1042 l 453 1042 z "},"Ô":{"ha":1039,"x_min":74,"x_max":965,"o":"m 519 -17 q 282 42 382 -17 q 128 211 182 101 q 74 471 74 321 q 128 732 74 622 q 282 901 182 842 q 519 961 382 961 q 757 901 657 961 q 911 732 857 842 q 965 471 965 622 q 911 211 965 321 q 757 42 857 101 q 519 -17 657 -17 m 519 93 q 689 139 618 93 q 797 269 760 185 q 835 471 835 354 q 797 674 835 589 q 689 806 760 760 q 519 851 618 851 q 350 806 421 851 q 242 674 279 760 q 204 471 204 589 q 242 269 204 354 q 350 139 279 185 q 519 93 421 93 m 619 1042 l 521 1144 l 421 1042 l 307 1042 l 444 1206 l 594 1206 l 733 1042 l 619 1042 z "},"Ö":{"ha":1039,"x_min":74,"x_max":965,"o":"m 519 -17 q 282 42 382 -17 q 128 211 182 101 q 74 471 74 321 q 128 732 74 622 q 282 901 182 842 q 519 961 382 961 q 757 901 657 961 q 911 732 857 842 q 965 471 965 622 q 911 211 965 321 q 757 42 857 101 q 519 -17 657 -17 m 519 93 q 689 139 618 93 q 797 269 760 185 q 835 471 835 354 q 797 674 835 589 q 689 806 760 760 q 519 851 618 851 q 350 806 421 851 q 242 674 279 760 q 204 471 204 589 q 242 269 204 354 q 350 139 279 185 q 519 93 421 93 m 385 1042 l 385 1206 l 492 1206 l 492 1042 l 385 1042 m 547 1042 l 547 1206 l 654 1206 l 654 1042 l 547 1042 z "},"Ò":{"ha":1039,"x_min":74,"x_max":965,"o":"m 519 -17 q 282 42 382 -17 q 128 211 182 101 q 74 471 74 321 q 128 732 74 622 q 282 901 182 842 q 519 961 382 961 q 757 901 657 961 q 911 732 857 842 q 965 471 965 622 q 911 211 965 321 q 757 42 857 101 q 519 -17 657 -17 m 519 93 q 689 139 618 93 q 797 269 760 185 q 835 471 835 354 q 797 674 835 589 q 689 806 760 760 q 519 851 618 851 q 350 806 421 851 q 242 674 279 760 q 204 471 204 589 q 242 269 204 354 q 350 139 279 185 q 519 93 421 93 m 586 1042 l 467 1042 l 300 1206 l 456 1206 l 586 1042 z "},"Õ":{"ha":1039,"x_min":74,"x_max":965,"o":"m 519 -17 q 282 42 382 -17 q 128 211 182 101 q 74 471 74 321 q 128 732 74 622 q 282 901 182 842 q 519 961 382 961 q 757 901 657 961 q 911 732 857 842 q 965 471 965 622 q 911 211 965 321 q 757 42 857 101 q 519 -17 657 -17 m 519 93 q 689 139 618 93 q 797 269 760 185 q 835 471 835 354 q 797 674 835 589 q 689 806 760 760 q 519 851 618 851 q 350 806 421 851 q 242 674 279 760 q 204 471 204 589 q 242 269 204 354 q 350 139 279 185 q 519 93 421 93 m 381 1042 l 307 1042 q 325 1142 307 1107 q 370 1192 343 1178 q 422 1206 397 1206 q 487 1193 460 1206 q 535 1163 514 1181 q 574 1133 556 1146 q 611 1121 592 1121 q 633 1128 622 1121 q 650 1153 643 1135 q 658 1206 657 1171 l 732 1206 q 714 1104 732 1140 q 669 1055 696 1068 q 617 1042 643 1042 q 553 1054 579 1042 q 506 1083 526 1067 q 466 1113 485 1100 q 428 1125 447 1125 q 406 1118 417 1125 q 389 1093 396 1111 q 381 1042 382 1075 z "},"Ŏ":{"ha":1039,"x_min":74,"x_max":965,"o":"m 519 -17 q 282 42 382 -17 q 128 211 182 101 q 74 471 74 321 q 128 732 74 622 q 282 901 182 842 q 519 961 382 961 q 757 901 657 961 q 911 732 857 842 q 965 471 965 622 q 911 211 965 321 q 757 42 857 101 q 519 -17 657 -17 m 519 93 q 689 139 618 93 q 797 269 760 185 q 835 471 835 354 q 797 674 835 589 q 689 806 760 760 q 519 851 618 851 q 350 806 421 851 q 242 674 279 760 q 204 471 204 589 q 242 269 204 354 q 350 139 279 185 q 519 93 421 93 m 318 1206 l 410 1206 q 447 1142 415 1161 q 521 1122 479 1122 q 594 1142 563 1122 q 631 1206 625 1161 l 721 1206 q 681 1108 711 1144 q 609 1057 651 1072 q 521 1042 567 1042 q 432 1057 475 1042 q 358 1108 389 1072 q 318 1206 328 1144 z "},"Ő":{"ha":1039,"x_min":74,"x_max":965,"o":"m 519 -17 q 282 42 382 -17 q 128 211 182 101 q 74 471 74 321 q 128 732 74 622 q 282 901 182 842 q 519 961 382 961 q 757 901 657 961 q 911 732 857 842 q 965 471 965 622 q 911 211 965 321 q 757 42 857 101 q 519 -17 657 -17 m 519 93 q 689 139 618 93 q 797 269 760 185 q 835 471 835 354 q 797 674 835 589 q 689 806 760 760 q 519 851 618 851 q 350 806 421 851 q 242 674 279 760 q 204 471 204 589 q 242 269 204 354 q 350 139 279 185 q 519 93 421 93 m 372 1042 l 472 1206 l 590 1206 l 465 1042 l 372 1042 m 568 1042 l 668 1206 l 786 1206 l 660 1042 l 568 1042 z "},"Ō":{"ha":1039,"x_min":74,"x_max":965,"o":"m 519 -17 q 282 42 382 -17 q 128 211 182 101 q 74 471 74 321 q 128 732 74 622 q 282 901 182 842 q 519 961 382 961 q 757 901 657 961 q 911 732 857 842 q 965 471 965 622 q 911 211 965 321 q 757 42 857 101 q 519 -17 657 -17 m 519 93 q 689 139 618 93 q 797 269 760 185 q 835 471 835 354 q 797 674 835 589 q 689 806 760 760 q 519 851 618 851 q 350 806 421 851 q 242 674 279 760 q 204 471 204 589 q 242 269 204 354 q 350 139 279 185 q 519 93 421 93 m 353 1076 l 353 1172 l 686 1172 l 686 1076 l 353 1076 z "},"Ŕ":{"ha":864,"x_min":108,"x_max":819,"o":"m 108 0 l 108 944 l 236 944 l 236 0 l 108 0 m 460 421 l 200 421 l 200 500 l 443 500 q 590 547 538 500 q 642 671 642 593 q 590 794 642 749 q 446 840 538 840 l 200 840 l 200 944 l 449 944 q 685 873 597 944 q 774 678 774 801 q 688 487 774 553 q 460 421 603 421 m 685 0 l 625 256 q 589 344 611 314 q 530 385 567 375 q 436 396 493 396 l 222 396 l 222 479 l 456 479 q 607 463 550 479 q 697 403 664 446 q 749 281 729 360 l 819 0 l 685 0 m 365 1042 l 496 1206 l 651 1206 l 485 1042 l 365 1042 z "},"Ř":{"ha":864,"x_min":108,"x_max":819,"o":"m 108 0 l 108 944 l 236 944 l 236 0 l 108 0 m 460 421 l 200 421 l 200 500 l 443 500 q 590 547 538 500 q 642 671 642 593 q 590 794 642 749 q 446 840 538 840 l 200 840 l 200 944 l 449 944 q 685 873 597 944 q 774 678 774 801 q 688 487 774 553 q 460 421 603 421 m 685 0 l 625 256 q 589 344 611 314 q 530 385 567 375 q 436 396 493 396 l 222 396 l 222 479 l 456 479 q 607 463 550 479 q 697 403 664 446 q 749 281 729 360 l 819 0 l 685 0 m 532 1206 l 646 1206 l 507 1042 l 357 1042 l 219 1206 l 333 1206 l 433 1101 l 532 1206 z "},"Ŗ":{"ha":864,"x_min":108,"x_max":819,"o":"m 108 0 l 108 944 l 236 944 l 236 0 l 108 0 m 460 421 l 200 421 l 200 500 l 443 500 q 590 547 538 500 q 642 671 642 593 q 590 794 642 749 q 446 840 538 840 l 200 840 l 200 944 l 449 944 q 685 873 597 944 q 774 678 774 801 q 688 487 774 553 q 460 421 603 421 m 685 0 l 625 256 q 589 344 611 314 q 530 385 567 375 q 436 396 493 396 l 222 396 l 222 479 l 456 479 q 607 463 550 479 q 697 403 664 446 q 749 281 729 360 l 819 0 l 685 0 m 365 -206 l 365 -108 l 503 -108 l 503 -146 q 488 -242 503 -201 q 444 -318 472 -282 l 381 -318 q 411 -265 400 -292 q 422 -206 422 -237 l 365 -206 z "},"Š":{"ha":838,"x_min":53,"x_max":785,"o":"m 206 714 q 230 633 206 664 q 296 585 254 603 q 389 557 338 568 q 495 535 440 546 q 601 508 550 525 q 694 463 653 492 q 760 386 736 433 q 785 267 785 339 q 740 113 785 176 q 616 16 694 49 q 436 -17 538 -17 q 256 15 335 -17 q 126 109 178 46 q 53 267 74 172 l 186 267 q 273 138 210 182 q 438 93 336 93 q 599 136 544 93 q 654 250 654 179 q 630 338 654 304 q 564 390 606 371 q 471 420 522 408 q 365 443 419 432 q 258 470 310 454 q 165 514 207 486 q 99 588 124 542 q 75 706 75 633 q 113 832 75 774 q 222 926 150 890 q 397 961 293 961 q 565 931 489 961 q 692 837 640 900 q 760 672 743 774 l 625 672 q 544 809 603 767 q 394 851 485 851 q 256 814 306 851 q 206 714 206 776 m 519 1206 l 633 1206 l 494 1042 l 344 1042 l 207 1206 l 321 1206 l 421 1101 l 519 1206 z "},"Ś":{"ha":838,"x_min":53,"x_max":785,"o":"m 206 714 q 230 633 206 664 q 296 585 254 603 q 389 557 338 568 q 495 535 440 546 q 601 508 550 525 q 694 463 653 492 q 760 386 736 433 q 785 267 785 339 q 740 113 785 176 q 616 16 694 49 q 436 -17 538 -17 q 256 15 335 -17 q 126 109 178 46 q 53 267 74 172 l 186 267 q 273 138 210 182 q 438 93 336 93 q 599 136 544 93 q 654 250 654 179 q 630 338 654 304 q 564 390 606 371 q 471 420 522 408 q 365 443 419 432 q 258 470 310 454 q 165 514 207 486 q 99 588 124 542 q 75 706 75 633 q 113 832 75 774 q 222 926 150 890 q 397 961 293 961 q 565 931 489 961 q 692 837 640 900 q 760 672 743 774 l 625 672 q 544 809 603 767 q 394 851 485 851 q 256 814 306 851 q 206 714 206 776 m 353 1042 l 483 1206 l 639 1206 l 472 1042 l 353 1042 z "},"Ş":{"ha":838,"x_min":53,"x_max":785,"o":"m 206 714 q 230 633 206 664 q 296 585 254 603 q 389 557 338 568 q 495 535 440 546 q 601 508 550 525 q 694 463 653 492 q 760 386 736 433 q 785 267 785 339 q 740 113 785 176 q 616 16 694 49 q 436 -17 538 -17 q 256 15 335 -17 q 126 109 178 46 q 53 267 74 172 l 186 267 q 273 138 210 182 q 438 93 336 93 q 599 136 544 93 q 654 250 654 179 q 630 338 654 304 q 564 390 606 371 q 471 420 522 408 q 365 443 419 432 q 258 470 310 454 q 165 514 207 486 q 99 588 124 542 q 75 706 75 633 q 113 832 75 774 q 222 926 150 890 q 397 961 293 961 q 565 931 489 961 q 692 837 640 900 q 760 672 743 774 l 625 672 q 544 809 603 767 q 394 851 485 851 q 256 814 306 851 q 206 714 206 776 m 425 -185 q 398 -147 425 -158 q 307 -129 371 -136 l 376 0 l 453 0 l 410 -78 q 496 -110 467 -85 q 525 -178 525 -136 q 456 -273 525 -242 q 254 -307 388 -304 l 254 -244 q 381 -227 338 -242 q 425 -185 425 -212 z "},"Ŝ":{"ha":838,"x_min":53,"x_max":785,"o":"m 206 714 q 230 633 206 664 q 296 585 254 603 q 389 557 338 568 q 495 535 440 546 q 601 508 550 525 q 694 463 653 492 q 760 386 736 433 q 785 267 785 339 q 740 113 785 176 q 616 16 694 49 q 436 -17 538 -17 q 256 15 335 -17 q 126 109 178 46 q 53 267 74 172 l 186 267 q 273 138 210 182 q 438 93 336 93 q 599 136 544 93 q 654 250 654 179 q 630 338 654 304 q 564 390 606 371 q 471 420 522 408 q 365 443 419 432 q 258 470 310 454 q 165 514 207 486 q 99 588 124 542 q 75 706 75 633 q 113 832 75 774 q 222 926 150 890 q 397 961 293 961 q 565 931 489 961 q 692 837 640 900 q 760 672 743 774 l 625 672 q 544 809 603 767 q 394 851 485 851 q 256 814 306 851 q 206 714 206 776 m 519 1042 l 421 1144 l 321 1042 l 207 1042 l 344 1206 l 494 1206 l 633 1042 l 519 1042 z "},"Ș":{"ha":838,"x_min":53,"x_max":785,"o":"m 206 714 q 230 633 206 664 q 296 585 254 603 q 389 557 338 568 q 495 535 440 546 q 601 508 550 525 q 694 463 653 492 q 760 386 736 433 q 785 267 785 339 q 740 113 785 176 q 616 16 694 49 q 436 -17 538 -17 q 256 15 335 -17 q 126 109 178 46 q 53 267 74 172 l 186 267 q 273 138 210 182 q 438 93 336 93 q 599 136 544 93 q 654 250 654 179 q 630 338 654 304 q 564 390 606 371 q 471 420 522 408 q 365 443 419 432 q 258 470 310 454 q 165 514 207 486 q 99 588 124 542 q 75 706 75 633 q 113 832 75 774 q 222 926 150 890 q 397 961 293 961 q 565 931 489 961 q 692 837 640 900 q 760 672 743 774 l 625 672 q 544 809 603 767 q 394 851 485 851 q 256 814 306 851 q 206 714 206 776 m 353 -206 l 353 -108 l 490 -108 l 490 -146 q 474 -242 490 -201 q 432 -318 458 -282 l 368 -318 q 398 -265 386 -292 q 410 -206 410 -237 l 353 -206 z "},"Ŧ":{"ha":861,"x_min":43,"x_max":818,"o":"m 367 0 l 367 944 l 494 944 l 494 0 l 367 0 m 43 836 l 43 944 l 818 944 l 818 836 l 43 836 m 222 440 l 222 529 l 639 529 l 639 440 l 222 440 z "},"Ť":{"ha":861,"x_min":43,"x_max":818,"o":"m 367 0 l 367 944 l 494 944 l 494 0 l 367 0 m 43 836 l 43 944 l 818 944 l 818 836 l 43 836 m 531 1206 l 644 1206 l 506 1042 l 356 1042 l 218 1206 l 332 1206 l 432 1101 l 531 1206 z "},"Ţ":{"ha":861,"x_min":43,"x_max":818,"o":"m 367 0 l 367 944 l 494 944 l 494 0 l 367 0 m 43 836 l 43 944 l 818 944 l 818 836 l 43 836 m 364 -206 l 364 -108 l 501 -108 l 501 -146 q 486 -242 501 -201 q 443 -318 471 -282 l 379 -318 q 410 -265 399 -292 q 421 -206 421 -237 l 364 -206 z "},"Ț":{"ha":861,"x_min":43,"x_max":818,"o":"m 367 0 l 367 944 l 494 944 l 494 0 l 367 0 m 43 836 l 43 944 l 818 944 l 818 836 l 43 836 m 364 -206 l 364 -108 l 501 -108 l 501 -146 q 486 -242 501 -201 q 443 -318 471 -282 l 379 -318 q 410 -265 399 -292 q 421 -206 421 -237 l 364 -206 z "},"Ú":{"ha":949,"x_min":97,"x_max":851,"o":"m 851 360 q 806 159 851 243 q 676 29 760 75 q 475 -17 592 -17 q 274 29 358 -17 q 143 159 189 75 q 97 360 97 243 l 97 944 l 226 944 l 226 360 q 292 159 226 232 q 475 86 358 86 q 658 160 592 86 q 724 360 724 233 l 724 944 l 851 944 l 851 360 m 408 1042 l 539 1206 l 694 1206 l 528 1042 l 408 1042 z "},"Û":{"ha":949,"x_min":97,"x_max":851,"o":"m 851 360 q 806 159 851 243 q 676 29 760 75 q 475 -17 592 -17 q 274 29 358 -17 q 143 159 189 75 q 97 360 97 243 l 97 944 l 226 944 l 226 360 q 292 159 226 232 q 475 86 358 86 q 658 160 592 86 q 724 360 724 233 l 724 944 l 851 944 l 851 360 m 575 1042 l 476 1144 l 376 1042 l 263 1042 l 400 1206 l 550 1206 l 689 1042 l 575 1042 z "},"Ü":{"ha":949,"x_min":97,"x_max":851,"o":"m 851 360 q 806 159 851 243 q 676 29 760 75 q 475 -17 592 -17 q 274 29 358 -17 q 143 159 189 75 q 97 360 97 243 l 97 944 l 226 944 l 226 360 q 292 159 226 232 q 475 86 358 86 q 658 160 592 86 q 724 360 724 233 l 724 944 l 851 944 l 851 360 m 340 1042 l 340 1206 l 447 1206 l 447 1042 l 340 1042 m 503 1042 l 503 1206 l 610 1206 l 610 1042 l 503 1042 z "},"Ù":{"ha":949,"x_min":97,"x_max":851,"o":"m 851 360 q 806 159 851 243 q 676 29 760 75 q 475 -17 592 -17 q 274 29 358 -17 q 143 159 189 75 q 97 360 97 243 l 97 944 l 226 944 l 226 360 q 292 159 226 232 q 475 86 358 86 q 658 160 592 86 q 724 360 724 233 l 724 944 l 851 944 l 851 360 m 542 1042 l 422 1042 l 256 1206 l 411 1206 l 542 1042 z "},"Ŭ":{"ha":949,"x_min":97,"x_max":851,"o":"m 851 360 q 806 159 851 243 q 676 29 760 75 q 475 -17 592 -17 q 274 29 358 -17 q 143 159 189 75 q 97 360 97 243 l 97 944 l 226 944 l 226 360 q 292 159 226 232 q 475 86 358 86 q 658 160 592 86 q 724 360 724 233 l 724 944 l 851 944 l 851 360 m 274 1206 l 365 1206 q 402 1142 369 1161 q 476 1122 435 1122 q 549 1142 517 1122 q 586 1206 581 1161 l 676 1206 q 636 1108 667 1144 q 564 1057 606 1072 q 476 1042 522 1042 q 386 1057 429 1042 q 313 1108 343 1072 q 274 1206 283 1144 z "},"Ű":{"ha":949,"x_min":97,"x_max":851,"o":"m 851 360 q 806 159 851 243 q 676 29 760 75 q 475 -17 592 -17 q 274 29 358 -17 q 143 159 189 75 q 97 360 97 243 l 97 944 l 226 944 l 226 360 q 292 159 226 232 q 475 86 358 86 q 658 160 592 86 q 724 360 724 233 l 724 944 l 851 944 l 851 360 m 328 1042 l 428 1206 l 546 1206 l 421 1042 l 328 1042 m 524 1042 l 624 1206 l 742 1206 l 615 1042 l 524 1042 z "},"Ū":{"ha":949,"x_min":97,"x_max":851,"o":"m 851 360 q 806 159 851 243 q 676 29 760 75 q 475 -17 592 -17 q 274 29 358 -17 q 143 159 189 75 q 97 360 97 243 l 97 944 l 226 944 l 226 360 q 292 159 226 232 q 475 86 358 86 q 658 160 592 86 q 724 360 724 233 l 724 944 l 851 944 l 851 360 m 308 1076 l 308 1172 l 642 1172 l 642 1076 l 308 1076 z "},"Ų":{"ha":949,"x_min":97,"x_max":851,"o":"m 851 360 q 806 159 851 243 q 676 29 760 75 q 475 -17 592 -17 q 274 29 358 -17 q 143 159 189 75 q 97 360 97 243 l 97 944 l 226 944 l 226 360 q 292 159 226 232 q 475 86 358 86 q 658 160 592 86 q 724 360 724 233 l 724 944 l 851 944 l 851 360 m 474 -153 q 501 -221 474 -194 q 579 -247 528 -247 q 626 -242 608 -247 q 656 -232 643 -237 l 656 -307 q 607 -320 629 -317 q 556 -324 585 -324 q 465 -306 506 -324 q 399 -256 424 -289 q 375 -178 375 -224 q 426 -62 375 -121 q 567 49 476 -3 l 599 15 q 522 -48 550 -19 q 484 -102 494 -76 q 474 -153 474 -128 z "},"Ů":{"ha":949,"x_min":97,"x_max":851,"o":"m 851 360 q 806 159 851 243 q 676 29 760 75 q 475 -17 592 -17 q 274 29 358 -17 q 143 159 189 75 q 97 360 97 243 l 97 944 l 226 944 l 226 360 q 292 159 226 232 q 475 86 358 86 q 658 160 592 86 q 724 360 724 233 l 724 944 l 851 944 l 851 360 m 475 1042 q 374 1081 414 1042 q 335 1181 335 1121 q 374 1282 335 1242 q 475 1322 414 1322 q 575 1282 535 1322 q 615 1181 615 1242 q 575 1081 615 1121 q 475 1042 535 1042 m 475 1110 q 523 1130 504 1110 q 542 1181 542 1150 q 523 1233 542 1213 q 475 1253 504 1253 q 427 1233 446 1253 q 408 1181 408 1213 q 427 1130 408 1150 q 475 1110 446 1110 z "},"Ũ":{"ha":949,"x_min":97,"x_max":851,"o":"m 851 360 q 806 159 851 243 q 676 29 760 75 q 475 -17 592 -17 q 274 29 358 -17 q 143 159 189 75 q 97 360 97 243 l 97 944 l 226 944 l 226 360 q 292 159 226 232 q 475 86 358 86 q 658 160 592 86 q 724 360 724 233 l 724 944 l 851 944 l 851 360 m 336 1042 l 263 1042 q 281 1142 263 1107 q 325 1192 299 1178 q 378 1206 351 1206 q 442 1193 415 1206 q 490 1163 469 1181 q 529 1133 511 1146 q 567 1121 547 1121 q 587 1128 576 1121 q 605 1153 597 1135 q 614 1206 613 1171 l 688 1206 q 669 1104 688 1140 q 624 1055 650 1068 q 572 1042 597 1042 q 508 1054 535 1042 q 460 1083 481 1067 q 421 1113 439 1100 q 383 1125 403 1125 q 362 1118 372 1125 q 344 1093 351 1111 q 336 1042 338 1075 z "},"Ẃ":{"ha":1458,"x_min":53,"x_max":1406,"o":"m 956 0 l 751 697 l 724 796 l 736 796 l 708 697 l 504 0 l 353 0 l 53 944 l 189 944 l 413 206 l 443 99 l 424 99 l 450 206 l 665 944 l 803 944 l 1017 206 l 1044 99 l 1026 99 l 1053 206 l 1275 944 l 1406 944 l 1106 0 l 956 0 m 676 1042 l 807 1206 l 963 1206 l 796 1042 l 676 1042 z "},"Ŵ":{"ha":1458,"x_min":53,"x_max":1406,"o":"m 956 0 l 751 697 l 724 796 l 736 796 l 708 697 l 504 0 l 353 0 l 53 944 l 189 944 l 413 206 l 443 99 l 424 99 l 450 206 l 665 944 l 803 944 l 1017 206 l 1044 99 l 1026 99 l 1053 206 l 1275 944 l 1406 944 l 1106 0 l 956 0 m 843 1042 l 744 1144 l 644 1042 l 531 1042 l 668 1206 l 818 1206 l 957 1042 l 843 1042 z "},"Ẅ":{"ha":1458,"x_min":53,"x_max":1406,"o":"m 956 0 l 751 697 l 724 796 l 736 796 l 708 697 l 504 0 l 353 0 l 53 944 l 189 944 l 413 206 l 443 99 l 424 99 l 450 206 l 665 944 l 803 944 l 1017 206 l 1044 99 l 1026 99 l 1053 206 l 1275 944 l 1406 944 l 1106 0 l 956 0 m 608 1042 l 608 1206 l 715 1206 l 715 1042 l 608 1042 m 771 1042 l 771 1206 l 878 1206 l 878 1042 l 771 1042 z "},"Ẁ":{"ha":1458,"x_min":53,"x_max":1406,"o":"m 956 0 l 751 697 l 724 796 l 736 796 l 708 697 l 504 0 l 353 0 l 53 944 l 189 944 l 413 206 l 443 99 l 424 99 l 450 206 l 665 944 l 803 944 l 1017 206 l 1044 99 l 1026 99 l 1053 206 l 1275 944 l 1406 944 l 1106 0 l 956 0 m 810 1042 l 690 1042 l 524 1206 l 679 1206 l 810 1042 z "},"Ý":{"ha":847,"x_min":21,"x_max":826,"o":"m 360 0 l 360 349 l 488 349 l 488 0 l 360 0 m 164 944 l 385 551 l 435 447 l 422 447 l 469 551 l 690 944 l 826 944 l 488 349 l 360 349 l 21 944 l 164 944 m 365 1042 l 496 1206 l 651 1206 l 485 1042 l 365 1042 z "},"Ÿ":{"ha":847,"x_min":21,"x_max":826,"o":"m 360 0 l 360 349 l 488 349 l 488 0 l 360 0 m 164 944 l 385 551 l 435 447 l 422 447 l 469 551 l 690 944 l 826 944 l 488 349 l 360 349 l 21 944 l 164 944 m 297 1042 l 297 1206 l 404 1206 l 404 1042 l 297 1042 m 460 1042 l 460 1206 l 567 1206 l 567 1042 l 460 1042 z "},"Ŷ":{"ha":847,"x_min":21,"x_max":826,"o":"m 360 0 l 360 349 l 488 349 l 488 0 l 360 0 m 164 944 l 385 551 l 435 447 l 422 447 l 469 551 l 690 944 l 826 944 l 488 349 l 360 349 l 21 944 l 164 944 m 532 1042 l 433 1144 l 333 1042 l 219 1042 l 357 1206 l 507 1206 l 646 1042 l 532 1042 z "},"Ỳ":{"ha":847,"x_min":21,"x_max":826,"o":"m 360 0 l 360 349 l 488 349 l 488 0 l 360 0 m 164 944 l 385 551 l 435 447 l 422 447 l 469 551 l 690 944 l 826 944 l 488 349 l 360 349 l 21 944 l 164 944 m 499 1042 l 379 1042 l 213 1206 l 368 1206 l 499 1042 z "},"Ž":{"ha":856,"x_min":71,"x_max":783,"o":"m 71 108 l 635 836 l 783 836 l 219 108 l 71 108 m 71 836 l 71 944 l 783 944 l 783 836 l 71 836 m 71 0 l 71 108 l 783 108 l 783 0 l 71 0 m 528 1206 l 642 1206 l 503 1042 l 353 1042 l 215 1206 l 329 1206 l 429 1101 l 528 1206 z "},"Ź":{"ha":856,"x_min":71,"x_max":783,"o":"m 71 108 l 635 836 l 783 836 l 219 108 l 71 108 m 71 836 l 71 944 l 783 944 l 783 836 l 71 836 m 71 0 l 71 108 l 783 108 l 783 0 l 71 0 m 361 1042 l 492 1206 l 647 1206 l 481 1042 l 361 1042 z "},"Ż":{"ha":856,"x_min":71,"x_max":783,"o":"m 71 108 l 635 836 l 783 836 l 219 108 l 71 108 m 71 836 l 71 944 l 783 944 l 783 836 l 71 836 m 71 0 l 71 108 l 783 108 l 783 0 l 71 0 m 367 1042 l 367 1206 l 489 1206 l 489 1042 l 367 1042 z "},"á":{"ha":794,"x_min":63,"x_max":718,"o":"m 210 497 l 88 497 q 139 637 100 579 q 243 725 178 694 q 399 756 308 756 q 563 719 497 756 q 660 619 628 683 q 692 468 692 554 l 692 178 q 698 72 692 114 q 718 0 704 31 l 589 0 q 572 69 575 28 q 569 151 569 111 l 569 465 q 526 602 569 554 q 388 650 482 650 q 265 609 308 650 q 210 497 221 568 m 588 449 l 588 357 q 385 345 464 357 q 264 312 307 333 q 204 261 221 290 q 188 197 188 232 q 227 117 188 146 q 331 89 267 89 q 453 121 399 89 q 538 206 507 153 q 569 322 569 260 l 635 322 q 599 167 629 232 q 523 63 569 103 q 424 3 476 22 q 318 -17 371 -17 q 184 7 242 -17 q 94 78 126 31 q 63 194 63 125 q 103 324 63 271 q 226 406 144 378 q 389 440 304 432 q 588 449 474 449 m 331 836 l 461 1000 l 617 1000 l 450 836 l 331 836 z "},"â":{"ha":794,"x_min":63,"x_max":718,"o":"m 210 497 l 88 497 q 139 637 100 579 q 243 725 178 694 q 399 756 308 756 q 563 719 497 756 q 660 619 628 683 q 692 468 692 554 l 692 178 q 698 72 692 114 q 718 0 704 31 l 589 0 q 572 69 575 28 q 569 151 569 111 l 569 465 q 526 602 569 554 q 388 650 482 650 q 265 609 308 650 q 210 497 221 568 m 588 449 l 588 357 q 385 345 464 357 q 264 312 307 333 q 204 261 221 290 q 188 197 188 232 q 227 117 188 146 q 331 89 267 89 q 453 121 399 89 q 538 206 507 153 q 569 322 569 260 l 635 322 q 599 167 629 232 q 523 63 569 103 q 424 3 476 22 q 318 -17 371 -17 q 184 7 242 -17 q 94 78 126 31 q 63 194 63 125 q 103 324 63 271 q 226 406 144 378 q 389 440 304 432 q 588 449 474 449 m 497 836 l 399 939 l 299 836 l 185 836 l 322 1000 l 472 1000 l 611 836 l 497 836 z "},"ä":{"ha":794,"x_min":63,"x_max":718,"o":"m 210 497 l 88 497 q 139 637 100 579 q 243 725 178 694 q 399 756 308 756 q 563 719 497 756 q 660 619 628 683 q 692 468 692 554 l 692 178 q 698 72 692 114 q 718 0 704 31 l 589 0 q 572 69 575 28 q 569 151 569 111 l 569 465 q 526 602 569 554 q 388 650 482 650 q 265 609 308 650 q 210 497 221 568 m 588 449 l 588 357 q 385 345 464 357 q 264 312 307 333 q 204 261 221 290 q 188 197 188 232 q 227 117 188 146 q 331 89 267 89 q 453 121 399 89 q 538 206 507 153 q 569 322 569 260 l 635 322 q 599 167 629 232 q 523 63 569 103 q 424 3 476 22 q 318 -17 371 -17 q 184 7 242 -17 q 94 78 126 31 q 63 194 63 125 q 103 324 63 271 q 226 406 144 378 q 389 440 304 432 q 588 449 474 449 m 263 836 l 263 1000 l 369 1000 l 369 836 l 263 836 m 425 836 l 425 1000 l 532 1000 l 532 836 l 425 836 z "},"à":{"ha":794,"x_min":63,"x_max":718,"o":"m 210 497 l 88 497 q 139 637 100 579 q 243 725 178 694 q 399 756 308 756 q 563 719 497 756 q 660 619 628 683 q 692 468 692 554 l 692 178 q 698 72 692 114 q 718 0 704 31 l 589 0 q 572 69 575 28 q 569 151 569 111 l 569 465 q 526 602 569 554 q 388 650 482 650 q 265 609 308 650 q 210 497 221 568 m 588 449 l 588 357 q 385 345 464 357 q 264 312 307 333 q 204 261 221 290 q 188 197 188 232 q 227 117 188 146 q 331 89 267 89 q 453 121 399 89 q 538 206 507 153 q 569 322 569 260 l 635 322 q 599 167 629 232 q 523 63 569 103 q 424 3 476 22 q 318 -17 371 -17 q 184 7 242 -17 q 94 78 126 31 q 63 194 63 125 q 103 324 63 271 q 226 406 144 378 q 389 440 304 432 q 588 449 474 449 m 464 836 l 344 836 l 178 1000 l 333 1000 l 464 836 z "},"å":{"ha":794,"x_min":63,"x_max":718,"o":"m 210 497 l 88 497 q 139 637 100 579 q 243 725 178 694 q 399 756 308 756 q 563 719 497 756 q 660 619 628 683 q 692 468 692 554 l 692 178 q 698 72 692 114 q 718 0 704 31 l 589 0 q 572 69 575 28 q 569 151 569 111 l 569 465 q 526 602 569 554 q 388 650 482 650 q 265 609 308 650 q 210 497 221 568 m 588 449 l 588 357 q 385 345 464 357 q 264 312 307 333 q 204 261 221 290 q 188 197 188 232 q 227 117 188 146 q 331 89 267 89 q 453 121 399 89 q 538 206 507 153 q 569 322 569 260 l 635 322 q 599 167 629 232 q 523 63 569 103 q 424 3 476 22 q 318 -17 371 -17 q 184 7 242 -17 q 94 78 126 31 q 63 194 63 125 q 103 324 63 271 q 226 406 144 378 q 389 440 304 432 q 588 449 474 449 m 397 836 q 297 876 338 836 q 257 975 257 915 q 297 1076 257 1036 q 397 1117 338 1117 q 498 1076 458 1117 q 538 975 538 1036 q 498 876 538 915 q 397 836 458 836 m 397 904 q 445 924 426 904 q 464 975 464 944 q 445 1027 464 1007 q 397 1047 426 1047 q 349 1027 368 1047 q 331 975 331 1007 q 349 924 331 944 q 397 904 368 904 z "},"ã":{"ha":794,"x_min":63,"x_max":718,"o":"m 210 497 l 88 497 q 139 637 100 579 q 243 725 178 694 q 399 756 308 756 q 563 719 497 756 q 660 619 628 683 q 692 468 692 554 l 692 178 q 698 72 692 114 q 718 0 704 31 l 589 0 q 572 69 575 28 q 569 151 569 111 l 569 465 q 526 602 569 554 q 388 650 482 650 q 265 609 308 650 q 210 497 221 568 m 588 449 l 588 357 q 385 345 464 357 q 264 312 307 333 q 204 261 221 290 q 188 197 188 232 q 227 117 188 146 q 331 89 267 89 q 453 121 399 89 q 538 206 507 153 q 569 322 569 260 l 635 322 q 599 167 629 232 q 523 63 569 103 q 424 3 476 22 q 318 -17 371 -17 q 184 7 242 -17 q 94 78 126 31 q 63 194 63 125 q 103 324 63 271 q 226 406 144 378 q 389 440 304 432 q 588 449 474 449 m 258 836 l 185 836 q 203 937 185 901 q 248 986 221 972 q 300 1000 275 1000 q 365 988 338 1000 q 413 958 392 975 q 451 928 433 940 q 489 915 469 915 q 510 922 500 915 q 528 947 521 929 q 536 1000 535 965 l 610 1000 q 592 899 610 935 q 547 849 574 863 q 494 836 521 836 q 431 849 457 836 q 383 878 404 861 q 344 907 363 894 q 306 919 325 919 q 284 913 294 919 q 267 888 274 906 q 258 836 260 869 z "},"ă":{"ha":794,"x_min":63,"x_max":718,"o":"m 210 497 l 88 497 q 139 637 100 579 q 243 725 178 694 q 399 756 308 756 q 563 719 497 756 q 660 619 628 683 q 692 468 692 554 l 692 178 q 698 72 692 114 q 718 0 704 31 l 589 0 q 572 69 575 28 q 569 151 569 111 l 569 465 q 526 602 569 554 q 388 650 482 650 q 265 609 308 650 q 210 497 221 568 m 588 449 l 588 357 q 385 345 464 357 q 264 312 307 333 q 204 261 221 290 q 188 197 188 232 q 227 117 188 146 q 331 89 267 89 q 453 121 399 89 q 538 206 507 153 q 569 322 569 260 l 635 322 q 599 167 629 232 q 523 63 569 103 q 424 3 476 22 q 318 -17 371 -17 q 184 7 242 -17 q 94 78 126 31 q 63 194 63 125 q 103 324 63 271 q 226 406 144 378 q 389 440 304 432 q 588 449 474 449 m 196 1000 l 288 1000 q 325 936 293 956 q 399 917 357 917 q 472 936 440 917 q 508 1000 503 956 l 599 1000 q 559 903 589 939 q 487 851 529 867 q 399 836 444 836 q 310 851 353 836 q 236 903 267 867 q 196 1000 206 939 z "},"ā":{"ha":794,"x_min":63,"x_max":718,"o":"m 210 497 l 88 497 q 139 637 100 579 q 243 725 178 694 q 399 756 308 756 q 563 719 497 756 q 660 619 628 683 q 692 468 692 554 l 692 178 q 698 72 692 114 q 718 0 704 31 l 589 0 q 572 69 575 28 q 569 151 569 111 l 569 465 q 526 602 569 554 q 388 650 482 650 q 265 609 308 650 q 210 497 221 568 m 588 449 l 588 357 q 385 345 464 357 q 264 312 307 333 q 204 261 221 290 q 188 197 188 232 q 227 117 188 146 q 331 89 267 89 q 453 121 399 89 q 538 206 507 153 q 569 322 569 260 l 635 322 q 599 167 629 232 q 523 63 569 103 q 424 3 476 22 q 318 -17 371 -17 q 184 7 242 -17 q 94 78 126 31 q 63 194 63 125 q 103 324 63 271 q 226 406 144 378 q 389 440 304 432 q 588 449 474 449 m 231 871 l 231 967 l 564 967 l 564 871 l 231 871 z "},"ą":{"ha":794,"x_min":63,"x_max":718,"o":"m 210 497 l 88 497 q 139 637 100 579 q 243 725 178 694 q 399 756 308 756 q 563 719 497 756 q 660 619 628 683 q 692 468 692 554 l 692 178 q 698 72 692 114 q 718 0 704 31 l 589 0 q 572 69 575 28 q 569 151 569 111 l 569 465 q 526 602 569 554 q 388 650 482 650 q 265 609 308 650 q 210 497 221 568 m 588 449 l 588 357 q 385 345 464 357 q 264 312 307 333 q 204 261 221 290 q 188 197 188 232 q 227 117 188 146 q 331 89 267 89 q 453 121 399 89 q 538 206 507 153 q 569 322 569 260 l 628 322 q 590 174 619 238 q 516 67 560 110 q 421 4 472 25 q 318 -17 369 -17 q 184 7 242 -17 q 94 78 126 31 q 63 194 63 125 q 103 324 63 271 q 226 406 144 378 q 389 440 304 432 q 588 449 474 449 m 536 -153 q 563 -221 536 -194 q 642 -247 590 -247 q 688 -242 671 -247 q 718 -232 706 -237 l 718 -307 q 669 -320 692 -317 q 618 -324 647 -324 q 527 -306 568 -324 q 462 -256 486 -289 q 438 -178 438 -224 q 488 -62 438 -121 q 629 49 539 -3 l 661 15 q 585 -48 613 -19 q 547 -102 557 -76 q 536 -153 536 -128 z "},"ç":{"ha":767,"x_min":60,"x_max":713,"o":"m 707 483 l 585 483 q 518 609 569 568 q 393 650 467 650 q 238 577 292 650 q 185 368 185 504 q 240 160 185 233 q 397 88 296 88 q 522 127 471 88 q 590 246 572 167 l 713 246 q 601 46 688 108 q 394 -17 515 -17 q 215 30 290 -17 q 100 163 140 76 q 60 368 60 249 q 100 579 60 493 q 215 710 140 665 q 393 756 290 756 q 542 725 475 756 q 652 634 608 694 q 707 483 696 574 m 406 -185 q 379 -147 406 -158 q 288 -129 353 -135 l 357 0 l 433 0 l 390 -78 q 476 -110 447 -85 q 506 -178 506 -136 q 438 -273 506 -242 q 235 -307 369 -304 l 235 -244 q 363 -227 319 -242 q 406 -185 406 -212 z "},"ć":{"ha":767,"x_min":60,"x_max":713,"o":"m 707 483 l 585 483 q 518 609 569 568 q 393 650 467 650 q 238 577 292 650 q 185 368 185 504 q 240 160 185 233 q 397 88 296 88 q 522 127 471 88 q 590 246 572 167 l 713 246 q 601 46 688 108 q 394 -17 515 -17 q 215 30 290 -17 q 100 163 140 76 q 60 368 60 249 q 100 579 60 493 q 215 710 140 665 q 393 756 290 756 q 542 725 475 756 q 652 634 608 694 q 707 483 696 574 m 317 836 l 447 1000 l 603 1000 l 436 836 l 317 836 z "},"č":{"ha":767,"x_min":60,"x_max":713,"o":"m 707 483 l 585 483 q 518 609 569 568 q 393 650 467 650 q 238 577 292 650 q 185 368 185 504 q 240 160 185 233 q 397 88 296 88 q 522 127 471 88 q 590 246 572 167 l 713 246 q 601 46 688 108 q 394 -17 515 -17 q 215 30 290 -17 q 100 163 140 76 q 60 368 60 249 q 100 579 60 493 q 215 710 140 665 q 393 756 290 756 q 542 725 475 756 q 652 634 608 694 q 707 483 696 574 m 483 1000 l 597 1000 l 458 836 l 308 836 l 171 1000 l 285 1000 l 385 896 l 483 1000 z "},"ĉ":{"ha":767,"x_min":60,"x_max":713,"o":"m 707 483 l 585 483 q 518 609 569 568 q 393 650 467 650 q 238 577 292 650 q 185 368 185 504 q 240 160 185 233 q 397 88 296 88 q 522 127 471 88 q 590 246 572 167 l 713 246 q 601 46 688 108 q 394 -17 515 -17 q 215 30 290 -17 q 100 163 140 76 q 60 368 60 249 q 100 579 60 493 q 215 710 140 665 q 393 756 290 756 q 542 725 475 756 q 652 634 608 694 q 707 483 696 574 m 483 836 l 385 939 l 285 836 l 171 836 l 308 1000 l 458 1000 l 597 836 l 483 836 z "},"ċ":{"ha":767,"x_min":60,"x_max":713,"o":"m 707 483 l 585 483 q 518 609 569 568 q 393 650 467 650 q 238 577 292 650 q 185 368 185 504 q 240 160 185 233 q 397 88 296 88 q 522 127 471 88 q 590 246 572 167 l 713 246 q 601 46 688 108 q 394 -17 515 -17 q 215 30 290 -17 q 100 163 140 76 q 60 368 60 249 q 100 579 60 493 q 215 710 140 665 q 393 756 290 756 q 542 725 475 756 q 652 634 608 694 q 707 483 696 574 m 322 836 l 322 1000 l 444 1000 l 444 836 l 322 836 z "},"ď":{"ha":831,"x_min":60,"x_max":885,"o":"m 374 -17 q 206 29 276 -17 q 97 162 135 75 q 60 368 60 249 q 144 656 60 556 q 374 756 229 756 q 577 656 501 756 q 653 368 653 557 q 619 165 653 251 q 522 31 585 78 q 374 -17 460 -17 m 382 89 q 530 160 479 89 q 581 368 581 232 q 528 576 581 503 q 382 650 476 650 q 235 577 286 650 q 185 368 185 504 q 237 162 185 235 q 382 89 289 89 m 581 0 l 581 1000 l 703 1000 l 703 0 l 581 0 m 749 903 l 749 1000 l 885 1000 l 885 963 q 869 867 885 907 q 828 790 854 826 l 764 790 q 796 846 788 821 q 804 903 804 871 l 749 903 z "},"đ":{"ha":800,"x_min":60,"x_max":776,"o":"m 374 -17 q 206 29 276 -17 q 97 162 135 75 q 60 368 60 249 q 144 656 60 556 q 374 756 229 756 q 577 656 501 756 q 653 368 653 557 q 619 165 653 251 q 522 31 585 78 q 374 -17 460 -17 m 382 89 q 530 160 479 89 q 581 368 581 232 q 528 576 581 503 q 382 650 476 650 q 235 577 286 650 q 185 368 185 504 q 237 162 185 235 q 382 89 289 89 m 581 0 l 581 1000 l 703 1000 l 703 0 l 581 0 m 443 846 l 443 935 l 776 935 l 776 846 l 443 846 z "},"é":{"ha":794,"x_min":60,"x_max":735,"o":"m 675 439 l 606 374 q 551 578 606 506 q 396 650 496 650 q 239 577 293 650 q 185 368 185 504 q 242 162 185 235 q 403 89 299 89 q 534 126 481 89 q 607 240 588 164 l 735 240 q 616 47 704 111 q 403 -17 528 -17 q 219 29 296 -17 q 101 162 142 75 q 60 368 60 249 q 101 579 60 493 q 217 710 142 665 q 396 756 293 756 q 574 710 500 756 q 689 580 649 664 q 729 378 729 496 l 729 347 l 111 347 l 111 439 l 675 439 m 331 836 l 461 1000 l 617 1000 l 450 836 l 331 836 z "},"ê":{"ha":794,"x_min":60,"x_max":735,"o":"m 675 439 l 606 374 q 551 578 606 506 q 396 650 496 650 q 239 577 293 650 q 185 368 185 504 q 242 162 185 235 q 403 89 299 89 q 534 126 481 89 q 607 240 588 164 l 735 240 q 616 47 704 111 q 403 -17 528 -17 q 219 29 296 -17 q 101 162 142 75 q 60 368 60 249 q 101 579 60 493 q 217 710 142 665 q 396 756 293 756 q 574 710 500 756 q 689 580 649 664 q 729 378 729 496 l 729 347 l 111 347 l 111 439 l 675 439 m 497 836 l 399 939 l 299 836 l 185 836 l 322 1000 l 472 1000 l 611 836 l 497 836 z "},"ë":{"ha":794,"x_min":60,"x_max":735,"o":"m 675 439 l 606 374 q 551 578 606 506 q 396 650 496 650 q 239 577 293 650 q 185 368 185 504 q 242 162 185 235 q 403 89 299 89 q 534 126 481 89 q 607 240 588 164 l 735 240 q 616 47 704 111 q 403 -17 528 -17 q 219 29 296 -17 q 101 162 142 75 q 60 368 60 249 q 101 579 60 493 q 217 710 142 665 q 396 756 293 756 q 574 710 500 756 q 689 580 649 664 q 729 378 729 496 l 729 347 l 111 347 l 111 439 l 675 439 m 263 836 l 263 1000 l 369 1000 l 369 836 l 263 836 m 425 836 l 425 1000 l 532 1000 l 532 836 l 425 836 z "},"è":{"ha":794,"x_min":60,"x_max":735,"o":"m 675 439 l 606 374 q 551 578 606 506 q 396 650 496 650 q 239 577 293 650 q 185 368 185 504 q 242 162 185 235 q 403 89 299 89 q 534 126 481 89 q 607 240 588 164 l 735 240 q 616 47 704 111 q 403 -17 528 -17 q 219 29 296 -17 q 101 162 142 75 q 60 368 60 249 q 101 579 60 493 q 217 710 142 665 q 396 756 293 756 q 574 710 500 756 q 689 580 649 664 q 729 378 729 496 l 729 347 l 111 347 l 111 439 l 675 439 m 464 836 l 344 836 l 178 1000 l 333 1000 l 464 836 z "},"ĕ":{"ha":794,"x_min":60,"x_max":735,"o":"m 675 439 l 606 374 q 551 578 606 506 q 396 650 496 650 q 239 577 293 650 q 185 368 185 504 q 242 162 185 235 q 403 89 299 89 q 534 126 481 89 q 607 240 588 164 l 735 240 q 616 47 704 111 q 403 -17 528 -17 q 219 29 296 -17 q 101 162 142 75 q 60 368 60 249 q 101 579 60 493 q 217 710 142 665 q 396 756 293 756 q 574 710 500 756 q 689 580 649 664 q 729 378 729 496 l 729 347 l 111 347 l 111 439 l 675 439 m 196 1000 l 288 1000 q 325 936 293 956 q 399 917 357 917 q 472 936 440 917 q 508 1000 503 956 l 599 1000 q 559 903 589 939 q 487 851 529 867 q 399 836 444 836 q 310 851 353 836 q 236 903 267 867 q 196 1000 206 939 z "},"ě":{"ha":794,"x_min":60,"x_max":735,"o":"m 675 439 l 606 374 q 551 578 606 506 q 396 650 496 650 q 239 577 293 650 q 185 368 185 504 q 242 162 185 235 q 403 89 299 89 q 534 126 481 89 q 607 240 588 164 l 735 240 q 616 47 704 111 q 403 -17 528 -17 q 219 29 296 -17 q 101 162 142 75 q 60 368 60 249 q 101 579 60 493 q 217 710 142 665 q 396 756 293 756 q 574 710 500 756 q 689 580 649 664 q 729 378 729 496 l 729 347 l 111 347 l 111 439 l 675 439 m 497 1000 l 611 1000 l 472 836 l 322 836 l 185 1000 l 299 1000 l 399 896 l 497 1000 z "},"ė":{"ha":794,"x_min":60,"x_max":735,"o":"m 675 439 l 606 374 q 551 578 606 506 q 396 650 496 650 q 239 577 293 650 q 185 368 185 504 q 242 162 185 235 q 403 89 299 89 q 534 126 481 89 q 607 240 588 164 l 735 240 q 616 47 704 111 q 403 -17 528 -17 q 219 29 296 -17 q 101 162 142 75 q 60 368 60 249 q 101 579 60 493 q 217 710 142 665 q 396 756 293 756 q 574 710 500 756 q 689 580 649 664 q 729 378 729 496 l 729 347 l 111 347 l 111 439 l 675 439 m 336 836 l 336 1000 l 458 1000 l 458 836 l 336 836 z "},"ē":{"ha":794,"x_min":60,"x_max":735,"o":"m 675 439 l 606 374 q 551 578 606 506 q 396 650 496 650 q 239 577 293 650 q 185 368 185 504 q 242 162 185 235 q 403 89 299 89 q 534 126 481 89 q 607 240 588 164 l 735 240 q 616 47 704 111 q 403 -17 528 -17 q 219 29 296 -17 q 101 162 142 75 q 60 368 60 249 q 101 579 60 493 q 217 710 142 665 q 396 756 293 756 q 574 710 500 756 q 689 580 649 664 q 729 378 729 496 l 729 347 l 111 347 l 111 439 l 675 439 m 231 871 l 231 967 l 564 967 l 564 871 l 231 871 z "},"ę":{"ha":794,"x_min":60,"x_max":735,"o":"m 675 439 l 606 374 q 551 578 606 506 q 396 650 496 650 q 239 577 293 650 q 185 368 185 504 q 242 162 185 235 q 403 89 299 89 q 534 126 481 89 q 607 240 588 164 l 735 240 q 616 47 704 111 q 403 -17 528 -17 q 219 29 296 -17 q 101 162 142 75 q 60 368 60 249 q 101 579 60 493 q 217 710 142 665 q 396 756 293 756 q 574 710 500 756 q 689 580 649 664 q 729 378 729 496 l 729 347 l 111 347 l 111 439 l 675 439 m 475 -153 q 502 -221 475 -194 q 581 -247 529 -247 q 627 -242 610 -247 q 657 -232 644 -237 l 657 -307 q 608 -320 631 -317 q 557 -324 586 -324 q 466 -306 507 -324 q 401 -256 425 -289 q 376 -178 376 -224 q 399 -100 376 -139 q 465 -23 422 -61 q 568 49 508 15 l 640 68 q 538 -31 574 7 q 488 -97 501 -69 q 475 -153 475 -124 z "},"ğ":{"ha":801,"x_min":60,"x_max":703,"o":"m 360 -6 q 199 40 267 -6 q 96 171 132 86 q 60 374 60 256 q 140 658 60 560 q 360 756 221 756 q 581 656 508 756 q 653 375 653 557 q 574 91 653 188 q 360 -6 496 -6 m 382 100 q 530 171 479 100 q 581 375 581 242 q 528 578 581 506 q 382 650 476 650 q 235 579 286 650 q 185 374 185 508 q 236 172 185 243 q 382 100 288 100 m 703 -22 q 663 -192 703 -125 q 554 -291 622 -258 q 401 -324 486 -324 q 185 -261 271 -324 q 79 -72 99 -199 l 201 -72 q 266 -183 213 -144 q 400 -222 319 -222 q 531 -176 482 -222 q 581 -26 581 -129 l 581 738 l 703 738 l 703 -22 m 186 1000 l 278 1000 q 315 936 283 956 q 389 917 347 917 q 462 936 431 917 q 499 1000 493 956 l 589 1000 q 549 903 579 939 q 477 851 519 867 q 389 836 435 836 q 300 851 343 836 q 226 903 257 867 q 186 1000 196 939 z "},"ĝ":{"ha":801,"x_min":60,"x_max":703,"o":"m 360 -6 q 199 40 267 -6 q 96 171 132 86 q 60 374 60 256 q 140 658 60 560 q 360 756 221 756 q 581 656 508 756 q 653 375 653 557 q 574 91 653 188 q 360 -6 496 -6 m 382 100 q 530 171 479 100 q 581 375 581 242 q 528 578 581 506 q 382 650 476 650 q 235 579 286 650 q 185 374 185 508 q 236 172 185 243 q 382 100 288 100 m 703 -22 q 663 -192 703 -125 q 554 -291 622 -258 q 401 -324 486 -324 q 185 -261 271 -324 q 79 -72 99 -199 l 201 -72 q 266 -183 213 -144 q 400 -222 319 -222 q 531 -176 482 -222 q 581 -26 581 -129 l 581 738 l 703 738 l 703 -22 m 488 836 l 389 939 l 289 836 l 175 836 l 313 1000 l 463 1000 l 601 836 l 488 836 z "},"ģ":{"ha":801,"x_min":60,"x_max":703,"o":"m 360 -6 q 199 40 267 -6 q 96 171 132 86 q 60 374 60 256 q 140 658 60 560 q 360 756 221 756 q 581 656 508 756 q 653 375 653 557 q 574 91 653 188 q 360 -6 496 -6 m 382 100 q 530 171 479 100 q 581 375 581 242 q 528 578 581 506 q 382 650 476 650 q 235 579 286 650 q 185 374 185 508 q 236 172 185 243 q 382 100 288 100 m 703 -22 q 663 -192 703 -125 q 554 -291 622 -258 q 401 -324 486 -324 q 185 -261 271 -324 q 79 -72 99 -199 l 201 -72 q 266 -183 213 -144 q 400 -222 319 -222 q 531 -176 482 -222 q 581 -26 581 -129 l 581 738 l 703 738 l 703 -22 m 458 933 l 458 836 l 321 836 l 321 874 q 337 970 321 931 q 379 1044 353 1010 l 443 1044 q 414 992 425 1018 q 403 933 403 965 l 458 933 z "},"ġ":{"ha":801,"x_min":60,"x_max":703,"o":"m 360 -6 q 199 40 267 -6 q 96 171 132 86 q 60 374 60 256 q 140 658 60 560 q 360 756 221 756 q 581 656 508 756 q 653 375 653 557 q 574 91 653 188 q 360 -6 496 -6 m 382 100 q 530 171 479 100 q 581 375 581 242 q 528 578 581 506 q 382 650 476 650 q 235 579 286 650 q 185 374 185 508 q 236 172 185 243 q 382 100 288 100 m 703 -22 q 663 -192 703 -125 q 554 -291 622 -258 q 401 -324 486 -324 q 185 -261 271 -324 q 79 -72 99 -199 l 201 -72 q 266 -183 213 -144 q 400 -222 319 -222 q 531 -176 482 -222 q 581 -26 581 -129 l 581 738 l 703 738 l 703 -22 m 326 836 l 326 1000 l 449 1000 l 449 836 l 326 836 z "},"ħ":{"ha":794,"x_min":36,"x_max":697,"o":"m 97 0 l 97 1000 l 219 1000 l 219 0 l 97 0 m 219 436 l 161 436 q 205 613 168 542 q 304 719 242 683 q 447 756 367 756 q 582 726 526 756 q 667 638 638 696 q 697 493 697 579 l 697 0 l 575 0 l 575 468 q 558 565 575 524 q 505 628 540 606 q 414 651 469 651 q 332 633 368 651 q 271 583 296 614 q 233 515 246 553 q 219 436 219 476 m 36 846 l 36 935 l 383 935 l 383 846 l 36 846 z "},"ĥ":{"ha":794,"x_min":97,"x_max":697,"o":"m 97 0 l 97 1000 l 219 1000 l 219 0 l 97 0 m 219 436 l 161 436 q 205 613 168 542 q 304 719 242 683 q 447 756 367 756 q 582 726 526 756 q 667 638 638 696 q 697 493 697 579 l 697 0 l 575 0 l 575 468 q 558 565 575 524 q 505 628 540 606 q 414 651 469 651 q 332 633 368 651 q 271 583 296 614 q 233 515 246 553 q 219 436 219 476 m 418 1058 l 319 1161 l 219 1058 l 106 1058 l 243 1222 l 393 1222 l 532 1058 l 418 1058 z "},"í":{"ha":317,"x_min":92,"x_max":378,"o":"m 97 0 l 97 738 l 219 738 l 219 0 l 97 0 m 92 836 l 222 1000 l 378 1000 l 211 836 l 92 836 z "},"î":{"ha":317,"x_min":-54,"x_max":372,"o":"m 97 0 l 97 738 l 219 738 l 219 0 l 97 0 m 258 836 l 160 939 l 60 836 l -54 836 l 83 1000 l 233 1000 l 372 836 l 258 836 z "},"ï":{"ha":317,"x_min":24,"x_max":293,"o":"m 97 0 l 97 738 l 219 738 l 219 0 l 97 0 m 24 836 l 24 1000 l 131 1000 l 131 836 l 24 836 m 186 836 l 186 1000 l 293 1000 l 293 836 l 186 836 z "},"ì":{"ha":317,"x_min":-61,"x_max":225,"o":"m 97 0 l 97 738 l 219 738 l 219 0 l 97 0 m 225 836 l 106 836 l -61 1000 l 94 1000 l 225 836 z "},"ĭ":{"ha":317,"x_min":-43,"x_max":360,"o":"m 97 0 l 97 738 l 219 738 l 219 0 l 97 0 m -43 1000 l 49 1000 q 86 936 54 956 q 160 917 118 917 q 233 936 201 917 q 269 1000 264 956 l 360 1000 q 320 903 350 939 q 248 851 290 867 q 160 836 206 836 q 71 851 114 836 q -3 903 28 867 q -43 1000 -33 939 z "},"":{"ha":317,"x_min":97,"x_max":219,"o":"m 97 0 l 97 738 l 219 738 l 219 0 l 97 0 m 97 836 l 97 1000 l 219 1000 l 219 836 l 97 836 z "},"ī":{"ha":317,"x_min":-8,"x_max":325,"o":"m 97 0 l 97 738 l 219 738 l 219 0 l 97 0 m -8 871 l -8 967 l 325 967 l 325 871 l -8 871 z "},"į":{"ha":317,"x_min":-61,"x_max":219,"o":"m 97 0 l 97 738 l 219 738 l 219 0 l 97 0 m 97 836 l 97 1000 l 219 1000 l 219 836 l 97 836 m 38 -153 q 65 -221 38 -194 q 143 -247 92 -247 q 190 -242 172 -247 q 219 -232 207 -237 l 219 -307 q 171 -320 193 -317 q 119 -324 149 -324 q 28 -306 69 -324 q -37 -256 -12 -289 q -61 -178 -61 -224 q -10 -62 -61 -121 q 131 49 40 -3 l 163 15 q 86 -48 114 -19 q 48 -102 58 -76 q 38 -153 38 -128 z "},"ĩ":{"ha":317,"x_min":-54,"x_max":371,"o":"m 97 0 l 97 738 l 219 738 l 219 0 l 97 0 m 19 836 l -54 836 q -36 937 -54 901 q 9 986 -18 972 q 61 1000 36 1000 q 126 988 99 1000 q 174 958 153 975 q 213 928 194 940 q 250 915 231 915 q 272 922 261 915 q 289 947 282 929 q 297 1000 296 965 l 371 1000 q 353 899 371 935 q 308 849 335 863 q 256 836 282 836 q 192 849 218 836 q 144 878 165 861 q 105 907 124 894 q 67 919 86 919 q 45 913 56 919 q 28 888 35 906 q 19 836 21 869 z "},"ĵ":{"ha":317,"x_min":-54,"x_max":372,"o":"m 219 -94 q 171 -267 219 -211 q 19 -324 122 -324 q -21 -320 -3 -324 q -49 -312 -39 -317 l -49 -225 l -36 -225 q 71 -193 44 -225 q 97 -94 97 -161 l 97 738 l 219 738 l 219 -94 m 258 836 l 160 939 l 60 836 l -54 836 l 83 1000 l 233 1000 l 372 836 l 258 836 z "},"ĳ":{"ha":633,"x_min":97,"x_max":536,"o":"m 97 0 l 97 738 l 219 738 l 219 0 l 97 0 m 97 836 l 97 1000 l 219 1000 l 219 836 l 97 836 m 536 -94 q 488 -267 536 -211 q 336 -324 439 -324 q 296 -320 314 -324 q 268 -312 278 -317 l 268 -225 l 281 -225 q 388 -193 361 -225 q 414 -94 414 -161 l 414 738 l 536 738 l 536 -94 m 414 836 l 414 1000 l 536 1000 l 536 836 l 414 836 z "},"ķ":{"ha":728,"x_min":97,"x_max":707,"o":"m 97 0 l 97 1000 l 219 1000 l 219 0 l 97 0 m 199 400 l 538 738 l 688 738 l 343 400 l 199 400 m 199 400 l 342 419 l 707 0 l 551 0 l 199 400 m 297 -206 l 297 -108 l 435 -108 l 435 -146 q 419 -242 435 -201 q 376 -318 404 -282 l 313 -318 q 343 -265 332 -292 q 354 -206 354 -237 l 297 -206 z "},"ĺ":{"ha":317,"x_min":96,"x_max":382,"o":"m 97 0 l 97 1000 l 219 1000 l 219 0 l 97 0 m 96 1058 l 226 1222 l 382 1222 l 215 1058 l 96 1058 z "},"ľ":{"ha":353,"x_min":97,"x_max":407,"o":"m 97 0 l 97 1000 l 219 1000 l 219 0 l 97 0 m 271 903 l 271 1000 l 407 1000 l 407 963 q 392 867 407 907 q 350 790 376 826 l 286 790 q 318 846 310 821 q 326 903 326 871 l 271 903 z "},"ļ":{"ha":317,"x_min":92,"x_max":229,"o":"m 97 0 l 97 1000 l 219 1000 l 219 0 l 97 0 m 92 -206 l 92 -108 l 229 -108 l 229 -146 q 214 -242 229 -201 q 171 -318 199 -282 l 107 -318 q 138 -265 126 -292 q 149 -206 149 -237 l 92 -206 z "},"ŀ":{"ha":328,"x_min":97,"x_max":386,"o":"m 97 0 l 97 1000 l 219 1000 l 219 0 l 97 0 m 264 340 l 264 503 l 386 503 l 386 340 l 264 340 z "},"ñ":{"ha":794,"x_min":97,"x_max":697,"o":"m 97 0 l 97 738 l 219 738 l 219 0 l 97 0 m 219 436 l 161 436 q 205 613 168 542 q 304 719 242 683 q 447 756 367 756 q 582 726 526 756 q 667 638 638 696 q 697 493 697 579 l 697 0 l 575 0 l 575 468 q 558 565 575 524 q 505 628 540 606 q 414 651 469 651 q 332 633 368 651 q 271 583 296 614 q 233 515 246 553 q 219 436 219 476 m 258 836 l 185 836 q 203 937 185 901 q 248 986 221 972 q 300 1000 275 1000 q 365 988 338 1000 q 413 958 392 975 q 451 928 433 940 q 489 915 469 915 q 510 922 500 915 q 528 947 521 929 q 536 1000 535 965 l 610 1000 q 592 899 610 935 q 547 849 574 863 q 494 836 521 836 q 431 849 457 836 q 383 878 404 861 q 344 907 363 894 q 306 919 325 919 q 284 913 294 919 q 267 888 274 906 q 258 836 260 869 z "},"ń":{"ha":794,"x_min":97,"x_max":697,"o":"m 97 0 l 97 738 l 219 738 l 219 0 l 97 0 m 219 436 l 161 436 q 205 613 168 542 q 304 719 242 683 q 447 756 367 756 q 582 726 526 756 q 667 638 638 696 q 697 493 697 579 l 697 0 l 575 0 l 575 468 q 558 565 575 524 q 505 628 540 606 q 414 651 469 651 q 332 633 368 651 q 271 583 296 614 q 233 515 246 553 q 219 436 219 476 m 331 836 l 461 1000 l 617 1000 l 450 836 l 331 836 z "},"ň":{"ha":794,"x_min":97,"x_max":697,"o":"m 97 0 l 97 738 l 219 738 l 219 0 l 97 0 m 219 436 l 161 436 q 205 613 168 542 q 304 719 242 683 q 447 756 367 756 q 582 726 526 756 q 667 638 638 696 q 697 493 697 579 l 697 0 l 575 0 l 575 468 q 558 565 575 524 q 505 628 540 606 q 414 651 469 651 q 332 633 368 651 q 271 583 296 614 q 233 515 246 553 q 219 436 219 476 m 497 1000 l 611 1000 l 472 836 l 322 836 l 185 1000 l 299 1000 l 399 896 l 497 1000 z "},"ņ":{"ha":794,"x_min":97,"x_max":697,"o":"m 97 0 l 97 738 l 219 738 l 219 0 l 97 0 m 219 436 l 161 436 q 205 613 168 542 q 304 719 242 683 q 447 756 367 756 q 582 726 526 756 q 667 638 638 696 q 697 493 697 579 l 697 0 l 575 0 l 575 468 q 558 565 575 524 q 505 628 540 606 q 414 651 469 651 q 332 633 368 651 q 271 583 296 614 q 233 515 246 553 q 219 436 219 476 m 331 -206 l 331 -108 l 468 -108 l 468 -146 q 453 -242 468 -201 q 410 -318 438 -282 l 346 -318 q 376 -265 365 -292 q 388 -206 388 -237 l 331 -206 z "},"ó":{"ha":794,"x_min":60,"x_max":735,"o":"m 397 -17 q 216 29 292 -17 q 100 162 140 75 q 60 368 60 249 q 101 579 60 493 q 218 710 142 665 q 397 756 294 756 q 578 709 503 756 q 694 576 654 663 q 735 368 735 489 q 694 158 735 244 q 577 28 653 72 q 397 -17 501 -17 m 397 89 q 555 161 500 89 q 610 368 610 233 q 555 576 610 503 q 397 650 500 650 q 240 577 294 650 q 185 368 185 504 q 240 162 185 235 q 397 89 296 89 m 331 836 l 461 1000 l 617 1000 l 450 836 l 331 836 z "},"ô":{"ha":794,"x_min":60,"x_max":735,"o":"m 397 -17 q 216 29 292 -17 q 100 162 140 75 q 60 368 60 249 q 101 579 60 493 q 218 710 142 665 q 397 756 294 756 q 578 709 503 756 q 694 576 654 663 q 735 368 735 489 q 694 158 735 244 q 577 28 653 72 q 397 -17 501 -17 m 397 89 q 555 161 500 89 q 610 368 610 233 q 555 576 610 503 q 397 650 500 650 q 240 577 294 650 q 185 368 185 504 q 240 162 185 235 q 397 89 296 89 m 497 836 l 399 939 l 299 836 l 185 836 l 322 1000 l 472 1000 l 611 836 l 497 836 z "},"ö":{"ha":794,"x_min":60,"x_max":735,"o":"m 397 -17 q 216 29 292 -17 q 100 162 140 75 q 60 368 60 249 q 101 579 60 493 q 218 710 142 665 q 397 756 294 756 q 578 709 503 756 q 694 576 654 663 q 735 368 735 489 q 694 158 735 244 q 577 28 653 72 q 397 -17 501 -17 m 397 89 q 555 161 500 89 q 610 368 610 233 q 555 576 610 503 q 397 650 500 650 q 240 577 294 650 q 185 368 185 504 q 240 162 185 235 q 397 89 296 89 m 263 836 l 263 1000 l 369 1000 l 369 836 l 263 836 m 425 836 l 425 1000 l 532 1000 l 532 836 l 425 836 z "},"ò":{"ha":794,"x_min":60,"x_max":735,"o":"m 397 -17 q 216 29 292 -17 q 100 162 140 75 q 60 368 60 249 q 101 579 60 493 q 218 710 142 665 q 397 756 294 756 q 578 709 503 756 q 694 576 654 663 q 735 368 735 489 q 694 158 735 244 q 577 28 653 72 q 397 -17 501 -17 m 397 89 q 555 161 500 89 q 610 368 610 233 q 555 576 610 503 q 397 650 500 650 q 240 577 294 650 q 185 368 185 504 q 240 162 185 235 q 397 89 296 89 m 464 836 l 344 836 l 178 1000 l 333 1000 l 464 836 z "},"õ":{"ha":794,"x_min":60,"x_max":735,"o":"m 397 -17 q 216 29 292 -17 q 100 162 140 75 q 60 368 60 249 q 101 579 60 493 q 218 710 142 665 q 397 756 294 756 q 578 709 503 756 q 694 576 654 663 q 735 368 735 489 q 694 158 735 244 q 577 28 653 72 q 397 -17 501 -17 m 397 89 q 555 161 500 89 q 610 368 610 233 q 555 576 610 503 q 397 650 500 650 q 240 577 294 650 q 185 368 185 504 q 240 162 185 235 q 397 89 296 89 m 258 836 l 185 836 q 203 937 185 901 q 248 986 221 972 q 300 1000 275 1000 q 365 988 338 1000 q 413 958 392 975 q 451 928 433 940 q 489 915 469 915 q 510 922 500 915 q 528 947 521 929 q 536 1000 535 965 l 610 1000 q 592 899 610 935 q 547 849 574 863 q 494 836 521 836 q 431 849 457 836 q 383 878 404 861 q 344 907 363 894 q 306 919 325 919 q 284 913 294 919 q 267 888 274 906 q 258 836 260 869 z "},"ŏ":{"ha":794,"x_min":60,"x_max":735,"o":"m 397 -17 q 216 29 292 -17 q 100 162 140 75 q 60 368 60 249 q 101 579 60 493 q 218 710 142 665 q 397 756 294 756 q 578 709 503 756 q 694 576 654 663 q 735 368 735 489 q 694 158 735 244 q 577 28 653 72 q 397 -17 501 -17 m 397 89 q 555 161 500 89 q 610 368 610 233 q 555 576 610 503 q 397 650 500 650 q 240 577 294 650 q 185 368 185 504 q 240 162 185 235 q 397 89 296 89 m 196 1000 l 288 1000 q 325 936 293 956 q 399 917 357 917 q 472 936 440 917 q 508 1000 503 956 l 599 1000 q 559 903 589 939 q 487 851 529 867 q 399 836 444 836 q 310 851 353 836 q 236 903 267 867 q 196 1000 206 939 z "},"ő":{"ha":794,"x_min":60,"x_max":735,"o":"m 397 -17 q 216 29 292 -17 q 100 162 140 75 q 60 368 60 249 q 101 579 60 493 q 218 710 142 665 q 397 756 294 756 q 578 709 503 756 q 694 576 654 663 q 735 368 735 489 q 694 158 735 244 q 577 28 653 72 q 397 -17 501 -17 m 397 89 q 555 161 500 89 q 610 368 610 233 q 555 576 610 503 q 397 650 500 650 q 240 577 294 650 q 185 368 185 504 q 240 162 185 235 q 397 89 296 89 m 250 836 l 350 1000 l 468 1000 l 343 836 l 250 836 m 446 836 l 546 1000 l 664 1000 l 538 836 l 446 836 z "},"ō":{"ha":794,"x_min":60,"x_max":735,"o":"m 397 -17 q 216 29 292 -17 q 100 162 140 75 q 60 368 60 249 q 101 579 60 493 q 218 710 142 665 q 397 756 294 756 q 578 709 503 756 q 694 576 654 663 q 735 368 735 489 q 694 158 735 244 q 577 28 653 72 q 397 -17 501 -17 m 397 89 q 555 161 500 89 q 610 368 610 233 q 555 576 610 503 q 397 650 500 650 q 240 577 294 650 q 185 368 185 504 q 240 162 185 235 q 397 89 296 89 m 231 871 l 231 967 l 564 967 l 564 871 l 231 871 z "},"ŕ":{"ha":518,"x_min":97,"x_max":507,"o":"m 97 0 l 97 738 l 219 738 l 219 0 l 97 0 m 219 413 l 164 413 q 210 608 172 532 q 308 719 249 683 q 438 756 367 756 q 478 751 460 756 q 507 738 497 746 l 507 628 q 472 635 492 633 q 431 638 453 638 q 335 622 375 638 q 270 575 296 606 q 232 503 244 544 q 219 413 219 463 m 199 836 l 329 1000 l 485 1000 l 318 836 l 199 836 z "},"ř":{"ha":518,"x_min":53,"x_max":507,"o":"m 97 0 l 97 738 l 219 738 l 219 0 l 97 0 m 219 413 l 164 413 q 210 608 172 532 q 308 719 249 683 q 438 756 367 756 q 478 751 460 756 q 507 738 497 746 l 507 628 q 472 635 492 633 q 431 638 453 638 q 335 622 375 638 q 270 575 296 606 q 232 503 244 544 q 219 413 219 463 m 365 1000 l 479 1000 l 340 836 l 190 836 l 53 1000 l 167 1000 l 267 896 l 365 1000 z "},"ŗ":{"ha":518,"x_min":97,"x_max":507,"o":"m 97 0 l 97 738 l 219 738 l 219 0 l 97 0 m 219 413 l 164 413 q 210 608 172 532 q 308 719 249 683 q 438 756 367 756 q 478 751 460 756 q 507 738 497 746 l 507 628 q 472 635 492 633 q 431 638 453 638 q 335 622 375 638 q 270 575 296 606 q 232 503 244 544 q 219 413 219 463 m 100 -206 l 100 -108 l 238 -108 l 238 -146 q 222 -242 238 -201 q 179 -318 207 -282 l 115 -318 q 146 -265 135 -292 q 157 -206 157 -237 l 100 -206 z "},"š":{"ha":715,"x_min":46,"x_max":667,"o":"m 188 549 q 213 481 188 504 q 282 444 239 457 q 376 424 325 432 q 478 406 428 417 q 572 373 529 394 q 641 313 615 351 q 667 208 667 274 q 629 90 667 140 q 525 11 592 39 q 371 -17 458 -17 q 153 47 240 -17 q 46 240 67 110 l 168 240 q 235 122 181 164 q 375 81 290 81 q 501 115 458 81 q 544 200 544 149 q 519 267 544 243 q 451 302 493 290 q 358 322 408 314 q 257 342 307 331 q 165 374 207 353 q 97 435 122 396 q 71 540 71 475 q 100 646 71 597 q 189 725 129 694 q 339 756 249 756 q 483 729 419 756 q 588 646 546 703 q 640 497 629 589 l 518 497 q 457 619 504 583 q 332 656 410 656 q 226 625 264 656 q 188 549 188 594 m 458 1000 l 572 1000 l 433 836 l 283 836 l 146 1000 l 260 1000 l 360 896 l 458 1000 z "},"ś":{"ha":715,"x_min":46,"x_max":667,"o":"m 188 549 q 213 481 188 504 q 282 444 239 457 q 376 424 325 432 q 478 406 428 417 q 572 373 529 394 q 641 313 615 351 q 667 208 667 274 q 629 90 667 140 q 525 11 592 39 q 371 -17 458 -17 q 153 47 240 -17 q 46 240 67 110 l 168 240 q 235 122 181 164 q 375 81 290 81 q 501 115 458 81 q 544 200 544 149 q 519 267 544 243 q 451 302 493 290 q 358 322 408 314 q 257 342 307 331 q 165 374 207 353 q 97 435 122 396 q 71 540 71 475 q 100 646 71 597 q 189 725 129 694 q 339 756 249 756 q 483 729 419 756 q 588 646 546 703 q 640 497 629 589 l 518 497 q 457 619 504 583 q 332 656 410 656 q 226 625 264 656 q 188 549 188 594 m 292 836 l 422 1000 l 578 1000 l 411 836 l 292 836 z "},"ş":{"ha":715,"x_min":46,"x_max":667,"o":"m 188 549 q 213 481 188 504 q 282 444 239 457 q 376 424 325 432 q 478 406 428 417 q 572 373 529 394 q 641 313 615 351 q 667 208 667 274 q 629 90 667 140 q 525 11 592 39 q 371 -17 458 -17 q 153 47 240 -17 q 46 240 67 110 l 168 240 q 235 122 181 164 q 375 81 290 81 q 501 115 458 81 q 544 200 544 149 q 519 267 544 243 q 451 302 493 290 q 358 322 408 314 q 257 342 307 331 q 165 374 207 353 q 97 435 122 396 q 71 540 71 475 q 100 646 71 597 q 189 725 129 694 q 339 756 249 756 q 483 729 419 756 q 588 646 546 703 q 640 497 629 589 l 518 497 q 457 619 504 583 q 332 656 410 656 q 226 625 264 656 q 188 549 188 594 m 390 -185 q 364 -147 390 -158 q 272 -129 338 -135 l 342 0 l 418 0 l 375 -78 q 461 -110 432 -85 q 490 -178 490 -136 q 422 -273 490 -242 q 219 -307 354 -304 l 219 -244 q 347 -227 304 -242 q 390 -185 390 -212 z "},"ŝ":{"ha":715,"x_min":46,"x_max":667,"o":"m 188 549 q 213 481 188 504 q 282 444 239 457 q 376 424 325 432 q 478 406 428 417 q 572 373 529 394 q 641 313 615 351 q 667 208 667 274 q 629 90 667 140 q 525 11 592 39 q 371 -17 458 -17 q 153 47 240 -17 q 46 240 67 110 l 168 240 q 235 122 181 164 q 375 81 290 81 q 501 115 458 81 q 544 200 544 149 q 519 267 544 243 q 451 302 493 290 q 358 322 408 314 q 257 342 307 331 q 165 374 207 353 q 97 435 122 396 q 71 540 71 475 q 100 646 71 597 q 189 725 129 694 q 339 756 249 756 q 483 729 419 756 q 588 646 546 703 q 640 497 629 589 l 518 497 q 457 619 504 583 q 332 656 410 656 q 226 625 264 656 q 188 549 188 594 m 458 836 l 360 939 l 260 836 l 146 836 l 283 1000 l 433 1000 l 572 836 l 458 836 z "},"ș":{"ha":715,"x_min":46,"x_max":667,"o":"m 188 549 q 213 481 188 504 q 282 444 239 457 q 376 424 325 432 q 478 406 428 417 q 572 373 529 394 q 641 313 615 351 q 667 208 667 274 q 629 90 667 140 q 525 11 592 39 q 371 -17 458 -17 q 153 47 240 -17 q 46 240 67 110 l 168 240 q 235 122 181 164 q 375 81 290 81 q 501 115 458 81 q 544 200 544 149 q 519 267 544 243 q 451 302 493 290 q 358 322 408 314 q 257 342 307 331 q 165 374 207 353 q 97 435 122 396 q 71 540 71 475 q 100 646 71 597 q 189 725 129 694 q 339 756 249 756 q 483 729 419 756 q 588 646 546 703 q 640 497 629 589 l 518 497 q 457 619 504 583 q 332 656 410 656 q 226 625 264 656 q 188 549 188 594 m 292 -206 l 292 -108 l 429 -108 l 429 -146 q 413 -242 429 -201 q 371 -318 397 -282 l 307 -318 q 337 -265 325 -292 q 349 -206 349 -237 l 292 -206 z "},"ŧ":{"ha":418,"x_min":11,"x_max":399,"o":"m 114 213 l 114 907 l 236 907 l 236 213 q 263 114 236 146 q 371 82 290 82 l 396 82 l 396 -6 q 365 -14 386 -11 q 317 -17 343 -17 q 164 40 214 -17 q 114 213 114 96 m 31 332 l 31 421 l 364 421 l 364 332 l 31 332 m 11 640 l 11 738 l 399 738 l 399 640 l 11 640 z "},"ť":{"ha":418,"x_min":11,"x_max":414,"o":"m 114 213 l 114 907 l 236 907 l 236 213 q 263 114 236 146 q 371 82 290 82 l 396 82 l 396 -6 q 365 -14 386 -11 q 317 -17 343 -17 q 164 40 214 -17 q 114 213 114 96 m 11 640 l 11 738 l 399 738 l 399 640 l 11 640 m 278 903 l 278 1000 l 414 1000 l 414 963 q 399 867 414 907 q 357 790 383 826 l 293 790 q 325 846 317 821 q 333 903 333 871 l 278 903 z "},"ţ":{"ha":418,"x_min":11,"x_max":399,"o":"m 114 213 l 114 907 l 236 907 l 236 213 q 263 114 236 146 q 371 82 290 82 l 396 82 l 396 -6 q 365 -14 386 -11 q 317 -17 343 -17 q 164 40 214 -17 q 114 213 114 96 m 11 640 l 11 738 l 399 738 l 399 640 l 11 640 m 161 -206 l 161 -108 l 299 -108 l 299 -146 q 283 -242 299 -201 q 240 -318 268 -282 l 176 -318 q 207 -265 196 -292 q 218 -206 218 -237 l 161 -206 z "},"ț":{"ha":418,"x_min":11,"x_max":399,"o":"m 114 213 l 114 907 l 236 907 l 236 213 q 263 114 236 146 q 371 82 290 82 l 396 82 l 396 -6 q 365 -14 386 -11 q 317 -17 343 -17 q 164 40 214 -17 q 114 213 114 96 m 11 640 l 11 738 l 399 738 l 399 640 l 11 640 m 161 -206 l 161 -108 l 299 -108 l 299 -146 q 283 -242 299 -201 q 240 -318 268 -282 l 176 -318 q 207 -265 196 -292 q 218 -206 218 -237 l 161 -206 z "},"ú":{"ha":786,"x_min":97,"x_max":689,"o":"m 689 738 l 689 0 l 567 0 l 567 738 l 689 738 m 567 301 l 625 301 q 582 125 619 196 q 483 19 544 54 q 343 -17 422 -17 q 211 13 267 -17 q 126 101 156 43 q 97 244 97 160 l 97 738 l 219 738 l 219 269 q 236 173 219 214 q 288 110 253 132 q 376 88 322 88 q 456 106 421 88 q 516 155 492 124 q 553 224 540 186 q 567 301 567 263 m 326 836 l 457 1000 l 613 1000 l 446 836 l 326 836 z "},"û":{"ha":786,"x_min":97,"x_max":689,"o":"m 689 738 l 689 0 l 567 0 l 567 738 l 689 738 m 567 301 l 625 301 q 582 125 619 196 q 483 19 544 54 q 343 -17 422 -17 q 211 13 267 -17 q 126 101 156 43 q 97 244 97 160 l 97 738 l 219 738 l 219 269 q 236 173 219 214 q 288 110 253 132 q 376 88 322 88 q 456 106 421 88 q 516 155 492 124 q 553 224 540 186 q 567 301 567 263 m 493 836 l 394 939 l 294 836 l 181 836 l 318 1000 l 468 1000 l 607 836 l 493 836 z "},"ü":{"ha":786,"x_min":97,"x_max":689,"o":"m 689 738 l 689 0 l 567 0 l 567 738 l 689 738 m 567 301 l 625 301 q 582 125 619 196 q 483 19 544 54 q 343 -17 422 -17 q 211 13 267 -17 q 126 101 156 43 q 97 244 97 160 l 97 738 l 219 738 l 219 269 q 236 173 219 214 q 288 110 253 132 q 376 88 322 88 q 456 106 421 88 q 516 155 492 124 q 553 224 540 186 q 567 301 567 263 m 258 836 l 258 1000 l 365 1000 l 365 836 l 258 836 m 421 836 l 421 1000 l 528 1000 l 528 836 l 421 836 z "},"ù":{"ha":786,"x_min":97,"x_max":689,"o":"m 689 738 l 689 0 l 567 0 l 567 738 l 689 738 m 567 301 l 625 301 q 582 125 619 196 q 483 19 544 54 q 343 -17 422 -17 q 211 13 267 -17 q 126 101 156 43 q 97 244 97 160 l 97 738 l 219 738 l 219 269 q 236 173 219 214 q 288 110 253 132 q 376 88 322 88 q 456 106 421 88 q 516 155 492 124 q 553 224 540 186 q 567 301 567 263 m 460 836 l 340 836 l 174 1000 l 329 1000 l 460 836 z "},"ŭ":{"ha":786,"x_min":97,"x_max":689,"o":"m 689 738 l 689 0 l 567 0 l 567 738 l 689 738 m 567 301 l 625 301 q 582 125 619 196 q 483 19 544 54 q 343 -17 422 -17 q 211 13 267 -17 q 126 101 156 43 q 97 244 97 160 l 97 738 l 219 738 l 219 269 q 236 173 219 214 q 288 110 253 132 q 376 88 322 88 q 456 106 421 88 q 516 155 492 124 q 553 224 540 186 q 567 301 567 263 m 192 1000 l 283 1000 q 321 936 289 956 q 394 917 353 917 q 467 936 436 917 q 504 1000 499 956 l 594 1000 q 555 903 585 939 q 483 851 525 867 q 394 836 440 836 q 306 851 349 836 q 232 903 263 867 q 192 1000 201 939 z "},"ű":{"ha":786,"x_min":97,"x_max":689,"o":"m 689 738 l 689 0 l 567 0 l 567 738 l 689 738 m 567 301 l 625 301 q 582 125 619 196 q 483 19 544 54 q 343 -17 422 -17 q 211 13 267 -17 q 126 101 156 43 q 97 244 97 160 l 97 738 l 219 738 l 219 269 q 236 173 219 214 q 288 110 253 132 q 376 88 322 88 q 456 106 421 88 q 516 155 492 124 q 553 224 540 186 q 567 301 567 263 m 246 836 l 346 1000 l 464 1000 l 339 836 l 246 836 m 442 836 l 542 1000 l 660 1000 l 533 836 l 442 836 z "},"ū":{"ha":786,"x_min":97,"x_max":689,"o":"m 689 738 l 689 0 l 567 0 l 567 738 l 689 738 m 567 301 l 625 301 q 582 125 619 196 q 483 19 544 54 q 343 -17 422 -17 q 211 13 267 -17 q 126 101 156 43 q 97 244 97 160 l 97 738 l 219 738 l 219 269 q 236 173 219 214 q 288 110 253 132 q 376 88 322 88 q 456 106 421 88 q 516 155 492 124 q 553 224 540 186 q 567 301 567 263 m 226 871 l 226 967 l 560 967 l 560 871 l 226 871 z "},"ų":{"ha":786,"x_min":97,"x_max":718,"o":"m 689 738 l 689 0 l 567 0 l 567 738 l 689 738 m 567 301 l 618 301 q 575 130 611 201 q 480 21 539 58 q 343 -17 421 -17 q 211 13 267 -17 q 126 101 156 43 q 97 244 97 160 l 97 738 l 219 738 l 219 269 q 236 173 219 214 q 288 110 253 132 q 376 88 322 88 q 456 106 421 88 q 516 155 492 124 q 553 224 540 186 q 567 301 567 263 m 536 -153 q 563 -221 536 -194 q 642 -247 590 -247 q 688 -242 671 -247 q 718 -232 706 -237 l 718 -307 q 669 -320 692 -317 q 618 -324 647 -324 q 527 -306 568 -324 q 462 -256 486 -289 q 438 -178 438 -224 q 488 -62 438 -121 q 629 49 539 -3 l 661 15 q 585 -48 613 -19 q 547 -102 557 -76 q 536 -153 536 -128 z "},"ů":{"ha":786,"x_min":97,"x_max":689,"o":"m 689 738 l 689 0 l 567 0 l 567 738 l 689 738 m 567 301 l 625 301 q 582 125 619 196 q 483 19 544 54 q 343 -17 422 -17 q 211 13 267 -17 q 126 101 156 43 q 97 244 97 160 l 97 738 l 219 738 l 219 269 q 236 173 219 214 q 288 110 253 132 q 376 88 322 88 q 456 106 421 88 q 516 155 492 124 q 553 224 540 186 q 567 301 567 263 m 393 836 q 293 876 333 836 q 253 975 253 915 q 293 1076 253 1036 q 393 1117 333 1117 q 494 1076 454 1117 q 533 975 533 1036 q 494 876 533 915 q 393 836 454 836 m 393 904 q 441 924 422 904 q 460 975 460 944 q 441 1027 460 1007 q 393 1047 422 1047 q 345 1027 364 1047 q 326 975 326 1007 q 345 924 326 944 q 393 904 364 904 z "},"ũ":{"ha":786,"x_min":97,"x_max":689,"o":"m 689 738 l 689 0 l 567 0 l 567 738 l 689 738 m 567 301 l 625 301 q 582 125 619 196 q 483 19 544 54 q 343 -17 422 -17 q 211 13 267 -17 q 126 101 156 43 q 97 244 97 160 l 97 738 l 219 738 l 219 269 q 236 173 219 214 q 288 110 253 132 q 376 88 322 88 q 456 106 421 88 q 516 155 492 124 q 553 224 540 186 q 567 301 567 263 m 254 836 l 181 836 q 199 937 181 901 q 244 986 217 972 q 296 1000 271 1000 q 360 988 333 1000 q 408 958 388 975 q 447 928 429 940 q 485 915 465 915 q 506 922 496 915 q 524 947 517 929 q 532 1000 531 965 l 606 1000 q 588 899 606 935 q 543 849 569 863 q 490 836 517 836 q 426 849 453 836 q 379 878 400 861 q 340 907 358 894 q 301 919 321 919 q 280 913 290 919 q 263 888 269 906 q 254 836 256 869 z "},"ẃ":{"ha":1125,"x_min":14,"x_max":1111,"o":"m 736 0 l 576 551 l 557 653 l 564 653 l 543 551 l 385 0 l 233 0 l 14 738 l 146 738 l 297 165 l 319 72 l 311 72 l 333 165 l 501 738 l 633 738 l 801 165 l 822 74 l 814 74 l 833 165 l 985 738 l 1111 738 l 890 0 l 736 0 m 496 836 l 626 1000 l 782 1000 l 615 836 l 496 836 z "},"ŵ":{"ha":1125,"x_min":14,"x_max":1111,"o":"m 736 0 l 576 551 l 557 653 l 564 653 l 543 551 l 385 0 l 233 0 l 14 738 l 146 738 l 297 165 l 319 72 l 311 72 l 333 165 l 501 738 l 633 738 l 801 165 l 822 74 l 814 74 l 833 165 l 985 738 l 1111 738 l 890 0 l 736 0 m 663 836 l 564 939 l 464 836 l 350 836 l 488 1000 l 638 1000 l 776 836 l 663 836 z "},"ẅ":{"ha":1125,"x_min":14,"x_max":1111,"o":"m 736 0 l 576 551 l 557 653 l 564 653 l 543 551 l 385 0 l 233 0 l 14 738 l 146 738 l 297 165 l 319 72 l 311 72 l 333 165 l 501 738 l 633 738 l 801 165 l 822 74 l 814 74 l 833 165 l 985 738 l 1111 738 l 890 0 l 736 0 m 428 836 l 428 1000 l 535 1000 l 535 836 l 428 836 m 590 836 l 590 1000 l 697 1000 l 697 836 l 590 836 z "},"ẁ":{"ha":1125,"x_min":14,"x_max":1111,"o":"m 736 0 l 576 551 l 557 653 l 564 653 l 543 551 l 385 0 l 233 0 l 14 738 l 146 738 l 297 165 l 319 72 l 311 72 l 333 165 l 501 738 l 633 738 l 801 165 l 822 74 l 814 74 l 833 165 l 985 738 l 1111 738 l 890 0 l 736 0 m 629 836 l 510 836 l 343 1000 l 499 1000 l 629 836 z "},"ý":{"ha":732,"x_min":7,"x_max":725,"o":"m 131 -322 q 90 -318 110 -322 q 58 -311 69 -314 l 58 -217 l 96 -217 q 153 -211 129 -217 q 196 -187 176 -206 q 236 -133 215 -169 q 283 -33 257 -96 l 308 24 l 7 738 l 139 738 l 339 250 l 381 126 l 364 126 l 406 250 l 600 738 l 725 738 l 381 -97 q 328 -208 353 -164 q 276 -276 303 -251 q 214 -312 249 -301 q 131 -322 179 -322 m 293 836 l 424 1000 l 579 1000 l 413 836 l 293 836 z "},"ÿ":{"ha":732,"x_min":7,"x_max":725,"o":"m 131 -322 q 90 -318 110 -322 q 58 -311 69 -314 l 58 -217 l 96 -217 q 153 -211 129 -217 q 196 -187 176 -206 q 236 -133 215 -169 q 283 -33 257 -96 l 308 24 l 7 738 l 139 738 l 339 250 l 381 126 l 364 126 l 406 250 l 600 738 l 725 738 l 381 -97 q 328 -208 353 -164 q 276 -276 303 -251 q 214 -312 249 -301 q 131 -322 179 -322 m 225 836 l 225 1000 l 332 1000 l 332 836 l 225 836 m 388 836 l 388 1000 l 494 1000 l 494 836 l 388 836 z "},"ŷ":{"ha":732,"x_min":7,"x_max":725,"o":"m 131 -322 q 90 -318 110 -322 q 58 -311 69 -314 l 58 -217 l 96 -217 q 153 -211 129 -217 q 196 -187 176 -206 q 236 -133 215 -169 q 283 -33 257 -96 l 308 24 l 7 738 l 139 738 l 339 250 l 381 126 l 364 126 l 406 250 l 600 738 l 725 738 l 381 -97 q 328 -208 353 -164 q 276 -276 303 -251 q 214 -312 249 -301 q 131 -322 179 -322 m 460 836 l 361 939 l 261 836 l 147 836 l 285 1000 l 435 1000 l 574 836 l 460 836 z "},"ỳ":{"ha":732,"x_min":7,"x_max":725,"o":"m 131 -322 q 90 -318 110 -322 q 58 -311 69 -314 l 58 -217 l 96 -217 q 153 -211 129 -217 q 196 -187 176 -206 q 236 -133 215 -169 q 283 -33 257 -96 l 308 24 l 7 738 l 139 738 l 339 250 l 381 126 l 364 126 l 406 250 l 600 738 l 725 738 l 381 -97 q 328 -208 353 -164 q 276 -276 303 -251 q 214 -312 249 -301 q 131 -322 179 -322 m 426 836 l 307 836 l 140 1000 l 296 1000 l 426 836 z "},"ž":{"ha":692,"x_min":42,"x_max":650,"o":"m 58 640 l 58 738 l 625 738 l 625 640 l 58 640 m 42 0 l 42 96 l 650 96 l 650 0 l 42 0 m 42 96 l 479 640 l 625 640 l 188 96 l 42 96 m 446 1000 l 560 1000 l 421 836 l 271 836 l 133 1000 l 247 1000 l 347 896 l 446 1000 z "},"ź":{"ha":692,"x_min":42,"x_max":650,"o":"m 58 640 l 58 738 l 625 738 l 625 640 l 58 640 m 42 0 l 42 96 l 650 96 l 650 0 l 42 0 m 42 96 l 479 640 l 625 640 l 188 96 l 42 96 m 279 836 l 410 1000 l 565 1000 l 399 836 l 279 836 z "},"ż":{"ha":692,"x_min":42,"x_max":650,"o":"m 58 640 l 58 738 l 625 738 l 625 640 l 58 640 m 42 0 l 42 96 l 650 96 l 650 0 l 42 0 m 42 96 l 479 640 l 625 640 l 188 96 l 42 96 m 285 836 l 285 1000 l 407 1000 l 407 836 l 285 836 z "},"´":{"ha":794,"x_min":331,"x_max":617,"o":"m 331 836 l 461 1000 l 617 1000 l 450 836 l 331 836 z "},"`":{"ha":794,"x_min":178,"x_max":464,"o":"m 464 836 l 344 836 l 178 1000 l 333 1000 l 464 836 z "},"ˆ":{"ha":794,"x_min":185,"x_max":611,"o":"m 497 836 l 399 939 l 299 836 l 185 836 l 322 1000 l 472 1000 l 611 836 l 497 836 z "},"ˇ":{"ha":794,"x_min":185,"x_max":611,"o":"m 497 1000 l 611 1000 l 472 836 l 322 836 l 185 1000 l 299 1000 l 399 896 l 497 1000 z "},"˜":{"ha":794,"x_min":185,"x_max":610,"o":"m 258 836 l 185 836 q 203 937 185 901 q 248 986 221 972 q 300 1000 275 1000 q 365 988 338 1000 q 413 958 392 975 q 451 928 433 940 q 489 915 469 915 q 510 922 500 915 q 528 947 521 929 q 536 1000 535 965 l 610 1000 q 592 899 610 935 q 547 849 574 863 q 494 836 521 836 q 431 849 457 836 q 383 878 404 861 q 344 907 363 894 q 306 919 325 919 q 284 913 294 919 q 267 888 274 906 q 258 836 260 869 z "},"¨":{"ha":794,"x_min":263,"x_max":532,"o":"m 263 836 l 263 1000 l 369 1000 l 369 836 l 263 836 m 425 836 l 425 1000 l 532 1000 l 532 836 l 425 836 z "},"˚":{"ha":794,"x_min":257,"x_max":538,"o":"m 397 836 q 297 876 338 836 q 257 975 257 915 q 297 1076 257 1036 q 397 1117 338 1117 q 498 1076 458 1117 q 538 975 538 1036 q 498 876 538 915 q 397 836 458 836 m 397 904 q 445 924 426 904 q 464 975 464 944 q 445 1027 464 1007 q 397 1047 426 1047 q 349 1027 368 1047 q 331 975 331 1007 q 349 924 331 944 q 397 904 368 904 z "},"¸":{"ha":794,"x_min":232,"x_max":503,"o":"m 403 -185 q 376 -147 403 -158 q 285 -129 350 -136 l 354 0 l 431 0 l 388 -78 q 474 -110 444 -85 q 503 -178 503 -136 q 435 -273 503 -242 q 232 -307 367 -304 l 232 -244 q 360 -227 317 -242 q 403 -185 403 -212 z "},"˝":{"ha":794,"x_min":250,"x_max":664,"o":"m 250 836 l 350 1000 l 468 1000 l 343 836 l 250 836 m 446 836 l 546 1000 l 664 1000 l 538 836 l 446 836 z "},"˘":{"ha":794,"x_min":196,"x_max":599,"o":"m 196 1000 l 288 1000 q 325 936 293 956 q 399 917 357 917 q 472 936 440 917 q 508 1000 503 956 l 599 1000 q 559 903 589 939 q 487 851 529 867 q 399 836 444 836 q 310 851 353 836 q 236 903 267 867 q 196 1000 206 939 z "},"¯":{"ha":794,"x_min":231,"x_max":564,"o":"m 231 871 l 231 967 l 564 967 l 564 871 l 231 871 z "},"˙":{"ha":794,"x_min":336,"x_max":458,"o":"m 336 836 l 336 1000 l 458 1000 l 458 836 l 336 836 z "},"·":{"ha":794,"x_min":336,"x_max":458,"o":"m 336 340 l 336 503 l 458 503 l 458 340 l 336 340 z "},"˛":{"ha":794,"x_min":215,"x_max":496,"o":"m 314 -153 q 341 -221 314 -194 q 419 -247 368 -247 q 466 -242 449 -247 q 496 -232 483 -237 l 496 -307 q 447 -320 469 -317 q 396 -324 425 -324 q 305 -306 346 -324 q 240 -256 264 -289 q 215 -178 215 -224 q 266 -62 215 -121 q 407 49 317 -3 l 439 15 q 363 -48 390 -19 q 324 -102 335 -76 q 314 -153 314 -128 z "},"̦":{"ha":794,"x_min":331,"x_max":468,"o":"m 331 -206 l 331 -108 l 468 -108 l 468 -146 q 453 -242 468 -201 q 410 -318 438 -282 l 346 -318 q 376 -265 365 -292 q 388 -206 388 -237 l 331 -206 z "},"":{"ha":794,"x_min":343,"x_max":479,"o":"m 343 903 l 343 1000 l 479 1000 l 479 963 q 464 867 479 907 q 422 790 449 826 l 358 790 q 390 846 382 821 q 399 903 399 871 l 343 903 z "},"":{"ha":794,"x_min":331,"x_max":468,"o":"m 468 933 l 468 836 l 331 836 l 331 874 q 347 970 331 931 q 389 1044 363 1010 l 453 1044 q 424 992 435 1018 q 413 933 413 965 l 468 933 z "},".":{"ha":317,"x_min":83,"x_max":233,"o":"m 83 0 l 83 150 l 233 150 l 233 0 l 83 0 z "},",":{"ha":317,"x_min":83,"x_max":233,"o":"m 83 0 l 83 150 l 233 150 l 233 69 q 226 -45 233 6 q 204 -140 219 -96 q 164 -229 189 -183 l 94 -229 q 122 -151 111 -187 q 139 -79 133 -115 q 144 0 144 -43 l 83 0 z "},":":{"ha":317,"x_min":83,"x_max":233,"o":"m 83 0 l 83 150 l 233 150 l 233 0 l 83 0 m 83 521 l 83 672 l 233 672 l 233 521 l 83 521 z "},";":{"ha":317,"x_min":83,"x_max":233,"o":"m 83 521 l 83 672 l 233 672 l 233 521 l 83 521 m 83 0 l 83 150 l 233 150 l 233 69 q 226 -45 233 6 q 204 -140 219 -96 q 164 -229 189 -183 l 94 -229 q 122 -151 111 -187 q 139 -79 133 -115 q 144 0 144 -43 l 83 0 z "},"…":{"ha":990,"x_min":83,"x_max":907,"o":"m 83 0 l 83 150 l 233 150 l 233 0 l 83 0 m 419 0 l 419 150 l 569 150 l 569 0 l 419 0 m 756 0 l 756 150 l 907 150 l 907 0 l 756 0 z "},"?":{"ha":725,"x_min":43,"x_max":658,"o":"m 246 0 l 246 150 l 396 150 l 396 0 l 246 0 m 658 707 q 638 606 658 646 q 587 537 618 565 q 520 483 556 508 q 453 426 485 457 q 402 349 422 394 q 382 232 382 303 l 260 232 q 280 366 260 313 q 331 456 300 419 q 398 518 363 492 q 465 569 433 544 q 516 626 496 594 q 536 706 536 658 q 493 821 536 779 q 364 863 450 863 q 224 817 272 863 q 165 685 176 771 l 43 685 q 142 887 61 813 q 365 961 224 961 q 528 927 463 961 q 626 836 593 893 q 658 707 658 779 z "},"!":{"ha":438,"x_min":143,"x_max":294,"o":"m 143 0 l 143 150 l 294 150 l 294 0 l 143 0 m 158 232 l 158 944 l 279 944 l 279 232 l 158 232 z "},"¿":{"ha":725,"x_min":67,"x_max":682,"o":"m 479 672 l 479 522 l 329 522 l 329 672 l 479 672 m 67 -35 q 87 67 67 28 q 138 135 107 107 q 205 190 169 164 q 272 247 240 215 q 323 324 303 278 q 343 440 343 369 l 465 440 q 445 306 465 360 q 394 217 425 253 q 327 154 363 181 q 260 103 292 128 q 209 46 229 78 q 189 -33 189 14 q 233 -148 189 -106 q 361 -190 276 -190 q 501 -144 453 -190 q 560 -12 549 -97 l 682 -12 q 583 -215 664 -140 q 360 -289 501 -289 q 197 -255 263 -289 q 99 -163 132 -221 q 67 -35 67 -106 z "},"¡":{"ha":438,"x_min":143,"x_max":294,"o":"m 294 672 l 294 522 l 143 522 l 143 672 l 294 672 m 279 440 l 279 -272 l 158 -272 l 158 440 l 279 440 z "},"(":{"ha":444,"x_min":88,"x_max":415,"o":"m 294 -251 q 140 64 193 -92 q 88 375 88 219 q 140 685 88 531 q 294 1000 193 840 l 415 1000 q 268 682 318 836 q 218 375 218 528 q 268 67 218 221 q 415 -251 318 -87 l 294 -251 z "},")":{"ha":444,"x_min":29,"x_max":357,"o":"m 150 -251 l 29 -251 q 177 67 128 -87 q 226 375 226 221 q 177 682 226 528 q 29 1000 128 836 l 150 1000 q 305 685 253 840 q 357 375 357 531 q 305 64 357 219 q 150 -251 253 -92 z "},"{":{"ha":476,"x_min":35,"x_max":449,"o":"m 169 375 q 267 324 239 365 q 296 192 296 282 l 296 -54 q 319 -138 296 -112 q 399 -164 342 -164 l 449 -164 l 449 -251 l 343 -251 q 214 -207 254 -251 q 174 -76 174 -162 l 174 186 q 163 276 174 246 q 123 319 153 307 q 35 331 93 331 l 35 418 q 123 430 93 418 q 163 473 153 442 q 174 563 174 504 l 174 825 q 214 956 174 911 q 343 1000 254 1000 l 449 1000 l 449 913 l 399 913 q 319 887 342 913 q 296 803 296 861 l 296 557 q 267 426 296 468 q 169 375 239 385 z "},"}":{"ha":476,"x_min":28,"x_max":440,"o":"m 307 375 q 208 426 236 385 q 181 557 181 468 l 181 803 q 158 887 181 861 q 76 913 135 913 l 28 913 l 28 1000 l 132 1000 q 261 956 221 1000 q 301 825 301 911 l 301 563 q 312 473 301 504 q 353 430 322 442 q 440 418 383 418 l 440 331 q 353 319 383 331 q 312 276 322 307 q 301 186 301 246 l 301 -76 q 261 -207 301 -162 q 132 -251 221 -251 l 28 -251 l 28 -164 l 76 -164 q 158 -138 135 -164 q 181 -54 181 -112 l 181 192 q 208 324 181 282 q 307 375 236 365 z "},"[":{"ha":467,"x_min":150,"x_max":439,"o":"m 150 -251 l 150 1000 l 272 1000 l 272 -251 l 150 -251 m 238 913 l 238 1000 l 439 1000 l 439 913 l 238 913 m 238 -251 l 238 -164 l 439 -164 l 439 -251 l 238 -251 z "},"]":{"ha":467,"x_min":28,"x_max":315,"o":"m 315 -251 l 194 -251 l 194 1000 l 315 1000 l 315 -251 m 229 913 l 28 913 l 28 1000 l 229 1000 l 229 913 m 229 -251 l 28 -251 l 28 -164 l 229 -164 l 229 -251 z "},"/":{"ha":469,"x_min":0,"x_max":469,"o":"m 0 0 l 347 944 l 469 944 l 122 0 l 0 0 z "},"\\":{"ha":469,"x_min":0,"x_max":469,"o":"m 469 0 l 347 0 l 0 944 l 122 944 l 469 0 z "},"_":{"ha":606,"x_min":43,"x_max":563,"o":"m 43 -110 l 43 -17 l 563 -17 l 563 -110 l 43 -110 z "},"-":{"ha":560,"x_min":94,"x_max":464,"o":"m 94 326 l 94 431 l 464 431 l 464 326 l 94 326 z "},"­":{"ha":560,"x_min":0,"x_max":0,"o":""},"–":{"ha":694,"x_min":94,"x_max":599,"o":"m 94 326 l 94 431 l 599 431 l 599 326 l 94 326 z "},"—":{"ha":1389,"x_min":94,"x_max":1293,"o":"m 94 326 l 94 431 l 1293 431 l 1293 326 l 94 326 z "},"¦":{"ha":340,"x_min":108,"x_max":231,"o":"m 108 493 l 108 1000 l 231 1000 l 231 493 l 108 493 m 108 -307 l 108 200 l 231 200 l 231 -307 l 108 -307 z "},"|":{"ha":340,"x_min":108,"x_max":231,"o":"m 108 -307 l 108 1000 l 231 1000 l 231 -307 l 108 -307 z "},"«":{"ha":953,"x_min":94,"x_max":833,"o":"m 439 54 l 94 321 l 94 431 l 439 697 l 439 558 l 206 376 l 439 193 l 439 54 m 833 54 l 489 321 l 489 431 l 833 697 l 833 558 l 600 376 l 833 193 l 833 54 z "},"»":{"ha":953,"x_min":119,"x_max":858,"o":"m 514 54 l 514 193 l 747 376 l 514 558 l 514 697 l 858 431 l 858 321 l 514 54 m 119 54 l 119 193 l 353 376 l 119 558 l 119 697 l 464 431 l 464 321 l 119 54 z "},"‹":{"ha":560,"x_min":94,"x_max":439,"o":"m 439 54 l 94 321 l 94 431 l 439 697 l 439 558 l 206 376 l 439 193 l 439 54 z "},"›":{"ha":560,"x_min":119,"x_max":464,"o":"m 119 54 l 119 193 l 353 376 l 119 558 l 119 697 l 464 431 l 464 321 l 119 54 z "},"‚":{"ha":317,"x_min":83,"x_max":233,"o":"m 83 0 l 83 146 l 233 146 l 233 51 q 218 -74 233 -24 q 174 -176 203 -124 l 103 -176 q 124 -115 115 -143 q 139 -60 133 -87 q 144 0 144 -32 l 83 0 z "},"„":{"ha":558,"x_min":83,"x_max":475,"o":"m 83 0 l 83 146 l 233 146 l 233 51 q 218 -74 233 -24 q 174 -176 203 -124 l 103 -176 q 124 -115 115 -143 q 139 -60 133 -87 q 144 0 144 -32 l 83 0 m 324 0 l 324 146 l 475 146 l 475 51 q 458 -74 475 -24 q 414 -176 442 -124 l 343 -176 q 366 -115 357 -143 q 380 -60 375 -87 q 385 0 385 -32 l 324 0 z "},"‘":{"ha":317,"x_min":83,"x_max":233,"o":"m 233 765 l 233 619 l 83 619 l 83 715 q 99 840 83 789 q 143 944 115 890 l 214 944 q 192 883 201 911 q 178 827 183 856 q 172 765 172 799 l 233 765 z "},"“":{"ha":558,"x_min":83,"x_max":475,"o":"m 475 765 l 475 619 l 324 619 l 324 715 q 339 840 324 789 q 385 944 354 890 l 456 944 q 433 883 443 911 q 418 827 424 856 q 413 765 413 799 l 475 765 m 233 765 l 233 619 l 83 619 l 83 715 q 99 840 83 789 q 143 944 115 890 l 214 944 q 192 883 201 911 q 178 827 183 856 q 172 765 172 799 l 233 765 z "},"’":{"ha":317,"x_min":83,"x_max":233,"o":"m 83 797 l 83 944 l 233 944 l 233 849 q 218 723 233 774 q 174 619 203 672 l 103 619 q 126 681 117 653 q 140 736 135 708 q 144 797 144 764 l 83 797 z "},"”":{"ha":558,"x_min":83,"x_max":475,"o":"m 83 797 l 83 944 l 233 944 l 233 849 q 218 723 233 774 q 174 619 203 672 l 103 619 q 124 681 115 653 q 139 736 133 708 q 144 797 144 764 l 83 797 m 324 797 l 324 944 l 475 944 l 475 849 q 458 723 475 774 q 414 619 442 672 l 343 619 q 366 681 357 653 q 380 736 375 708 q 385 797 385 764 l 324 797 z "},"'":{"ha":303,"x_min":85,"x_max":218,"o":"m 107 619 l 85 944 l 218 944 l 194 619 l 107 619 z "},"\"":{"ha":535,"x_min":85,"x_max":449,"o":"m 107 619 l 85 944 l 218 944 l 194 619 l 107 619 m 339 619 l 315 944 l 449 944 l 426 619 l 339 619 z "},"•":{"ha":597,"x_min":108,"x_max":489,"o":"m 299 197 q 203 223 247 197 q 134 292 160 249 q 108 388 108 335 q 134 483 108 440 q 203 551 160 525 q 299 576 247 576 q 394 551 351 576 q 463 483 438 525 q 489 388 489 440 q 463 292 489 335 q 394 223 438 249 q 299 197 351 197 z "},"&":{"ha":1032,"x_min":86,"x_max":1008,"o":"m 676 751 q 651 647 676 689 q 585 578 626 606 q 494 529 543 550 q 394 488 444 508 q 303 439 344 467 q 236 369 261 411 q 211 265 211 328 q 236 174 211 214 q 310 112 261 135 q 429 89 360 89 q 563 116 503 89 q 667 195 624 143 q 733 322 710 247 q 757 493 757 397 l 883 493 q 854 303 883 394 q 767 139 825 211 q 624 25 710 67 q 422 -17 538 -17 q 242 21 318 -17 q 126 122 167 58 q 86 264 86 186 q 112 387 86 336 q 179 472 138 438 q 271 531 221 507 q 371 576 321 556 q 463 619 421 597 q 530 672 504 642 q 556 744 556 701 q 542 798 556 772 q 501 840 528 824 q 438 856 475 856 q 344 824 379 856 q 308 747 308 792 q 326 677 308 708 q 380 609 343 646 q 472 518 417 572 l 1008 0 l 840 0 l 393 426 q 271 551 317 500 q 206 649 225 603 q 186 747 186 694 q 218 859 186 811 q 308 934 250 907 q 439 961 365 961 q 571 931 518 961 q 650 853 624 901 q 676 751 676 806 z "},"¶":{"ha":846,"x_min":57,"x_max":756,"o":"m 756 -251 l 628 -251 l 628 944 l 756 944 l 756 -251 m 544 -251 l 417 -251 l 417 344 l 404 344 q 152 424 247 344 q 57 644 57 503 q 100 805 57 738 q 222 908 143 872 q 406 944 300 944 l 544 944 l 544 -251 m 443 826 l 443 944 l 711 944 l 711 826 l 443 826 z "},"†":{"ha":676,"x_min":43,"x_max":633,"o":"m 276 -274 l 276 967 l 399 967 l 399 -274 l 276 -274 m 43 542 l 43 646 l 633 646 l 633 542 l 43 542 z "},"‡":{"ha":676,"x_min":43,"x_max":633,"o":"m 276 -274 l 276 967 l 399 967 l 399 -274 l 276 -274 m 43 542 l 43 646 l 633 646 l 633 542 l 43 542 m 43 25 l 43 129 l 633 129 l 633 25 l 43 25 z "},"§":{"ha":868,"x_min":74,"x_max":794,"o":"m 653 118 l 578 169 q 653 236 625 200 q 681 322 681 272 q 651 409 681 378 q 574 458 622 440 q 469 485 526 475 q 355 510 413 496 q 249 547 297 524 q 172 614 201 571 q 143 729 143 657 q 174 846 143 793 q 267 930 206 899 q 417 961 328 961 q 622 898 540 961 q 721 701 704 835 l 600 701 q 540 829 588 789 q 415 869 492 869 q 300 833 340 869 q 260 739 260 797 q 289 658 260 688 q 365 614 318 629 q 470 588 413 599 q 585 564 528 578 q 689 524 642 550 q 765 452 736 499 q 794 331 794 406 q 755 208 794 263 q 653 118 715 153 m 214 593 l 281 542 q 211 477 235 515 q 188 390 188 439 q 217 308 188 339 q 297 261 247 278 q 404 232 346 244 q 521 205 463 219 q 628 165 579 190 q 708 95 678 139 q 738 -19 738 51 q 699 -154 738 -99 q 594 -239 661 -210 q 440 -268 526 -268 q 282 -238 351 -268 q 168 -151 213 -208 q 110 -10 124 -93 l 232 -10 q 299 -133 244 -90 q 439 -176 354 -176 q 570 -137 525 -176 q 615 -35 615 -99 q 586 52 615 21 q 508 101 557 83 q 402 130 460 118 q 287 156 344 142 q 181 197 229 171 q 103 268 132 222 q 74 389 74 314 q 110 503 74 449 q 214 593 146 558 z "},"*":{"ha":479,"x_min":35,"x_max":444,"o":"m 206 744 l 190 944 l 289 944 l 275 744 l 206 744 m 229 711 l 35 758 l 65 853 l 251 778 l 229 711 m 268 724 l 163 554 l 83 613 l 213 765 l 268 724 m 251 711 l 229 778 l 414 853 l 444 758 l 251 711 m 213 724 l 268 765 l 397 613 l 318 554 l 213 724 z "},"™":{"ha":1247,"x_min":22,"x_max":1192,"o":"m 204 378 l 204 944 l 317 944 l 317 378 l 204 378 m 22 851 l 22 944 l 499 944 l 499 851 l 22 851 m 569 378 l 569 944 l 675 944 l 682 378 l 569 378 m 1081 378 l 1086 944 l 1192 944 l 1192 378 l 1081 378 m 921 378 l 840 378 l 718 688 l 635 944 l 719 944 l 863 579 l 889 485 l 876 485 l 904 579 l 1046 944 l 1126 944 l 1043 686 l 921 378 z "},"®":{"ha":769,"x_min":56,"x_max":714,"o":"m 385 315 q 215 358 289 315 q 98 473 140 400 q 56 639 56 546 q 98 805 56 732 q 215 919 140 878 q 385 961 289 961 q 555 919 481 961 q 672 806 629 878 q 714 640 714 733 q 672 474 714 547 q 555 358 629 400 q 385 315 481 315 m 385 369 q 522 405 461 369 q 617 501 582 440 q 651 640 651 563 q 617 776 651 717 q 522 872 582 836 q 385 907 461 907 q 248 872 308 907 q 153 776 188 836 q 118 639 118 715 q 153 500 118 561 q 248 404 188 439 q 385 369 308 369 m 247 456 l 247 833 l 324 833 l 324 456 l 247 456 m 401 614 l 303 614 l 303 657 l 392 657 q 444 673 425 657 q 463 715 463 689 q 444 759 463 743 q 393 775 425 775 l 303 775 l 303 833 l 397 833 q 498 803 461 833 q 535 719 535 772 q 499 641 535 668 q 401 614 463 614 m 474 456 l 453 554 q 431 596 446 586 q 386 606 417 606 l 315 606 l 315 649 l 400 649 q 484 632 456 649 q 522 571 513 615 l 551 456 l 474 456 z "},"©":{"ha":1182,"x_min":74,"x_max":1107,"o":"m 590 -58 q 383 -20 478 -58 q 219 86 289 18 q 112 248 150 154 q 74 451 74 342 q 112 656 74 563 q 219 817 150 749 q 383 924 289 886 q 590 961 478 961 q 797 923 703 961 q 961 817 892 885 q 1069 656 1031 749 q 1107 451 1107 563 q 1069 249 1107 342 q 961 87 1031 156 q 797 -20 892 18 q 590 -58 703 -58 m 590 -4 q 772 30 689 -4 q 915 125 854 64 q 1010 269 976 186 q 1044 451 1044 353 q 1010 632 1044 549 q 915 777 976 715 q 772 873 854 839 q 590 907 689 907 q 409 873 492 907 q 265 777 326 839 q 170 632 204 715 q 136 451 136 549 q 170 269 136 353 q 265 125 204 186 q 409 30 326 64 q 590 -4 492 -4 m 857 575 l 746 575 q 689 657 729 628 q 593 686 649 686 q 464 624 510 686 q 418 450 418 561 q 464 278 418 340 q 593 215 510 215 q 686 244 646 215 q 744 324 726 272 l 856 324 q 760 177 831 225 q 597 129 690 129 q 385 215 463 129 q 307 450 307 300 q 384 688 307 600 q 596 775 461 775 q 763 724 690 775 q 857 575 835 674 z "},"@":{"ha":1361,"x_min":65,"x_max":1296,"o":"m 869 485 l 869 399 q 667 388 746 399 q 545 356 589 376 q 484 306 501 335 q 467 244 467 278 q 505 158 467 190 q 613 125 543 125 q 732 155 678 125 q 819 234 786 185 q 851 343 851 283 l 914 343 q 878 197 908 257 q 801 97 847 136 q 699 40 754 58 q 588 22 643 22 q 464 47 519 22 q 376 119 408 72 q 344 231 344 165 q 385 361 344 308 q 508 442 426 414 q 671 476 586 467 q 869 485 756 485 m 1029 24 q 924 48 964 24 q 868 118 885 72 q 851 225 851 164 l 851 506 q 810 644 851 596 q 683 693 769 693 q 551 650 596 693 q 496 536 507 607 l 374 536 q 424 675 385 617 q 531 765 464 733 q 688 796 597 796 q 847 760 783 796 q 941 660 910 725 q 972 508 972 596 l 972 229 q 995 138 972 172 q 1069 103 1018 103 q 1152 139 1117 103 q 1207 244 1188 175 q 1226 411 1226 314 q 1186 627 1226 528 q 1073 800 1146 726 q 901 915 1000 874 q 685 956 803 956 q 465 913 565 956 q 290 794 364 871 q 176 614 217 717 q 135 390 135 511 q 175 166 135 268 q 289 -11 215 64 q 463 -127 363 -86 q 685 -168 564 -168 q 832 -157 763 -168 q 967 -119 901 -146 l 988 -178 q 843 -218 918 -206 q 685 -231 768 -231 q 435 -185 549 -231 q 239 -55 322 -139 q 110 142 156 29 q 65 390 65 256 q 111 641 65 526 q 240 840 157 756 q 437 970 324 924 q 685 1017 550 1017 q 930 972 818 1017 q 1124 845 1042 926 q 1251 653 1206 764 q 1296 413 1296 543 q 1264 203 1296 290 q 1172 70 1232 117 q 1029 24 1113 24 z "},"ª":{"ha":483,"x_min":29,"x_max":447,"o":"m 153 750 l 46 750 q 108 867 57 825 q 244 910 160 910 q 384 860 338 910 q 431 733 431 811 l 431 560 q 434 496 431 521 q 447 451 438 471 l 340 451 q 328 494 331 469 q 326 544 326 518 l 326 733 q 305 799 326 776 q 238 821 283 821 q 179 801 200 821 q 153 750 158 782 m 338 722 l 338 656 q 212 645 256 656 q 152 616 168 635 q 136 572 136 597 q 156 533 136 547 q 207 518 175 518 q 267 534 240 518 q 310 577 294 550 q 326 638 326 604 l 364 638 q 332 523 360 567 q 263 460 304 479 q 179 440 222 440 q 72 472 114 440 q 29 567 29 503 q 55 646 29 613 q 132 697 81 679 q 228 717 179 713 q 338 722 276 722 z "},"º":{"ha":483,"x_min":28,"x_max":456,"o":"m 242 440 q 85 502 143 440 q 28 674 28 564 q 86 849 28 788 q 242 910 144 910 q 398 847 340 910 q 456 674 456 783 q 397 500 456 560 q 242 440 339 440 m 242 526 q 319 564 293 526 q 346 674 346 601 q 319 783 346 744 q 242 821 292 821 q 164 783 190 821 q 138 674 138 746 q 164 565 138 603 q 242 526 190 526 z "},"#":{"ha":971,"x_min":71,"x_max":899,"o":"m 150 0 l 344 944 l 460 944 l 265 0 l 150 0 m 511 0 l 706 944 l 819 944 l 625 0 l 511 0 m 164 621 l 164 718 l 899 718 l 899 621 l 164 621 m 71 225 l 71 322 l 806 322 l 806 225 l 71 225 z "},"€":{"ha":800,"x_min":8,"x_max":761,"o":"m 761 649 l 636 649 q 566 763 614 722 q 457 804 518 804 q 340 761 389 804 q 266 638 292 718 q 240 444 240 557 q 266 253 240 333 q 340 131 292 174 q 457 89 389 89 q 563 128 517 89 q 633 239 608 167 l 760 239 q 643 51 724 118 q 456 -17 563 -17 q 274 39 350 -17 q 156 198 197 94 q 115 444 115 301 q 157 692 115 588 q 276 853 199 796 q 461 910 353 910 q 649 843 568 910 q 761 649 731 776 m 46 493 l 67 590 l 536 590 l 515 493 l 46 493 m 8 299 l 29 396 l 499 396 l 478 299 l 8 299 z "},"$":{"ha":800,"x_min":64,"x_max":735,"o":"m 213 660 q 241 583 213 611 q 316 540 269 556 q 418 512 363 524 q 529 485 474 500 q 631 443 585 469 q 706 370 678 417 q 735 250 735 324 q 693 106 735 165 q 580 15 651 46 q 417 -17 508 -17 q 178 51 272 -17 q 64 256 85 119 l 188 256 q 261 132 199 175 q 418 89 324 89 q 560 131 511 89 q 610 239 610 174 q 581 323 610 292 q 506 371 553 354 q 404 400 460 388 q 293 428 349 413 q 191 469 238 443 q 116 542 144 496 q 88 664 88 589 q 122 783 88 728 q 222 874 156 839 q 386 910 288 910 q 539 881 469 910 q 653 794 608 853 q 708 643 699 735 l 585 643 q 518 766 572 728 q 381 804 464 804 q 256 765 299 804 q 213 660 213 725 m 335 871 l 335 1042 l 460 1042 l 460 871 l 335 871 m 335 -149 l 335 21 l 460 21 l 460 -149 l 335 -149 z "},"¥":{"ha":800,"x_min":21,"x_max":778,"o":"m 335 0 l 335 367 l 464 367 l 464 0 l 335 0 m 158 893 l 361 540 l 408 440 l 397 440 l 446 540 l 649 893 l 778 893 l 464 367 l 335 367 l 21 893 l 158 893 m 144 342 l 144 439 l 654 439 l 654 342 l 144 342 m 144 147 l 144 244 l 654 244 l 654 147 l 144 147 z "},"£":{"ha":800,"x_min":85,"x_max":729,"o":"m 239 660 q 256 585 239 621 q 300 513 274 549 q 352 442 326 478 q 395 366 378 406 q 413 281 413 326 q 365 147 413 206 q 231 50 317 88 l 160 92 q 256 172 225 125 q 288 278 288 219 q 270 355 288 319 q 227 424 253 390 q 175 494 201 458 q 131 570 149 529 q 114 663 114 611 q 148 785 114 729 q 249 876 182 842 q 413 910 315 910 q 563 881 496 910 q 675 794 631 853 q 729 643 719 736 l 606 643 q 542 765 593 726 q 413 804 490 804 q 283 765 328 804 q 239 660 239 725 m 85 0 l 85 103 l 729 103 l 729 0 l 85 0 m 106 342 l 106 439 l 615 439 l 615 342 l 106 342 z "},"¢":{"ha":800,"x_min":76,"x_max":729,"o":"m 346 788 l 346 958 l 471 958 l 471 788 l 346 788 m 346 -76 l 346 92 l 471 92 l 471 -76 l 346 -76 m 724 556 l 603 556 q 535 685 586 642 q 410 728 483 728 q 255 653 308 728 q 201 439 201 579 q 257 227 201 303 q 414 151 313 151 q 538 194 488 151 q 607 318 589 236 l 729 318 q 617 118 701 183 q 413 53 532 53 q 232 99 307 53 q 117 233 157 146 q 76 439 76 319 q 117 651 76 565 q 233 782 158 738 q 410 826 308 826 q 558 795 492 826 q 667 704 624 764 q 724 556 710 644 z "},"ƒ":{"ha":800,"x_min":190,"x_max":608,"o":"m 233 533 l 233 631 l 608 631 l 608 533 l 233 533 m 458 -94 q 410 -267 458 -211 q 258 -324 361 -324 q 218 -320 236 -324 q 190 -312 200 -317 l 190 -225 l 203 -225 q 310 -193 283 -225 q 336 -94 336 -161 l 336 681 q 385 853 336 797 q 536 910 435 910 q 577 906 560 910 q 604 899 594 903 l 604 811 l 592 811 q 485 779 511 811 q 458 681 458 747 l 458 -94 z "},"¤":{"ha":800,"x_min":144,"x_max":656,"o":"m 401 233 q 294 260 342 233 q 220 334 247 288 q 193 440 193 381 q 220 549 193 501 q 294 623 247 596 q 401 650 342 650 q 508 623 461 650 q 581 549 554 596 q 608 440 608 501 q 581 335 608 382 q 508 260 554 288 q 401 233 461 233 m 401 313 q 488 349 454 313 q 521 440 521 385 q 488 534 521 497 q 401 571 454 571 q 315 534 349 571 q 281 440 281 497 q 315 349 281 385 q 401 313 349 313 m 310 599 l 244 532 l 144 632 l 210 699 l 310 599 m 656 631 l 554 531 l 492 599 l 589 697 l 656 631 m 656 253 l 589 188 l 492 285 l 558 350 l 656 253 m 210 186 l 144 253 l 240 349 l 304 281 l 210 186 z "},"°":{"ha":483,"x_min":28,"x_max":456,"o":"m 242 482 q 132 510 181 482 q 56 585 83 538 q 28 694 28 633 q 56 806 28 757 q 132 882 83 854 q 242 910 181 910 q 352 882 304 910 q 428 806 400 854 q 456 694 456 757 q 428 585 456 633 q 352 510 400 538 q 242 482 304 482 m 242 568 q 316 603 286 568 q 346 694 346 639 q 316 785 346 750 q 242 821 286 821 q 167 785 197 821 q 138 694 138 750 q 167 603 138 639 q 242 568 197 568 z "},"%":{"ha":1086,"x_min":25,"x_max":1060,"o":"m 239 407 q 81 473 138 407 q 25 657 25 539 q 82 844 25 778 q 239 910 139 910 q 397 843 340 910 q 453 657 453 776 q 397 472 453 538 q 239 407 340 407 m 239 496 q 317 538 290 496 q 344 657 344 579 q 317 777 344 735 q 239 819 290 819 q 161 778 188 819 q 135 657 135 736 q 162 538 135 581 q 239 496 189 496 m 160 0 l 804 893 l 926 893 l 282 0 l 160 0 m 846 -11 q 688 55 744 -11 q 632 239 632 121 q 689 426 632 360 q 846 492 746 492 q 1003 425 947 492 q 1060 239 1060 358 q 1003 54 1060 119 q 846 -11 947 -11 m 846 78 q 924 119 897 78 q 951 239 951 161 q 924 359 951 317 q 846 401 897 401 q 768 360 794 401 q 742 239 742 318 q 769 119 742 161 q 846 78 796 78 z "},"‰":{"ha":1565,"x_min":25,"x_max":1539,"o":"m 239 407 q 81 473 138 407 q 25 657 25 539 q 82 844 25 778 q 239 910 139 910 q 397 843 340 910 q 453 657 453 776 q 397 472 453 538 q 239 407 340 407 m 239 496 q 317 538 290 496 q 344 657 344 579 q 317 777 344 735 q 239 819 290 819 q 161 778 188 819 q 135 657 135 736 q 162 538 135 581 q 239 496 189 496 m 160 0 l 804 893 l 926 893 l 282 0 l 160 0 m 846 -11 q 688 55 744 -11 q 632 239 632 121 q 689 426 632 360 q 846 492 746 492 q 1003 425 947 492 q 1060 239 1060 358 q 1003 54 1060 119 q 846 -11 947 -11 m 846 78 q 924 119 897 78 q 951 239 951 161 q 924 359 951 317 q 846 401 897 401 q 768 360 794 401 q 742 239 742 318 q 769 119 742 161 q 846 78 796 78 m 1325 -11 q 1167 55 1224 -11 q 1111 239 1111 121 q 1168 426 1111 360 q 1325 492 1225 492 q 1483 425 1426 492 q 1539 239 1539 358 q 1483 54 1539 119 q 1325 -11 1426 -11 m 1325 78 q 1403 119 1376 78 q 1431 239 1431 161 q 1403 359 1431 317 q 1325 401 1376 401 q 1247 360 1274 401 q 1221 239 1221 318 q 1248 119 1221 161 q 1325 78 1275 78 z "},"⁄":{"ha":128,"x_min":-319,"x_max":447,"o":"m -319 0 l 325 893 l 447 893 l -197 0 l -319 0 z "},"∕":{"ha":128,"x_min":-319,"x_max":447,"o":"m -319 0 l 325 893 l 447 893 l -197 0 l -319 0 z "},"⁰":{"ha":479,"x_min":25,"x_max":453,"o":"m 239 351 q 81 425 138 351 q 25 629 25 499 q 82 837 25 764 q 239 910 139 910 q 397 835 340 910 q 453 629 453 761 q 397 424 453 496 q 239 351 340 351 m 239 440 q 317 489 290 440 q 344 629 344 538 q 317 770 344 721 q 239 819 290 819 q 161 771 188 819 q 135 629 135 722 q 162 490 135 539 q 239 440 189 440 z "},"¹":{"ha":479,"x_min":99,"x_max":411,"o":"m 311 363 l 199 363 l 199 768 q 186 768 193 768 q 169 768 179 768 l 99 768 l 99 849 l 146 849 q 202 858 188 849 q 217 890 217 868 l 217 897 l 311 897 l 311 363 m 99 363 l 99 444 l 411 444 l 411 363 l 99 363 z "},"²":{"ha":479,"x_min":40,"x_max":435,"o":"m 433 743 q 413 667 433 699 q 359 613 392 636 q 290 568 326 589 q 220 524 253 547 q 167 472 188 501 q 146 401 146 443 l 42 389 q 63 490 42 449 q 115 558 83 531 q 184 607 147 586 q 253 647 221 628 q 306 688 285 665 q 326 742 326 710 q 305 800 326 779 q 244 821 283 821 q 178 799 201 821 q 149 739 156 778 l 40 739 q 104 864 51 818 q 244 910 157 910 q 349 888 307 910 q 413 828 392 865 q 433 743 433 790 m 42 363 l 42 389 l 126 444 l 435 444 l 435 363 l 42 363 z "},"³":{"ha":479,"x_min":25,"x_max":451,"o":"m 436 750 q 411 674 436 704 q 332 628 386 643 q 189 614 278 614 l 189 676 l 213 676 q 288 688 263 676 q 321 716 313 699 q 329 749 329 733 q 306 802 329 783 q 242 821 283 821 q 174 799 199 821 q 143 739 150 778 l 36 739 q 101 864 47 818 q 243 910 156 910 q 349 888 307 910 q 414 831 392 867 q 436 750 436 794 m 451 515 q 428 433 451 469 q 358 374 404 396 q 242 351 311 351 q 94 397 151 351 q 25 524 36 443 l 132 524 q 166 461 139 485 q 242 438 193 438 q 317 459 290 438 q 344 519 344 481 q 334 557 344 539 q 297 586 324 575 q 219 597 271 597 l 189 597 l 189 672 q 343 653 286 672 q 426 598 400 633 q 451 515 451 563 z "},"⁴":{"ha":479,"x_min":32,"x_max":457,"o":"m 388 363 l 279 363 l 279 769 l 117 558 l 457 558 l 457 475 l 32 475 l 32 571 l 290 897 l 388 897 l 388 363 z "},"½":{"ha":1086,"x_min":99,"x_max":1042,"o":"m 311 363 l 199 363 l 199 768 q 186 768 193 768 q 169 768 179 768 l 99 768 l 99 849 l 146 849 q 202 858 188 849 q 217 890 217 868 l 217 897 l 311 897 l 311 363 m 99 363 l 99 444 l 411 444 l 411 363 l 99 363 m 182 0 l 826 893 l 949 893 l 304 0 l 182 0 m 1040 381 q 1019 305 1040 336 q 966 250 999 274 q 897 206 933 226 q 827 162 860 185 q 774 110 794 139 q 753 39 753 81 l 649 26 q 669 127 649 86 q 722 196 690 168 q 791 244 754 224 q 860 284 828 265 q 913 325 892 303 q 933 379 933 347 q 912 438 933 417 q 851 458 890 458 q 785 437 808 458 q 756 376 763 415 l 647 376 q 711 501 658 456 q 851 547 764 547 q 956 525 914 547 q 1019 465 999 503 q 1040 381 1040 428 m 649 0 l 649 26 l 733 82 l 1042 82 l 1042 0 l 649 0 z "},"¼":{"ha":1086,"x_min":99,"x_max":1064,"o":"m 311 363 l 199 363 l 199 768 q 186 768 193 768 q 169 768 179 768 l 99 768 l 99 849 l 146 849 q 202 858 188 849 q 217 890 217 868 l 217 897 l 311 897 l 311 363 m 99 363 l 99 444 l 411 444 l 411 363 l 99 363 m 226 0 l 871 893 l 993 893 l 349 0 l 226 0 m 994 0 l 886 0 l 886 407 l 724 196 l 1064 196 l 1064 113 l 639 113 l 639 208 l 897 535 l 994 535 l 994 0 z "},"¾":{"ha":1086,"x_min":25,"x_max":1064,"o":"m 436 750 q 411 674 436 704 q 332 628 386 643 q 189 614 278 614 l 189 676 l 213 676 q 288 688 263 676 q 321 716 313 699 q 329 749 329 733 q 306 802 329 783 q 242 821 283 821 q 174 799 199 821 q 143 739 150 778 l 36 739 q 101 864 47 818 q 243 910 156 910 q 349 888 307 910 q 414 831 392 867 q 436 750 436 794 m 451 515 q 428 433 451 469 q 358 374 404 396 q 242 351 311 351 q 94 397 151 351 q 25 524 36 443 l 132 524 q 166 461 139 485 q 242 438 193 438 q 317 459 290 438 q 344 519 344 481 q 334 557 344 539 q 297 586 324 575 q 219 597 271 597 l 189 597 l 189 672 q 343 653 286 672 q 426 598 400 633 q 451 515 451 563 m 221 0 l 865 893 l 988 893 l 343 0 l 221 0 m 994 0 l 886 0 l 886 407 l 724 196 l 1064 196 l 1064 113 l 639 113 l 639 208 l 897 535 l 994 535 l 994 0 z "},"+":{"ha":800,"x_min":129,"x_max":669,"o":"m 129 393 l 129 490 l 669 490 l 669 393 l 129 393 m 449 171 l 351 171 l 351 711 l 449 711 l 449 171 z "},"−":{"ha":800,"x_min":129,"x_max":669,"o":"m 129 393 l 129 490 l 669 490 l 669 393 l 129 393 z "},"×":{"ha":800,"x_min":154,"x_max":646,"o":"m 224 196 l 154 265 l 576 686 l 644 618 l 224 196 m 646 265 l 576 196 l 156 618 l 224 686 l 646 265 z "},"÷":{"ha":800,"x_min":129,"x_max":669,"o":"m 129 396 l 129 488 l 669 488 l 669 396 l 129 396 m 343 126 l 343 233 l 456 233 l 456 126 l 343 126 m 343 633 l 343 740 l 456 740 l 456 633 l 343 633 z "},"=":{"ha":800,"x_min":129,"x_max":669,"o":"m 129 254 l 129 351 l 669 351 l 669 254 l 129 254 m 129 532 l 129 629 l 669 629 l 669 532 l 129 532 z "},"¬":{"ha":800,"x_min":129,"x_max":669,"o":"m 129 393 l 129 490 l 669 490 l 669 393 l 129 393 m 669 171 l 572 171 l 572 433 l 669 433 l 669 171 z "},"~":{"ha":800,"x_min":129,"x_max":669,"o":"m 129 396 l 129 488 q 198 524 165 513 q 260 535 231 535 q 335 521 299 535 q 405 488 371 507 q 472 456 439 469 q 539 442 506 442 q 601 453 568 442 q 669 488 633 464 l 669 396 q 601 360 633 371 q 539 349 568 349 q 464 363 500 349 q 394 395 428 376 q 326 428 360 414 q 260 442 293 442 q 198 431 231 442 q 129 396 165 419 z "},"<":{"ha":800,"x_min":129,"x_max":669,"o":"m 669 118 l 129 396 l 129 489 l 669 767 l 669 653 l 249 442 l 669 232 l 669 118 z "},">":{"ha":800,"x_min":129,"x_max":669,"o":"m 129 118 l 129 232 l 550 442 l 129 653 l 129 767 l 669 489 l 669 396 l 129 118 z "},"±":{"ha":800,"x_min":129,"x_max":669,"o":"m 129 0 l 129 97 l 669 97 l 669 0 l 129 0 m 129 449 l 129 546 l 669 546 l 669 449 l 129 449 m 449 226 l 351 226 l 351 767 l 449 767 l 449 226 z "},"^":{"ha":800,"x_min":154,"x_max":644,"o":"m 154 542 l 353 944 l 446 944 l 644 542 l 544 542 l 400 844 l 254 542 l 154 542 z "},"≠":{"ha":800,"x_min":129,"x_max":669,"o":"m 129 254 l 129 351 l 669 351 l 669 254 l 129 254 m 129 532 l 129 629 l 669 629 l 669 532 l 129 532 m 310 157 l 213 157 l 490 725 l 588 725 l 310 157 z "},"≈":{"ha":800,"x_min":129,"x_max":669,"o":"m 129 257 l 129 349 q 198 385 165 374 q 260 396 231 396 q 335 382 299 396 q 405 349 371 368 q 472 317 439 331 q 539 303 506 303 q 601 314 568 303 q 669 349 633 325 l 669 257 q 601 221 633 232 q 539 210 568 210 q 464 224 500 210 q 394 256 428 238 q 326 289 360 275 q 260 303 293 303 q 198 292 231 303 q 129 257 165 281 m 129 535 l 129 626 q 198 663 165 651 q 260 674 231 674 q 335 660 299 674 q 405 627 371 646 q 472 594 439 608 q 539 581 506 581 q 601 592 568 581 q 669 626 633 603 l 669 535 q 601 499 633 510 q 539 488 568 488 q 464 501 500 488 q 394 534 428 515 q 326 567 360 553 q 260 581 293 581 q 198 569 231 581 q 129 535 165 558 z "},"≤":{"ha":800,"x_min":129,"x_max":669,"o":"m 129 0 l 129 97 l 669 97 l 669 0 l 129 0 m 669 174 l 129 451 l 129 544 l 669 822 l 669 708 l 249 497 l 669 286 l 669 174 z "},"≥":{"ha":800,"x_min":129,"x_max":669,"o":"m 669 0 l 129 0 l 129 97 l 669 97 l 669 0 m 129 174 l 129 286 l 550 497 l 129 708 l 129 822 l 669 544 l 669 451 l 129 174 z "},"∞":{"ha":1022,"x_min":51,"x_max":969,"o":"m 51 447 q 82 583 51 525 q 171 674 113 642 q 310 707 229 707 q 442 674 386 707 q 528 583 497 642 q 558 447 558 525 q 528 310 558 369 q 442 219 499 251 q 308 186 386 186 q 173 219 231 186 q 83 310 115 251 q 51 447 51 369 m 158 447 q 200 327 158 372 q 314 282 242 282 q 424 327 386 282 q 463 447 463 372 q 423 566 463 521 q 314 611 383 611 q 199 566 240 611 q 158 447 158 521 m 969 447 q 938 310 969 369 q 848 219 906 251 q 713 186 790 186 q 578 219 635 186 q 492 310 522 251 q 463 447 463 369 q 493 583 463 525 q 579 674 524 642 q 713 707 635 707 q 851 674 793 707 q 939 583 908 642 q 969 447 969 525 m 863 447 q 822 566 863 521 q 707 611 781 611 q 598 566 638 611 q 558 447 558 521 q 597 327 558 372 q 707 282 635 282 q 822 327 781 282 q 863 447 863 372 z "},"◊":{"ha":732,"x_min":60,"x_max":672,"o":"m 542 446 l 386 761 l 356 832 l 368 832 l 339 761 l 182 446 l 60 446 l 289 893 l 442 893 l 672 446 l 542 446 m 542 446 l 672 446 l 442 0 l 289 0 l 60 446 l 182 446 l 339 131 l 368 60 l 356 60 l 386 131 l 542 446 z "},"√":{"ha":850,"x_min":51,"x_max":799,"o":"m 674 893 l 799 893 l 461 0 l 300 0 l 51 568 l 181 568 l 361 131 l 388 61 l 375 61 l 400 131 l 674 893 z "},"∫":{"ha":497,"x_min":42,"x_max":456,"o":"m 310 -94 q 261 -267 310 -211 q 110 -324 213 -324 q 69 -320 88 -324 q 42 -312 51 -317 l 42 -225 l 54 -225 q 161 -193 135 -225 q 188 -94 188 -161 l 188 681 q 237 853 188 797 q 388 910 286 910 q 428 906 411 910 q 456 899 446 903 l 456 811 l 443 811 q 336 779 363 811 q 310 681 310 747 l 310 -94 z "},"∂":{"ha":794,"x_min":60,"x_max":735,"o":"m 397 -17 q 216 21 292 -17 q 100 128 140 58 q 60 294 60 197 q 101 465 60 396 q 218 571 142 535 q 397 607 294 607 q 578 571 503 607 q 694 467 654 535 q 735 307 735 400 q 694 131 735 203 q 577 21 653 58 q 397 -17 501 -17 m 397 89 q 555 142 500 89 q 610 294 610 194 q 555 447 610 393 q 397 501 500 501 q 240 448 294 501 q 185 294 185 394 q 240 142 185 196 q 397 89 296 89 m 197 893 l 365 893 q 567 725 485 815 q 692 531 649 635 q 735 307 735 426 l 622 294 q 512 620 622 475 q 197 893 401 765 z "},"∏":{"ha":911,"x_min":108,"x_max":803,"o":"m 108 -251 l 108 893 l 236 893 l 236 -251 l 108 -251 m 675 -251 l 675 893 l 803 893 l 803 -251 l 675 -251 m 200 789 l 200 893 l 700 893 l 700 789 l 200 789 z "},"π":{"ha":860,"x_min":14,"x_max":846,"o":"m 142 0 l 142 738 l 264 738 l 264 0 l 142 0 m 561 218 l 561 713 l 683 713 l 683 218 q 710 119 683 151 q 818 88 738 88 l 843 88 l 843 0 q 812 -8 833 -6 q 764 -11 790 -11 q 611 45 661 -11 q 561 218 561 101 m 14 640 l 14 738 l 846 738 l 846 640 l 14 640 z "},"μ":{"ha":786,"x_min":99,"x_max":689,"o":"m 689 738 l 689 0 l 567 0 l 567 738 l 689 738 m 567 301 l 625 301 q 582 125 619 196 q 483 18 544 54 q 343 -18 422 -18 q 212 12 267 -18 q 128 101 157 42 q 99 244 99 160 l 99 738 l 221 738 l 221 269 q 238 173 221 214 q 288 109 254 132 q 376 86 322 86 q 456 105 421 86 q 516 154 492 124 q 553 224 540 185 q 567 301 567 263 m 221 -306 l 99 -306 l 99 738 l 221 738 l 221 -306 z "},"∑":{"ha":807,"x_min":42,"x_max":724,"o":"m 42 -306 l 389 311 l 42 893 l 186 893 l 533 311 l 186 -306 l 42 -306 m 133 -306 l 133 -201 l 724 -201 l 724 -306 l 133 -306 m 133 789 l 133 893 l 724 893 l 724 789 l 133 789 z "},"Ω":{"ha":1051,"x_min":60,"x_max":990,"o":"m 588 0 l 588 90 l 672 103 l 990 103 l 990 0 l 588 0 m 525 804 q 356 761 426 804 q 247 644 285 718 q 210 474 210 569 q 242 301 210 378 q 332 172 275 225 q 464 90 389 118 l 354 60 q 212 151 272 89 q 118 297 151 213 q 85 482 85 382 q 138 706 85 610 q 290 856 192 801 q 525 910 389 910 q 760 856 661 910 q 912 706 858 801 q 965 482 965 610 q 932 297 965 382 q 838 151 899 213 q 696 60 778 89 l 588 90 q 718 172 661 118 q 808 301 775 225 q 840 474 840 378 q 803 644 840 569 q 695 761 765 718 q 525 804 625 804 m 464 0 l 60 0 l 60 103 l 379 103 l 464 90 l 464 0 z "},"Ω":{"ha":1051,"x_min":60,"x_max":990,"o":"m 588 0 l 588 90 l 672 103 l 990 103 l 990 0 l 588 0 m 525 804 q 356 761 426 804 q 247 644 285 718 q 210 474 210 569 q 242 301 210 378 q 332 172 275 225 q 464 90 389 118 l 354 60 q 212 151 272 89 q 118 297 151 213 q 85 482 85 382 q 138 706 85 610 q 290 856 192 801 q 525 910 389 910 q 760 856 661 910 q 912 706 858 801 q 965 482 965 610 q 932 297 965 382 q 838 151 899 213 q 696 60 778 89 l 588 90 q 718 172 661 118 q 808 301 775 225 q 840 474 840 378 q 803 644 840 569 q 695 761 765 718 q 525 804 625 804 m 464 0 l 60 0 l 60 103 l 379 103 l 464 90 l 464 0 z "},"∆":{"ha":913,"x_min":39,"x_max":874,"o":"m 124 0 l 124 103 l 764 103 l 764 0 l 124 0 m 740 0 l 481 686 l 450 778 l 456 778 l 425 686 l 165 0 l 39 0 l 382 893 l 529 893 l 874 0 l 740 0 z "},"Δ":{"ha":913,"x_min":39,"x_max":874,"o":"m 124 0 l 124 103 l 764 103 l 764 0 l 124 0 m 740 0 l 481 686 l 450 778 l 456 778 l 425 686 l 165 0 l 39 0 l 382 893 l 529 893 l 874 0 l 740 0 z "},"ℓ":{"ha":718,"x_min":35,"x_max":656,"o":"m 35 258 q 219 308 133 275 q 372 389 306 340 q 474 503 438 438 q 511 649 511 568 q 498 726 511 690 q 458 783 485 761 q 394 804 432 804 q 273 712 315 804 q 231 446 231 619 q 274 182 231 275 q 399 89 318 89 q 491 126 453 89 q 542 240 529 164 l 656 240 q 563 47 632 111 q 396 -17 494 -17 q 241 39 306 -17 q 142 199 176 94 q 107 446 107 303 q 185 791 107 672 q 399 910 264 910 q 526 875 474 910 q 607 783 579 840 q 635 654 635 725 q 582 468 635 551 q 442 322 529 385 q 248 219 354 260 q 35 163 142 179 l 35 258 z "},"℮":{"ha":1046,"x_min":125,"x_max":921,"o":"m 125 339 q 158 483 125 417 q 247 597 190 549 q 374 672 303 646 q 522 699 446 699 q 678 669 606 699 q 805 590 750 640 q 890 475 860 540 q 921 339 921 410 l 921 329 l 275 329 q 271 326 271 329 l 271 131 q 279 107 271 117 q 388 31 324 58 q 524 4 451 4 q 664 34 597 4 q 781 119 731 64 l 838 119 q 701 20 783 58 q 522 -18 618 -18 q 371 8 443 -18 q 244 83 299 35 q 157 197 189 132 q 125 339 125 263 m 765 575 q 654 649 715 622 q 524 676 593 676 q 401 653 461 676 q 348 625 379 643 q 294 586 317 607 q 271 546 271 565 l 271 354 q 275 349 271 349 l 771 349 q 775 354 775 349 l 775 550 q 772 563 775 557 q 765 575 769 568 z "},"":{"ha":2415,"x_min":153,"x_max":2263,"o":"m 153 0 l 153 972 l 453 972 l 453 0 l 153 0 m 515 689 l 515 972 l 815 972 l 815 689 l 515 689 m 876 0 l 876 972 l 1178 972 l 1178 0 l 876 0 m 1239 689 l 1239 972 l 1539 972 l 1539 689 l 1239 689 m 1600 0 l 1600 972 l 1901 972 l 1901 0 l 1600 0 m 1963 689 l 1963 972 l 2263 972 l 2263 689 l 1963 689 m 1963 343 l 1963 628 l 2263 628 l 2263 343 l 1963 343 z "}}}
